<svg width="70" height="57" viewBox="0 0 70 57" fill="none" xmlns="http://www.w3.org/2000/svg">
<path d="M36.3616 48.7782L36.9742 48.9954L36.3616 48.7782ZM24.4529 43.4379L23.9836 42.9882L24.4529 43.4379ZM30.0858 41.3074L29.9381 41.9404L30.0858 41.3074ZM32.2757 42.5821L31.8812 43.0987L32.2757 42.5821ZM31.8888 38.225L32.4827 37.9609L31.8888 38.225ZM19.8781 30.6577L19.9521 30.0119L19.8781 30.6577ZM10.9664 32.6306L11.4091 33.1065L10.9664 32.6306ZM9.63279 44.2581L9.08386 44.6062L9.63279 44.2581ZM30.6174 36.672L30.1792 37.1521L30.6174 36.672ZM17.9963 17.0446L17.7917 17.6616L17.9963 17.0446ZM6.7712 18.1499L6.47071 17.5735L6.34266 17.6402L6.25492 17.7549L6.7712 18.1499ZM3.63386 29.3902L2.984 29.3766L3.63386 29.3902ZM4.96712 36.0665L5.56002 35.8001L4.96712 36.0665ZM7.11421 15.1591L6.51083 14.9174L7.11421 15.1591ZM28.7206 4.28128L28.5594 4.91097L28.5731 4.91448L28.587 4.91739L28.7206 4.28128ZM37.7374 16.6452L37.1092 16.8118L37.7374 16.6452ZM37.4192 32.6696L37.9286 33.0734L37.4192 32.6696ZM42.4619 6.804L42.6125 6.17168L42.4619 6.804ZM47.8009 20.7653L48.3728 21.0743L47.8009 20.7653ZM43.2786 31.6775L43.6039 32.2402L43.2786 31.6775ZM37.9616 31.739L37.3676 31.4749L37.9616 31.739ZM61.3977 19.6291L62.0045 19.396L61.3977 19.6291ZM57.3911 24.6258L57.9143 25.0115L57.3911 24.6258ZM49.4759 31.6775L49.4093 32.3241L49.4759 31.6775ZM45.2368 30.1115L44.6092 29.9424L45.2368 30.1115ZM59.4993 32.8271L59.36 33.462L59.4993 32.8271ZM65.6643 31.4763L65.1508 31.0779L65.6643 31.4763ZM65.2152 26.4193L64.6348 26.712L65.2152 26.4193ZM15.8423 11.8225C15.5868 12.0747 15.5842 12.4863 15.8364 12.7417C16.0886 12.9972 16.5001 12.9999 16.7556 12.7477L15.8423 11.8225ZM27.7571 8.02491C28.1158 8.03675 28.4163 7.75549 28.4281 7.3967C28.44 7.03791 28.1587 6.73746 27.7999 6.72562L27.7571 8.02491ZM35.749 48.5609C35.4131 49.508 34.4709 50.1247 33.1256 50.469C31.799 50.8084 30.2421 50.836 28.982 50.7351L28.8783 52.0309C30.2162 52.1381 31.9305 52.1167 33.4479 51.7284C34.9465 51.3449 36.421 50.5552 36.9742 48.9954L35.749 48.5609ZM28.982 50.7351C26.3436 50.5238 24.9319 50.3941 23.5717 49.4088L22.8091 50.4616C24.5165 51.6984 26.3206 51.8261 28.8783 52.0309L28.982 50.7351ZM23.5717 49.4088C23.3627 49.2574 23.2054 49 23.1354 48.5965C23.0645 48.1883 23.093 47.673 23.2248 47.0992C23.4896 45.9469 24.1361 44.708 24.9222 43.8877L23.9836 42.9882C23.0226 43.991 22.271 45.4453 21.9578 46.8081C21.8007 47.4918 21.7453 48.1896 21.8545 48.8188C21.9645 49.4529 22.2512 50.0575 22.8091 50.4616L23.5717 49.4088ZM24.9222 43.8877C25.6229 43.1564 26.5454 42.5815 27.4779 42.2351C28.4206 41.8848 29.3049 41.7927 29.9381 41.9404L30.2334 40.6744C29.2679 40.4491 28.1113 40.6129 27.0251 41.0165C25.9286 41.4239 24.834 42.1007 23.9836 42.9882L24.9222 43.8877ZM29.9381 41.9404C30.078 41.973 30.3337 42.0807 30.6943 42.2908C31.0422 42.4935 31.4489 42.7686 31.8812 43.0987L32.6702 42.0655C32.2052 41.7104 31.7533 41.4033 31.3488 41.1676C30.9569 40.9392 30.5663 40.752 30.2334 40.6744L29.9381 41.9404ZM31.8812 43.0987C32.9154 43.8884 34.0454 44.9541 34.8323 46.0167C35.226 46.5484 35.5163 47.0558 35.674 47.5085C35.8324 47.9632 35.8388 48.3076 35.749 48.5609L36.9742 48.9954C37.1975 48.3659 37.1168 47.6984 36.9016 47.0808C36.6857 46.4611 36.3159 45.8357 35.877 45.243C34.9986 44.0569 33.7725 42.9073 32.6702 42.0655L31.8812 43.0987ZM32.2757 42.5821C32.872 42.8406 32.8722 42.8403 32.8723 42.84C32.8724 42.8399 32.8725 42.8395 32.8726 42.8393C32.8728 42.8388 32.873 42.8383 32.8733 42.8378C32.8737 42.8367 32.8742 42.8355 32.8748 42.8343C32.8759 42.8317 32.8771 42.8287 32.8786 42.8252C32.8814 42.8183 32.8849 42.8096 32.889 42.7992C32.8972 42.7783 32.9077 42.7505 32.9198 42.716C32.9439 42.647 32.9746 42.551 33.0062 42.4299C33.0694 42.1877 33.1366 41.8444 33.1631 41.4156C33.2163 40.5547 33.1047 39.36 32.4827 37.9609L31.2948 38.489C31.8251 39.6818 31.9069 40.6657 31.8655 41.3354C31.8447 41.6719 31.7926 41.9319 31.7483 42.1017C31.7262 42.1866 31.706 42.2487 31.6928 42.2864C31.6862 42.3052 31.6814 42.3178 31.6789 42.3241C31.6777 42.3273 31.6771 42.3288 31.6771 42.3287C31.6771 42.3287 31.6773 42.3282 31.6777 42.3274C31.6779 42.3269 31.6781 42.3264 31.6784 42.3258C31.6785 42.3254 31.6786 42.3251 31.6788 42.3247C31.6789 42.3246 31.679 42.3243 31.679 42.3242C31.6792 42.3239 31.6793 42.3236 32.2757 42.5821ZM19.9521 30.0119C18.9558 29.8976 17.321 29.7782 15.5874 30.0056C13.8604 30.2322 11.9669 30.8121 10.5237 32.1547L11.4091 33.1065C12.5757 32.0213 14.1662 31.5032 15.7565 31.2946C17.3404 31.0868 18.8566 31.1948 19.804 31.3035L19.9521 30.0119ZM9.08386 44.6062C10.1044 46.2155 11.0648 47.281 12.1084 48.0517C13.1501 48.8211 14.2384 49.2692 15.4591 49.6875L15.8805 48.4578C14.7015 48.0537 13.7621 47.657 12.8807 47.006C12.001 46.3563 11.1429 45.4257 10.1817 43.91L9.08386 44.6062ZM15.4591 49.6875C16.7263 50.1218 18.7079 50.47 20.328 50.6478C21.1412 50.737 21.8919 50.7866 22.4393 50.779C22.7036 50.7754 22.965 50.7583 23.1705 50.7088C23.2612 50.687 23.4251 50.6405 23.5693 50.5248C23.6495 50.4605 23.7509 50.3528 23.8066 50.1906C23.8657 50.0184 23.851 49.8497 23.8012 49.713L22.5796 50.1575C22.5413 50.0522 22.5274 49.9131 22.5771 49.7684C22.6233 49.6337 22.7051 49.5515 22.7559 49.5107C22.8414 49.4421 22.9078 49.4349 22.8663 49.4449C22.8076 49.459 22.6659 49.4758 22.4213 49.4791C21.9507 49.4857 21.2598 49.4422 20.4698 49.3555C18.8836 49.1815 17.013 48.8459 15.8805 48.4578L15.4591 49.6875ZM32.4827 37.9609C32.221 37.3721 31.6862 36.7675 31.0556 36.1919L30.1792 37.1521C30.7778 37.6985 31.1461 38.1544 31.2948 38.489L32.4827 37.9609ZM31.0556 36.1919C29.5798 34.8448 27.2402 33.3575 25.0936 32.1918C24.0148 31.6059 22.9702 31.0933 22.0882 30.7137C21.2325 30.3454 20.4581 30.07 19.9521 30.0119L19.804 31.3035C20.0967 31.3371 20.7097 31.5357 21.5743 31.9078C22.4127 32.2687 23.4213 32.7629 24.4732 33.3342C26.5881 34.4827 28.8194 35.9108 30.1792 37.1521L31.0556 36.1919ZM30.6174 36.672C30.8594 37.2753 30.8595 37.2752 30.8597 37.2752C30.8597 37.2751 30.8599 37.2751 30.86 37.275C30.8602 37.275 30.8605 37.2748 30.8608 37.2747C30.8614 37.2745 30.8622 37.2741 30.8632 37.2737C30.8652 37.2729 30.8678 37.2719 30.8711 37.2705C30.8777 37.2679 30.8869 37.2641 30.8985 37.2593C30.9217 37.2496 30.9548 37.2357 30.9961 37.2178C31.0788 37.1821 31.1951 37.1304 31.3335 37.0649C31.6084 36.9347 31.9785 36.7461 32.3457 36.5168C32.7058 36.2919 33.0983 36.0063 33.3915 35.674C33.6725 35.3553 33.9684 34.8692 33.8482 34.289L32.5752 34.5526C32.5752 34.5526 32.5752 34.5526 32.5752 34.5525C32.5752 34.5523 32.5752 34.5523 32.5752 34.5524C32.5752 34.5525 32.5752 34.5536 32.5749 34.5563C32.5743 34.5615 32.572 34.5748 32.5631 34.5972C32.5439 34.6453 32.5008 34.7185 32.4165 34.814C32.2449 35.0086 31.9744 35.216 31.657 35.4142C31.3467 35.608 31.0248 35.7727 30.7771 35.89C30.6542 35.9482 30.5516 35.9937 30.4806 36.0244C30.4452 36.0397 30.4177 36.0513 30.3997 36.0588C30.3907 36.0625 30.384 36.0652 30.3799 36.0669C30.3778 36.0677 30.3764 36.0683 30.3757 36.0686C30.3753 36.0688 30.3751 36.0689 30.375 36.0689C30.375 36.0689 30.375 36.0689 30.3751 36.0689C30.3751 36.0689 30.3752 36.0688 30.3752 36.0688C30.3753 36.0688 30.3754 36.0687 30.6174 36.672ZM33.8482 34.289C31.9665 25.2033 25.7825 18.9416 18.2009 16.4276L17.7917 17.6616C24.9484 20.0346 30.7909 25.9372 32.5752 34.5526L33.8482 34.289ZM6.25492 17.7549C3.57077 21.264 3.08092 24.7267 2.984 29.3766L4.28372 29.4037C4.37889 24.8375 4.85909 21.7195 7.28748 18.5448L6.25492 17.7549ZM10.5237 32.1547C7.93158 34.566 7.1376 38.4346 7.70873 41.4953L8.98667 41.2568C8.47769 38.5292 9.21418 35.1484 11.4091 33.1065L10.5237 32.1547ZM7.70873 41.4953C7.94856 42.7805 8.51668 43.7118 9.08386 44.6062L10.1817 43.91C9.62029 43.0246 9.17688 42.2761 8.98667 41.2568L7.70873 41.4953ZM2.984 29.3766C2.94487 31.2541 3.43512 34.2428 4.37421 36.3329L5.56002 35.8001C4.7097 33.9076 4.24808 31.1137 4.28372 29.4037L2.984 29.3766ZM4.37421 36.3329C5.09857 37.945 5.96831 39.3102 6.65504 40.2709C6.99901 40.7521 7.29862 41.134 7.51353 41.397C7.62103 41.5286 7.70746 41.6306 7.76779 41.7006C7.79796 41.7355 7.82162 41.7625 7.83814 41.7812C7.8464 41.7906 7.85288 41.7978 7.85749 41.803C7.8598 41.8056 7.86164 41.8076 7.86301 41.8091C7.86369 41.8099 7.86425 41.8105 7.8647 41.811C7.86492 41.8113 7.86511 41.8115 7.86527 41.8117C7.86536 41.8117 7.86545 41.8119 7.86549 41.8119C7.86559 41.812 7.86567 41.8121 8.3477 41.376C8.82973 40.94 8.8298 40.9401 8.82986 40.9401C8.82987 40.9401 8.82992 40.9402 8.82994 40.9402C8.82999 40.9403 8.83 40.9403 8.82998 40.9403C8.82994 40.9402 8.82979 40.94 8.82952 40.9397C8.82897 40.9391 8.82796 40.938 8.82648 40.9364C8.82353 40.9331 8.81873 40.9277 8.81217 40.9203C8.79905 40.9054 8.77887 40.8824 8.75224 40.8515C8.69899 40.7898 8.62002 40.6966 8.52025 40.5745C8.32065 40.3302 8.03833 39.9706 7.71263 39.5149C7.06001 38.6019 6.23945 37.3123 5.56002 35.8001L4.37421 36.3329ZM18.2009 16.4276C14.5942 15.2317 10.3002 15.7098 6.85502 17.2079L7.37341 18.4001C10.5878 17.0024 14.548 16.586 17.7917 17.6616L18.2009 16.4276ZM6.85502 17.2079C6.79076 17.2359 6.72513 17.2674 6.66434 17.304C6.61014 17.3366 6.51881 17.3972 6.43951 17.4963C6.39629 17.5503 6.35222 17.6211 6.32204 17.7095C6.29098 17.8005 6.28109 17.8912 6.28642 17.9757C6.29148 18.056 6.30959 18.1193 6.3223 18.1569C6.32872 18.176 6.33479 18.1914 6.33858 18.2007C6.34052 18.2055 6.34221 18.2095 6.34329 18.2121C6.34384 18.2134 6.34432 18.2145 6.34465 18.2153C6.34513 18.2164 6.34508 18.2163 6.34533 18.2169C6.35267 18.2342 6.30884 18.1444 6.30306 18.0247C6.29588 17.8764 6.34404 17.7507 6.40389 17.6634C6.45303 17.5916 6.50196 17.5571 6.5056 17.5544C6.51319 17.549 6.50574 17.5552 6.47071 17.5735L7.07168 18.7262C7.13879 18.6912 7.20598 18.6523 7.26758 18.6077C7.32524 18.566 7.40755 18.4985 7.4763 18.3982C7.55576 18.2822 7.60977 18.1322 7.60154 17.9619C7.59469 17.8204 7.5429 17.7111 7.54223 17.7095C7.53672 17.6965 7.54604 17.7175 7.55407 17.7413C7.56361 17.7696 7.57939 17.8234 7.58384 17.8938C7.58855 17.9685 7.57974 18.0492 7.55233 18.1295C7.5258 18.2072 7.48794 18.2668 7.45435 18.3087C7.3943 18.3837 7.33591 18.4171 7.33518 18.4175C7.32787 18.4219 7.33625 18.4162 7.37341 18.4001L6.85502 17.2079ZM7.11421 17.804C7.74946 17.6663 7.74948 17.6664 7.7495 17.6665C7.7495 17.6665 7.74952 17.6666 7.74953 17.6666C7.74954 17.6667 7.74956 17.6667 7.74956 17.6668C7.74958 17.6668 7.74957 17.6668 7.74953 17.6666C7.74947 17.6664 7.74933 17.6657 7.7491 17.6646C7.74864 17.6624 7.74785 17.6587 7.74678 17.6534C7.74462 17.643 7.7413 17.6266 7.73708 17.6048C7.72863 17.5612 7.71662 17.4963 7.70315 17.4151C7.67611 17.2519 7.64378 17.0259 7.62234 16.7746C7.57655 16.2378 7.59306 15.7117 7.71759 15.4009L6.51083 14.9174C6.26332 15.5352 6.27983 16.3316 6.32705 16.8851C6.35212 17.1789 6.38955 17.44 6.42064 17.6276C6.43624 17.7217 6.45039 17.7982 6.46083 17.8521C6.46605 17.8791 6.47036 17.9004 6.47347 17.9155C6.47503 17.9231 6.47629 17.9291 6.47722 17.9335C6.47768 17.9357 6.47806 17.9375 6.47835 17.9389C6.4785 17.9395 6.47863 17.9401 6.47873 17.9406C6.47878 17.9408 6.47883 17.941 6.47887 17.9412C6.47889 17.9413 6.47891 17.9414 6.47892 17.9415C6.47895 17.9416 6.47897 17.9417 7.11421 17.804ZM7.71759 15.4009C9.04302 12.0924 12.8636 9.10862 17.1671 7.11865C19.2998 6.13248 21.5105 5.40997 23.5187 5.02148C25.5399 4.6305 27.3004 4.58868 28.5594 4.91097L28.8818 3.65158C27.3574 3.26134 25.3802 3.33728 23.2718 3.74515C21.1504 4.15552 18.8397 4.91297 16.6215 5.93869C12.2232 7.97249 8.02406 11.1402 6.51083 14.9174L7.71759 15.4009ZM36.9099 32.2657C36.1129 33.2709 35.2103 33.6385 34.5165 33.7657C34.1647 33.8302 33.8626 33.8332 33.6519 33.8208C33.547 33.8145 33.466 33.8045 33.4144 33.7968C33.3886 33.7929 33.3704 33.7897 33.3603 33.7877C33.3552 33.7868 33.3523 33.7862 33.3514 33.786C33.351 33.7859 33.3511 33.7859 33.3518 33.7861C33.3521 33.7861 33.3526 33.7862 33.3532 33.7864C33.3535 33.7864 33.3538 33.7865 33.3542 33.7866C33.3544 33.7867 33.3547 33.7867 33.3548 33.7867C33.3551 33.7868 33.3554 33.7869 33.2117 34.4208C33.068 35.0547 33.0683 35.0548 33.0687 35.0549C33.0688 35.0549 33.0692 35.055 33.0694 35.055C33.07 35.0552 33.0705 35.0553 33.0711 35.0554C33.0723 35.0557 33.0736 35.056 33.0751 35.0563C33.0781 35.0569 33.0817 35.0577 33.0858 35.0586C33.0942 35.0603 33.1048 35.0625 33.1177 35.0649C33.1435 35.0698 33.1784 35.0759 33.2215 35.0824C33.3077 35.0953 33.4276 35.1097 33.575 35.1185C33.8692 35.1359 34.278 35.1311 34.7509 35.0444C35.7064 34.8692 36.9075 34.3612 37.9286 33.0734L36.9099 32.2657ZM28.587 4.91739C29.6846 5.14802 30.616 5.58808 31.2762 5.97453C31.605 6.16701 31.8629 6.3441 32.0365 6.47128C32.1232 6.53479 32.1886 6.58565 32.2309 6.61948C32.2521 6.63639 32.2675 6.64902 32.2769 6.65683C32.2816 6.66073 32.2848 6.66343 32.2865 6.66485C32.2873 6.66555 32.2878 6.66594 32.2879 6.66601C32.2879 6.66604 32.2879 6.66599 32.2877 6.66585C32.2876 6.66578 32.2875 6.6657 32.2874 6.66559C32.2873 6.66553 32.2872 6.66544 32.2872 6.66541C32.2871 6.66531 32.2869 6.6652 32.7108 6.17238C33.1346 5.67956 33.1345 5.67944 33.1343 5.67932C33.1343 5.67927 33.1341 5.67914 33.134 5.67904C33.1338 5.67885 33.1335 5.67863 33.1332 5.6784C33.1327 5.67792 33.132 5.67737 33.1313 5.67673C33.1298 5.67545 33.1279 5.67383 33.1256 5.67189C33.121 5.668 33.1148 5.66282 33.1071 5.65639C33.0916 5.64355 33.0699 5.62577 33.0421 5.60361C32.9866 5.55931 32.9069 5.49744 32.8048 5.42258C32.6006 5.27298 32.3054 5.07067 31.9329 4.85263C31.1905 4.41803 30.1269 3.91255 28.8543 3.64517L28.587 4.91739ZM32.2139 6.59143C34.2105 8.95881 36.1411 13.1615 37.1092 16.8118L38.3657 16.4786C37.3672 12.7132 35.3678 8.31462 33.2076 5.75332L32.2139 6.59143ZM32.7108 6.17238C32.7434 6.82156 32.7434 6.82156 32.7434 6.82156C32.7434 6.82156 32.7434 6.82156 32.7435 6.82156C32.7435 6.82155 32.7437 6.82154 32.744 6.82153C32.7446 6.8215 32.7455 6.82146 32.7467 6.8214C32.7492 6.82127 32.7531 6.82108 32.7584 6.82084C32.7689 6.82034 32.7849 6.8196 32.8061 6.81866C32.8486 6.81679 32.912 6.81414 32.9944 6.81107C33.1591 6.80493 33.3999 6.79713 33.7012 6.79063C34.3043 6.77762 35.1488 6.7698 36.1132 6.79061C38.0534 6.83246 40.4351 6.98955 42.3114 7.43632L42.6125 6.17168C40.5978 5.69196 38.104 5.53325 36.1413 5.49091C35.1542 5.46962 34.2905 5.47761 33.6732 5.49093C33.3644 5.4976 33.1169 5.5056 32.946 5.51197C32.8605 5.51515 32.7942 5.51793 32.7489 5.51992C32.7263 5.52092 32.7089 5.52172 32.697 5.52229C32.6911 5.52257 32.6865 5.52279 32.6833 5.52294C32.6818 5.52302 32.6805 5.52308 32.6797 5.52312C32.6792 5.52314 32.6789 5.52316 32.6786 5.52317C32.6785 5.52318 32.6784 5.52319 32.6783 5.52319C32.6782 5.5232 32.6781 5.5232 32.7108 6.17238ZM42.3114 7.43632C45.709 8.24534 48.4199 9.41663 50.3331 10.6509C52.2825 11.9086 53.2878 13.1547 53.4992 14.0607L54.7652 13.7653C54.4347 12.349 53.0604 10.8634 51.0379 9.55854C48.9791 8.23032 46.1259 7.00825 42.6125 6.17168L42.3114 7.43632ZM53.8136 13.3465C50.6887 15.104 48.8782 17.404 47.2291 20.4563L48.3728 21.0743C49.9502 18.1548 51.6098 16.0774 54.4509 14.4795L53.8136 13.3465ZM37.1092 16.8118C37.7912 19.3837 38.1779 22.3474 38.2274 25.0378C38.2773 27.7517 37.9818 30.094 37.3676 31.4749L38.5555 32.0032C39.2889 30.3541 39.578 27.7761 39.5272 25.0139C39.476 22.2282 39.0768 19.16 38.3657 16.4786L37.1092 16.8118ZM37.3676 31.4749C37.2193 31.8085 37.0642 32.0711 36.9099 32.2657L37.9286 33.0734C38.1686 32.7707 38.376 32.4067 38.5555 32.0032L37.3676 31.4749ZM42.9532 31.1148C42.1875 31.5575 41.0406 31.5978 39.9749 31.4776C39.4609 31.4195 39.0011 31.3285 38.6696 31.2518C38.5044 31.2136 38.3723 31.1792 38.2827 31.1548C38.238 31.1425 38.204 31.1328 38.1819 31.1264C38.1708 31.1232 38.1627 31.1208 38.1578 31.1193C38.1553 31.1186 38.1536 31.118 38.1527 31.1178C38.1523 31.1176 38.1521 31.1176 38.152 31.1176C38.152 31.1175 38.152 31.1176 38.1521 31.1176C38.1522 31.1176 38.1523 31.1176 38.1523 31.1176C38.1524 31.1177 38.1525 31.1177 37.9616 31.739C37.7706 32.3603 37.7707 32.3604 37.7709 32.3604C37.771 32.3605 37.7712 32.3605 37.7713 32.3606C37.7716 32.3606 37.7719 32.3607 37.7723 32.3609C37.7731 32.3611 37.7741 32.3614 37.7753 32.3618C37.7777 32.3625 37.7809 32.3635 37.7849 32.3647C37.793 32.3671 37.8043 32.3704 37.8186 32.3746C37.8472 32.3829 37.8882 32.3946 37.9402 32.4088C38.0442 32.4372 38.1929 32.4759 38.3765 32.5184C38.7428 32.6031 39.2532 32.7044 39.8291 32.7694C40.9432 32.8951 42.4548 32.9046 43.6039 32.2402L42.9532 31.1148ZM54.1322 13.913C54.0142 14.5522 54.0139 14.5521 54.0137 14.5521C54.0137 14.5521 54.0135 14.5521 54.0134 14.552C54.0133 14.552 54.0132 14.552 54.0132 14.552C54.0132 14.552 54.0136 14.5521 54.0142 14.5522C54.0155 14.5524 54.0181 14.5529 54.0219 14.5537C54.0296 14.5552 54.0423 14.5578 54.0597 14.5614C54.0944 14.5688 54.148 14.5806 54.2182 14.5975C54.3586 14.6312 54.565 14.6853 54.82 14.7647C55.331 14.9237 56.031 15.1826 56.7832 15.5802C58.2931 16.3782 59.9632 17.7067 60.7909 19.8621L62.0045 19.396C61.0241 16.8433 59.0614 15.3138 57.3906 14.4308C56.5525 13.9878 55.7752 13.7005 55.2064 13.5234C54.9215 13.4347 54.6874 13.3733 54.5223 13.3335C54.4397 13.3137 54.3743 13.2992 54.3282 13.2895C54.3052 13.2846 54.287 13.2809 54.2739 13.2783C54.2674 13.2771 54.2621 13.276 54.2581 13.2753C54.2562 13.2749 54.2545 13.2746 54.2532 13.2743C54.2525 13.2742 54.252 13.2741 54.2515 13.274C54.2512 13.274 54.2509 13.2739 54.2508 13.2739C54.2505 13.2738 54.2503 13.2738 54.1322 13.913ZM60.7909 19.8621C60.9885 20.3768 60.9425 20.6588 60.8511 20.8506C60.7407 21.0823 60.5033 21.3151 60.0704 21.6168C59.271 22.1739 57.8632 22.8902 56.8679 24.2401L57.9143 25.0115C58.7407 23.8907 59.8223 23.3742 60.8137 22.6834C61.2762 22.3611 61.7596 21.9662 62.0247 21.4098C62.3088 20.8134 62.2929 20.147 62.0045 19.396L60.7909 19.8621ZM56.8679 24.2401C56.1114 25.2662 55.5786 26.1493 55.184 27.1162C54.7903 28.081 54.5456 29.1014 54.3368 30.3881L55.6201 30.5963C55.8209 29.3588 56.0458 28.4451 56.3877 27.6074C56.7287 26.7717 57.1975 25.9837 57.9143 25.0115L56.8679 24.2401ZM54.8416 29.8568C53.7281 30.0966 52.8084 30.4791 52.0433 30.7238C51.2595 30.9744 50.5158 31.1312 49.5425 31.0309L49.4093 32.3241C50.6226 32.449 51.5558 32.2446 52.4393 31.962C53.3416 31.6734 54.0799 31.3507 55.1153 31.1276L54.8416 29.8568ZM47.2291 20.4563C44.5133 25.4826 45.0111 28.4515 44.6092 29.9424L45.8645 30.2807C46.4287 28.1875 45.717 25.9897 48.3728 21.0743L47.2291 20.4563ZM44.6092 29.9424C44.5601 30.1247 44.5014 30.2281 44.4478 30.2955C44.3938 30.3635 44.3212 30.425 44.202 30.4947C44.0723 30.5705 43.9212 30.6379 43.6982 30.7394C43.4858 30.836 43.2316 30.9538 42.9532 31.1148L43.6039 32.2402C43.8246 32.1126 44.0306 32.0164 44.2366 31.9226C44.4319 31.8338 44.6571 31.7345 44.8582 31.6169C45.07 31.4931 45.2829 31.3343 45.4656 31.1043C45.6487 30.8739 45.7779 30.6019 45.8645 30.2807L44.6092 29.9424ZM49.5425 31.0309C48.7714 30.9515 47.7896 30.596 46.9593 30.2315C46.5532 30.0533 46.1995 29.8802 45.9475 29.7517C45.8218 29.6876 45.7218 29.6348 45.654 29.5985C45.6201 29.5803 45.5942 29.5663 45.5772 29.5569C45.5687 29.5523 45.5624 29.5488 45.5584 29.5466C45.5564 29.5455 45.555 29.5447 45.5542 29.5443C45.5537 29.544 45.5535 29.5439 45.5534 29.5438C45.5533 29.5438 45.5533 29.5438 45.5533 29.5438C45.5533 29.5438 45.5533 29.5438 45.5533 29.5438C45.5534 29.5438 45.5535 29.5439 45.2368 30.1115C44.9202 30.6792 44.9203 30.6793 44.9204 30.6793C44.9204 30.6793 44.9205 30.6794 44.9206 30.6794C44.9208 30.6795 44.921 30.6796 44.9212 30.6798C44.9217 30.6801 44.9224 30.6804 44.9231 30.6808C44.9247 30.6817 44.9269 30.6829 44.9296 30.6844C44.9352 30.6875 44.943 30.6918 44.9531 30.6973C44.9733 30.7084 45.0026 30.7243 45.04 30.7443C45.1148 30.7844 45.2226 30.8413 45.3571 30.9099C45.6257 31.0468 46.0026 31.2313 46.4368 31.4219C47.2871 31.7952 48.4249 32.2227 49.4093 32.3241L49.5425 31.0309ZM54.6802 31.0697C55.5332 31.5103 56.1105 31.9446 56.8288 32.3932C57.5333 32.8331 58.2924 33.2277 59.36 33.462L59.6386 32.1922C58.7653 32.0005 58.1468 31.6836 57.5174 31.2905C56.9018 30.9061 56.1892 30.3859 55.2767 29.9147L54.6802 31.0697ZM59.36 33.462C60.4963 33.7114 61.7837 33.8238 62.9882 33.6289C64.1963 33.4334 65.3676 32.9192 66.1779 31.8748L65.1508 31.0779C64.6013 31.7861 63.7734 32.1849 62.7806 32.3456C61.7841 32.5068 60.6689 32.4183 59.6386 32.1922L59.36 33.462ZM66.1779 31.8748C66.8005 31.0724 66.8824 30.012 66.7481 29.032C66.6117 28.0358 66.2373 27.0025 65.7955 26.1266L64.6348 26.712C65.0316 27.4987 65.3484 28.3925 65.4602 29.2085C65.5742 30.0406 65.4614 30.6775 65.1508 31.0779L66.1779 31.8748ZM65.7955 26.1266C65.1679 24.8822 64.1143 23.4268 63.2401 22.3047C62.799 21.7385 62.396 21.2476 62.1031 20.8982C61.9566 20.7234 61.8374 20.5837 61.7546 20.4873C61.7132 20.4392 61.6808 20.4018 61.6587 20.3763C61.6476 20.3636 61.6391 20.3538 61.6332 20.3471C61.6303 20.3438 61.628 20.3412 61.6265 20.3394C61.6257 20.3385 61.6251 20.3378 61.6246 20.3373C61.6244 20.3371 61.6243 20.3369 61.6241 20.3367C61.6241 20.3366 61.624 20.3366 61.624 20.3365C61.6239 20.3365 61.6239 20.3364 61.1354 20.7653C60.647 21.1942 60.647 21.1942 60.647 21.1942C60.647 21.1942 60.647 21.1942 60.647 21.1942C60.6471 21.1943 60.6472 21.1944 60.6473 21.1945C60.6476 21.1948 60.648 21.1953 60.6486 21.196C60.6498 21.1974 60.6517 21.1996 60.6543 21.2025C60.6594 21.2084 60.6673 21.2174 60.6776 21.2292C60.6983 21.253 60.7291 21.2886 60.7689 21.3349C60.8485 21.4275 60.9641 21.563 61.1067 21.7332C61.3922 22.0738 61.7851 22.5524 62.2146 23.1037C63.0817 24.2165 64.0679 25.5881 64.6348 26.712L65.7955 26.1266ZM16.2989 12.2851C16.7556 12.7477 16.7555 12.7478 16.7554 12.7479C16.7554 12.7479 16.7553 12.748 16.7552 12.748C16.7552 12.7481 16.7551 12.7482 16.7551 12.7482C16.755 12.7482 16.7551 12.7482 16.7553 12.748C16.7557 12.7476 16.7565 12.7468 16.7578 12.7455C16.7604 12.743 16.7649 12.7387 16.7712 12.7326C16.7838 12.7205 16.8039 12.7015 16.8312 12.6762C16.8858 12.6255 16.9694 12.5495 17.0811 12.4526C17.3045 12.2588 17.6399 11.9818 18.0795 11.6568C18.9594 11.0064 20.2528 10.1669 21.898 9.41805L21.3594 8.23485C19.6162 9.02831 18.2447 9.9181 17.3068 10.6115C16.8375 10.9584 16.4758 11.2568 16.2293 11.4705C16.1061 11.5774 16.0116 11.6632 15.9468 11.7233C15.9144 11.7534 15.8894 11.7771 15.8719 11.7938C15.8632 11.8022 15.8564 11.8088 15.8514 11.8136C15.849 11.816 15.847 11.818 15.8454 11.8194C15.8447 11.8202 15.844 11.8208 15.8435 11.8213C15.8433 11.8216 15.843 11.8218 15.8428 11.822C15.8427 11.8221 15.8426 11.8222 15.8425 11.8223C15.8424 11.8224 15.8423 11.8225 16.2989 12.2851ZM21.898 9.41805C23.5277 8.67625 25.0056 8.32787 26.0723 8.16506C26.6053 8.08371 27.0343 8.0489 27.3265 8.03432C27.4725 8.02704 27.5842 8.02481 27.6573 8.02435C27.6939 8.02412 27.7209 8.02432 27.7377 8.02456C27.7461 8.02467 27.7519 8.02479 27.7552 8.02487C27.7568 8.02491 27.7578 8.02494 27.7581 8.02494C27.7583 8.02495 27.7583 8.02495 27.7581 8.02494C27.758 8.02494 27.7579 8.02494 27.7577 8.02493C27.7576 8.02493 27.7575 8.02492 27.7574 8.02492C27.7572 8.02492 27.7571 8.02491 27.7785 7.37526C27.7999 6.72562 27.7997 6.72561 27.7995 6.7256C27.7994 6.7256 27.7992 6.72559 27.799 6.72559C27.7987 6.72558 27.7983 6.72557 27.7979 6.72555C27.7971 6.72553 27.796 6.7255 27.7949 6.72546C27.7925 6.7254 27.7895 6.72532 27.7858 6.72523C27.7783 6.72506 27.7683 6.72485 27.7556 6.72468C27.7303 6.72433 27.6946 6.72409 27.6491 6.72438C27.558 6.72495 27.4275 6.72766 27.2617 6.73594C26.9302 6.75247 26.4571 6.79128 25.8762 6.87994C24.7151 7.05715 23.1181 7.43436 21.3594 8.23485L21.898 9.41805Z" fill="black"/>
<circle cx="45.9596" cy="36.7748" r="0.905635" transform="rotate(6.54282 45.9596 36.7748)" fill="black"/>
<circle cx="50.195" cy="36.349" r="0.905635" transform="rotate(6.54282 50.195 36.349)" fill="black"/>
<path d="M60.1583 38.2361C60.1132 38.629 59.984 38.9109 59.8101 39.1197C59.6341 39.3311 59.3897 39.4943 59.0761 39.6116C58.4341 39.8517 57.5637 39.8765 56.6338 39.7699C56.5016 39.7547 56.3753 39.7409 56.2541 39.7276C55.9228 39.6912 55.6302 39.6591 55.363 39.6164C54.9984 39.5583 54.7377 39.488 54.5523 39.3922C54.383 39.3048 54.2844 39.2008 54.2235 39.0538C54.1557 38.89 54.1159 38.6264 54.1657 38.1925C54.3537 36.553 55.8353 35.3763 57.4748 35.5644C58.3608 35.666 59.0821 35.9646 59.5493 36.4077C60 36.8352 60.2508 37.4293 60.1583 38.2361Z" stroke="black"/>
</svg>
