<svg width="16" height="15" viewBox="0 0 16 15" fill="none" xmlns="http://www.w3.org/2000/svg">
<path d="M7.90869 0.0012207C3.76634 0.0012207 0.408691 3.35933 0.408691 7.50122C0.408691 11.6431 3.76634 15.0012 7.90869 15.0012C12.051 15.0012 15.4087 11.6431 15.4087 7.50117C15.4087 3.35928 12.051 0.0012207 7.90869 0.0012207ZM12.83 3.6312C13.6363 4.65497 14.1299 5.93367 14.1688 7.32538C12.486 7.03055 11.0347 7.02164 9.78081 7.2204C9.62191 6.85569 9.45833 6.50134 9.29052 6.15821C10.6354 5.60511 11.8415 4.79837 12.83 3.6312ZM11.9671 2.73497C11.084 3.80698 9.97534 4.54478 8.72099 5.04686C7.91801 3.55906 7.09212 2.31919 6.43212 1.41405C6.90603 1.29825 7.39961 1.23641 7.90823 1.23641C9.45647 1.23589 10.873 1.80166 11.9671 2.73497ZM5.21572 1.84574C5.85368 2.69743 6.70259 3.93118 7.53276 5.44384C5.7731 5.92713 3.8048 6.05745 1.81261 6.06306C2.25228 4.19934 3.52444 2.65433 5.21572 1.84574ZM1.64429 7.50065L1.64944 7.29814H1.68317C3.91535 7.29814 6.13157 7.15191 8.11862 6.56642C8.26675 6.86784 8.41252 7.1772 8.55504 7.49551C5.94086 8.26193 4.311 9.9822 3.19398 11.6191C2.23025 10.5181 1.64429 9.07665 1.64429 7.50065ZM4.1071 12.4751C5.1646 10.8823 6.63834 9.30635 9.03647 8.64445C9.59663 10.0798 10.0537 11.6463 10.2956 13.2916C9.55961 13.5972 8.75384 13.766 7.90916 13.766C6.4799 13.766 5.16182 13.2846 4.1071 12.4751ZM11.4477 12.6673C11.1913 11.164 10.7713 9.73011 10.2655 8.40075C11.3615 8.26152 12.6214 8.2953 14.0821 8.56387C13.7901 10.2616 12.8141 11.7284 11.4477 12.6673Z" fill="#EA4C89"/>
</svg>
