<svg width="427" height="409" viewBox="0 0 427 409" fill="none" xmlns="http://www.w3.org/2000/svg">
<mask id="mask0" mask-type="alpha" maskUnits="userSpaceOnUse" x="0" y="-21" width="428" height="430">
<g clip-path="url(#clip0)">
<path d="M99.1849 233.264C99.4371 234.003 99.7932 234.619 100.253 235.111C100.722 235.608 101.254 235.981 101.85 236.23C102.446 236.479 103.088 236.606 103.776 236.612C104.464 236.618 105.158 236.502 105.857 236.263L114.485 233.317L114.566 233.553L105.938 236.498C105.212 236.746 104.49 236.865 103.771 236.855C103.053 236.845 102.381 236.705 101.757 236.437C101.132 236.168 100.575 235.775 100.084 235.256C99.6019 234.742 99.2303 234.103 98.9692 233.338C98.7081 232.573 98.61 231.837 98.6747 231.129C98.7483 230.425 98.95 229.776 99.2798 229.182C99.6097 228.587 100.056 228.066 100.618 227.619C101.181 227.171 101.825 226.824 102.55 226.576L111.178 223.631L111.258 223.866L102.65 226.805C101.951 227.044 101.327 227.377 100.78 227.805C100.239 228.23 99.8062 228.725 99.4804 229.288C99.1613 229.85 98.967 230.467 98.8976 231.14C98.837 231.818 98.9327 232.526 99.1849 233.264Z" fill="black"/>
<path d="M111.502 243.834L115.587 236.051L115.687 236.255C115.712 236.305 115.713 236.347 115.691 236.381C115.672 236.421 115.655 236.456 115.639 236.487L111.7 243.933L111.881 243.948L119.985 245.386C120.025 245.39 120.064 245.398 120.101 245.41C120.147 245.426 120.179 245.453 120.197 245.49L120.297 245.695L111.68 244.127L107.374 252.283L107.274 252.078C107.249 252.029 107.247 251.984 107.266 251.944C107.291 251.901 107.31 251.869 107.322 251.847L111.482 244.028C111.448 244.037 111.392 244.033 111.315 244.017L102.758 242.501C102.714 242.491 102.671 242.482 102.628 242.472C102.591 242.459 102.564 242.434 102.545 242.397L102.445 242.192L111.502 243.834Z" fill="black"/>
<path d="M107.707 254.267C107.649 254.278 107.601 254.266 107.564 254.232C107.531 254.204 107.504 254.172 107.482 254.137L107.439 254.066L124.218 251.644C124.31 251.636 124.381 251.674 124.432 251.757L124.485 251.845L107.707 254.267Z" fill="black"/>
<path d="M117.243 267.002C117.714 267.624 118.245 268.097 118.836 268.421C119.437 268.746 120.059 268.933 120.703 268.983C121.347 269.033 121.996 268.953 122.652 268.743C123.307 268.533 123.929 268.205 124.519 267.759L131.789 262.259L131.939 262.457L124.669 267.957C124.057 268.42 123.409 268.759 122.723 268.975C122.037 269.19 121.356 269.268 120.679 269.209C120.002 269.149 119.349 268.95 118.72 268.612C118.102 268.275 117.548 267.784 117.061 267.139C116.573 266.495 116.25 265.826 116.089 265.133C115.939 264.442 115.927 263.762 116.054 263.095C116.181 262.427 116.442 261.792 116.835 261.191C117.229 260.59 117.732 260.058 118.344 259.596L125.614 254.096L125.764 254.294L118.51 259.782C117.921 260.228 117.433 260.739 117.047 261.317C116.667 261.89 116.411 262.496 116.278 263.133C116.151 263.766 116.159 264.413 116.304 265.074C116.459 265.737 116.772 266.379 117.243 267.002Z" fill="black"/>
<path d="M124.935 276.465L124.766 276.282L135.418 266.439L135.587 266.621L124.935 276.465Z" fill="black"/>
<path d="M147.056 286.593C146.333 287.482 145.559 288.17 144.735 288.657C143.916 289.149 143.08 289.448 142.227 289.555C141.38 289.666 140.535 289.589 139.692 289.321C138.85 289.054 138.043 288.607 137.272 287.979L133.255 284.709L142.411 273.461L146.428 276.731C147.2 277.359 147.802 278.058 148.234 278.829C148.667 279.599 148.914 280.411 148.977 281.264C149.045 282.121 148.922 283 148.607 283.901C148.297 284.807 147.78 285.704 147.056 286.593ZM146.848 286.423C147.558 285.55 148.065 284.676 148.368 283.8C148.681 282.924 148.807 282.074 148.747 281.25C148.688 280.427 148.448 279.644 148.028 278.901C147.614 278.163 147.037 277.493 146.298 276.891L142.473 273.778L133.578 284.705L137.403 287.818C138.142 288.42 138.915 288.849 139.722 289.105C140.534 289.365 141.349 289.441 142.168 289.333C142.986 289.224 143.791 288.931 144.581 288.452C145.381 287.972 146.137 287.296 146.848 286.423Z" fill="black"/>
<path d="M161.985 287.591L161.866 287.785L154.865 283.465L151.296 289.249L157.239 292.916L157.119 293.11L151.177 289.443L147.488 295.42L154.506 299.751L154.369 299.934L147.157 295.484L154.773 283.141L161.985 287.591Z" fill="black"/>
<path d="M170.928 293.363C170.879 293.385 170.836 293.388 170.798 293.37C170.742 293.343 170.685 293.239 170.626 293.058C170.576 292.874 170.474 292.653 170.321 292.397C170.174 292.143 169.956 291.87 169.666 291.579C169.38 291.282 168.975 291.008 168.451 290.759C167.915 290.503 167.398 290.36 166.9 290.329C166.411 290.295 165.961 290.348 165.55 290.489C165.138 290.629 164.772 290.845 164.45 291.135C164.134 291.428 163.882 291.771 163.695 292.164C163.454 292.669 163.35 293.136 163.383 293.565C163.422 293.997 163.545 294.404 163.753 294.786C163.961 295.168 164.234 295.535 164.571 295.887C164.911 296.233 165.259 296.579 165.615 296.924C165.973 297.263 166.321 297.609 166.658 297.961C166.995 298.313 167.265 298.687 167.467 299.081C167.672 299.47 167.786 299.888 167.81 300.335C167.843 300.78 167.734 301.267 167.481 301.797C167.225 302.333 166.896 302.791 166.492 303.173C166.091 303.548 165.636 303.828 165.127 304.014C164.62 304.193 164.07 304.264 163.476 304.226C162.883 304.187 162.268 304.017 161.632 303.714C161.189 303.502 160.813 303.273 160.502 303.026C160.189 302.784 159.92 302.522 159.695 302.239C159.48 301.953 159.299 301.649 159.154 301.327C159.012 300.999 158.893 300.648 158.796 300.273L158.851 300.253C158.879 300.243 158.901 300.238 158.916 300.238C158.934 300.232 158.959 300.236 158.99 300.251C159.028 300.268 159.061 300.334 159.091 300.448C159.131 300.558 159.183 300.706 159.248 300.89C159.316 301.068 159.405 301.267 159.514 301.487C159.623 301.708 159.773 301.94 159.963 302.183C160.156 302.421 160.392 302.656 160.671 302.888C160.96 303.118 161.31 303.33 161.721 303.526C162.326 303.815 162.908 303.974 163.468 304.003C164.034 304.036 164.556 303.968 165.035 303.798C165.523 303.625 165.955 303.361 166.331 303.004C166.714 302.651 167.023 302.228 167.257 301.736C167.454 301.324 167.558 300.938 167.569 300.576C167.587 300.217 167.538 299.88 167.421 299.564C167.306 299.242 167.138 298.936 166.917 298.647C166.704 298.354 166.461 298.07 166.187 297.794C165.916 297.512 165.633 297.239 165.338 296.976C165.045 296.706 164.764 296.43 164.493 296.148C164.222 295.866 163.977 295.577 163.758 295.282C163.549 294.983 163.388 294.669 163.277 294.341C163.169 294.006 163.124 293.651 163.141 293.277C163.168 292.9 163.284 292.496 163.489 292.066C163.688 291.648 163.957 291.286 164.294 290.98C164.634 290.668 165.023 290.437 165.462 290.287C165.901 290.136 166.381 290.078 166.9 290.111C167.426 290.148 167.973 290.301 168.54 290.572C169.176 290.875 169.688 291.245 170.076 291.683C170.471 292.123 170.776 292.671 170.992 293.325L170.928 293.363Z" fill="black"/>
<path d="M170.821 307.388L170.588 307.3L175.701 293.727L175.934 293.815L170.821 307.388Z" fill="black"/>
<path d="M183.062 311.359C183.636 311.513 184.161 311.621 184.637 311.685C185.122 311.743 185.581 311.766 186.013 311.754C186.448 311.734 186.865 311.685 187.265 311.607C187.673 311.523 188.088 311.416 188.509 311.286L189.677 306.934L186.535 306.091C186.455 306.069 186.424 306.025 186.442 305.958L186.469 305.858L189.951 306.793L188.705 311.435C188.296 311.576 187.878 311.693 187.453 311.786C187.036 311.874 186.596 311.928 186.133 311.947C185.677 311.967 185.189 311.947 184.669 311.886C184.156 311.827 183.602 311.718 183.009 311.559C182.001 311.288 181.131 310.88 180.398 310.333C179.667 309.779 179.092 309.113 178.671 308.335C178.257 307.559 178.008 306.688 177.924 305.722C177.842 304.749 177.95 303.708 178.247 302.601C178.542 301.5 178.968 300.553 179.525 299.758C180.083 298.957 180.745 298.326 181.512 297.867C182.279 297.408 183.131 297.125 184.067 297.019C185.011 296.914 186.013 297.005 187.073 297.289C187.594 297.429 188.062 297.59 188.477 297.773C188.895 297.95 189.269 298.154 189.6 298.386C189.938 298.619 190.244 298.88 190.517 299.168C190.79 299.456 191.046 299.782 191.284 300.146L191.241 300.188C191.205 300.214 191.17 300.223 191.137 300.214C191.084 300.199 190.991 300.092 190.859 299.892C190.728 299.686 190.511 299.442 190.208 299.16C189.913 298.873 189.509 298.579 188.997 298.277C188.486 297.968 187.827 297.706 187.02 297.489C186.006 297.217 185.046 297.131 184.139 297.231C183.235 297.325 182.412 297.594 181.67 298.038C180.929 298.483 180.286 299.093 179.741 299.87C179.197 300.646 178.779 301.578 178.487 302.665C178.195 303.753 178.087 304.768 178.163 305.711C178.246 306.655 178.49 307.504 178.896 308.256C179.302 309.009 179.856 309.651 180.557 310.182C181.267 310.709 182.102 311.101 183.062 311.359Z" fill="black"/>
<path d="M196.149 299.518C196.21 299.525 196.255 299.558 196.283 299.617L204.855 314.692C204.852 314.657 204.852 314.623 204.856 314.588C204.861 314.547 204.866 314.509 204.87 314.475L206.48 300.728L206.685 300.752L204.998 315.158L204.936 315.15C204.895 315.146 204.86 315.117 204.832 315.065L196.216 299.922C196.218 299.964 196.216 300.009 196.211 300.057C196.206 300.098 196.202 300.136 196.197 300.171L194.585 313.938L194.379 313.914L196.066 299.508L196.149 299.518Z" fill="black"/>
<path d="M218.797 304.476C218.777 304.137 218.867 303.852 219.069 303.621C219.275 303.39 219.557 303.264 219.915 303.242C220.27 303.221 220.565 303.312 220.8 303.513C221.035 303.71 221.163 303.99 221.184 304.353L221.197 304.569C221.217 304.909 221.126 305.192 220.924 305.419C220.723 305.646 220.438 305.771 220.072 305.792C219.709 305.814 219.412 305.724 219.181 305.522C218.954 305.316 218.83 305.042 218.81 304.699L218.797 304.476Z" fill="black"/>
<path d="M240.64 298.952C240.615 299 240.582 299.028 240.542 299.036C240.481 299.049 240.372 299.001 240.215 298.893C240.064 298.777 239.849 298.663 239.572 298.552C239.301 298.44 238.962 298.356 238.555 298.3C238.147 298.238 237.659 298.266 237.091 298.385C236.51 298.508 236.012 298.708 235.598 298.985C235.188 299.255 234.863 299.57 234.621 299.932C234.38 300.293 234.219 300.687 234.139 301.113C234.066 301.538 234.075 301.963 234.164 302.389C234.279 302.936 234.48 303.37 234.766 303.691C235.059 304.011 235.404 304.259 235.802 304.437C236.199 304.614 236.638 304.741 237.12 304.816C237.6 304.884 238.086 304.948 238.579 305.007C239.07 305.059 239.556 305.123 240.038 305.198C240.519 305.273 240.96 305.406 241.36 305.597C241.759 305.781 242.103 306.044 242.394 306.385C242.69 306.718 242.898 307.172 243.019 307.747C243.141 308.328 243.158 308.893 243.068 309.441C242.977 309.982 242.786 310.481 242.494 310.938C242.2 311.388 241.806 311.778 241.311 312.108C240.815 312.438 240.223 312.675 239.534 312.82C239.054 312.921 238.615 312.967 238.218 312.959C237.823 312.958 237.45 312.912 237.099 312.824C236.754 312.727 236.427 312.595 236.116 312.427C235.804 312.253 235.496 312.046 235.192 311.806L235.224 311.757C235.24 311.733 235.254 311.716 235.266 311.706C235.277 311.69 235.299 311.678 235.333 311.671C235.373 311.662 235.44 311.694 235.533 311.766C235.631 311.83 235.762 311.916 235.925 312.023C236.087 312.123 236.279 312.227 236.499 312.336C236.72 312.445 236.979 312.538 237.278 312.617C237.576 312.688 237.906 312.732 238.269 312.747C238.638 312.754 239.045 312.711 239.491 312.617C240.147 312.48 240.706 312.253 241.169 311.936C241.638 311.619 242.012 311.247 242.289 310.822C242.572 310.389 242.755 309.916 242.838 309.405C242.928 308.892 242.917 308.368 242.804 307.834C242.711 307.388 242.559 307.018 242.349 306.723C242.145 306.427 241.901 306.189 241.616 306.009C241.33 305.822 241.011 305.681 240.659 305.586C240.313 305.482 239.947 305.404 239.562 305.351C239.175 305.291 238.784 305.246 238.39 305.216C237.994 305.179 237.603 305.131 237.216 305.071C236.829 305.011 236.459 304.93 236.106 304.828C235.758 304.718 235.441 304.566 235.153 304.372C234.864 304.172 234.613 303.918 234.4 303.61C234.192 303.293 234.039 302.902 233.941 302.436C233.846 301.983 233.839 301.532 233.922 301.085C234.003 300.63 234.172 300.21 234.429 299.824C234.687 299.438 235.033 299.101 235.466 298.812C235.906 298.522 236.434 298.312 237.049 298.183C237.738 298.038 238.37 298.021 238.944 298.134C239.525 298.244 240.099 298.494 240.668 298.883L240.64 298.952Z" fill="black"/>
<path d="M252.178 293.891L252.25 294.107L244.445 296.703L246.589 303.152L253.215 300.949L253.287 301.165L246.661 303.368L248.878 310.034L256.703 307.431L256.755 307.654L248.714 310.328L244.137 296.565L252.178 293.891Z" fill="black"/>
<path d="M271.015 301.335L270.846 301.415C270.79 301.442 270.738 301.428 270.69 301.375L266.79 297.856L259.879 301.125L260.126 306.372C260.137 306.443 260.108 306.495 260.039 306.528L259.889 306.598L259.156 290.9L259.343 290.812L271.015 301.335ZM259.865 300.902L266.626 297.704L259.727 291.478C259.664 291.424 259.606 291.375 259.554 291.331C259.506 291.277 259.453 291.222 259.396 291.165C259.403 291.246 259.409 291.323 259.414 291.397C259.422 291.462 259.426 291.536 259.428 291.62L259.865 300.902Z" fill="black"/>
<path d="M274.024 282.646L274.143 282.841L269.483 285.667L276.886 297.873L276.674 298.002L269.271 285.796L264.576 288.643L264.458 288.448L274.024 282.646Z" fill="black"/>
<path d="M283.574 275.35L283.712 275.531L279.386 278.845L288.068 290.178L287.871 290.329L279.189 278.996L274.83 282.335L274.692 282.154L283.574 275.35Z" fill="black"/>
<path d="M295.638 283.561L300.998 278.464L301.155 278.629L295.614 283.898L285.619 273.387L285.8 273.216L295.638 283.561Z" fill="black"/>
<path d="M298.524 259.481L298.698 259.628L293.377 265.902L298.56 270.297L303.077 264.972L303.251 265.119L298.734 270.445L304.091 274.988L309.425 268.699L309.585 268.862L304.104 275.325L293.043 265.944L298.524 259.481Z" fill="black"/>
<path d="M311.467 265.331C311.333 265.234 311.245 265.102 311.203 264.935C311.166 264.763 311.202 264.602 311.311 264.451C311.421 264.3 311.566 264.217 311.746 264.203C311.931 264.183 312.13 264.251 312.342 264.404C312.773 264.716 313.118 265.111 313.378 265.589C313.647 266.065 313.829 266.555 313.925 267.06L313.881 267.066C313.852 267.071 313.829 267.067 313.813 267.055C313.796 267.043 313.778 267.009 313.759 266.952C313.727 266.844 313.681 266.695 313.621 266.507C313.567 266.323 313.488 266.125 313.385 265.914C313.282 265.703 313.152 265.494 312.996 265.287C312.843 265.074 312.654 264.886 312.431 264.724C312.468 264.896 312.428 265.063 312.311 265.226C312.213 265.36 312.088 265.439 311.933 265.464C311.773 265.485 311.618 265.44 311.467 265.331Z" fill="black"/>
<path d="M304.51 251.671L304.595 251.505C304.623 251.449 304.672 251.428 304.743 251.441L318.73 253.823C318.832 253.836 318.927 253.854 319.017 253.876C319.103 253.889 319.194 253.909 319.29 253.934C319.213 253.872 319.142 253.813 319.078 253.756C319.011 253.691 318.942 253.621 318.871 253.546L308.954 243.192C308.902 243.142 308.89 243.089 308.918 243.034L308.947 242.978C308.975 242.923 309.025 242.902 309.095 242.915L323.299 244.873C323.496 244.896 323.683 244.933 323.858 244.984C323.693 244.853 323.553 244.723 323.44 244.596L313.306 234.666C313.254 234.616 313.245 234.557 313.28 234.489L313.355 234.342L324.182 245.033L324.088 245.217L309.492 243.187C309.356 243.164 309.246 243.143 309.163 243.124C309.228 243.18 309.309 243.256 309.407 243.353L319.614 253.983L319.519 254.168L304.51 251.671Z" fill="black"/>
<path d="M330.784 227.439L330.724 227.615C330.704 227.674 330.658 227.702 330.586 227.699L325.345 228.046L322.876 235.282L326.812 238.759C326.871 238.801 326.888 238.858 326.863 238.93L326.81 239.087L315.037 228.677L315.104 228.481L330.784 227.439ZM322.707 235.136L325.122 228.057L315.849 228.67C315.766 228.678 315.691 228.685 315.623 228.691C315.551 228.689 315.475 228.688 315.394 228.69C315.457 228.74 315.516 228.79 315.573 228.838C315.625 228.878 315.682 228.926 315.742 228.984L322.707 235.136Z" fill="black"/>
<path d="M328.746 154.866C328.494 154.128 328.138 153.512 327.678 153.02C327.209 152.523 326.677 152.15 326.081 151.901C325.485 151.652 324.843 151.525 324.155 151.519C323.467 151.513 322.773 151.629 322.074 151.868L313.446 154.813L313.365 154.578L321.993 151.633C322.719 151.385 323.441 151.266 324.16 151.276C324.878 151.286 325.55 151.426 326.174 151.694C326.799 151.963 327.356 152.356 327.847 152.874C328.329 153.389 328.701 154.028 328.962 154.793C329.223 155.558 329.321 156.294 329.256 157.002C329.183 157.706 328.981 158.355 328.651 158.949C328.321 159.544 327.875 160.064 327.313 160.512C326.75 160.959 326.106 161.307 325.381 161.555L316.753 164.5L316.673 164.265L325.281 161.326C325.98 161.087 326.603 160.754 327.151 160.326C327.692 159.901 328.125 159.406 328.451 158.843C328.77 158.281 328.964 157.664 329.033 156.991C329.094 156.313 328.998 155.605 328.746 154.866Z" fill="black"/>
<path d="M316.429 144.307L312.344 152.09L312.244 151.885C312.219 151.836 312.218 151.794 312.24 151.76C312.259 151.72 312.276 151.685 312.292 151.654L316.23 144.208L316.05 144.192L307.946 142.754C307.906 142.751 307.867 142.743 307.83 142.73C307.784 142.714 307.752 142.688 307.734 142.651L307.634 142.446L316.251 144.014L320.557 135.857L320.657 136.062C320.682 136.112 320.684 136.157 320.665 136.197C320.64 136.24 320.621 136.272 320.609 136.293L316.449 144.113C316.483 144.104 316.539 144.107 316.616 144.124L325.173 145.64C325.216 145.649 325.26 145.659 325.303 145.669C325.34 145.681 325.367 145.706 325.386 145.744L325.486 145.948L316.429 144.307Z" fill="black"/>
<path d="M320.163 133.914C320.221 133.903 320.269 133.915 320.306 133.949C320.339 133.977 320.366 134.009 320.388 134.045L320.43 134.116L303.645 136.494C303.553 136.502 303.482 136.464 303.432 136.381L303.379 136.292L320.163 133.914Z" fill="black"/>
<path d="M310.688 121.139C310.217 120.516 309.686 120.043 309.095 119.72C308.494 119.395 307.872 119.208 307.228 119.158C306.584 119.108 305.935 119.188 305.279 119.398C304.624 119.608 304.002 119.936 303.412 120.381L296.141 125.882L295.991 125.683L303.262 120.183C303.874 119.721 304.522 119.382 305.208 119.166C305.894 118.951 306.575 118.872 307.252 118.932C307.929 118.991 308.582 119.19 309.21 119.529C309.829 119.866 310.382 120.357 310.87 121.001C311.357 121.646 311.681 122.315 311.842 123.007C311.992 123.699 312.004 124.378 311.877 125.046C311.75 125.714 311.489 126.348 311.095 126.949C310.701 127.55 310.199 128.082 309.587 128.545L302.316 134.045L302.166 133.846L309.421 128.359C310.01 127.913 310.498 127.401 310.884 126.824C311.264 126.25 311.52 125.645 311.653 125.008C311.78 124.374 311.771 123.727 311.626 123.066C311.472 122.404 311.159 121.761 310.688 121.139Z" fill="black"/>
<path d="M302.986 111.676L303.155 111.859L292.502 121.702L292.334 121.519L302.986 111.676Z" fill="black"/>
<path d="M280.874 101.548C281.598 100.659 282.372 99.9706 283.196 99.4835C284.015 98.9922 284.85 98.6929 285.704 98.5858C286.551 98.4744 287.396 98.5523 288.239 98.8194C289.081 99.0865 289.888 99.534 290.659 100.162L294.676 103.432L285.52 114.68L281.502 111.41C280.731 110.782 280.129 110.083 279.697 109.312C279.264 108.542 279.017 107.73 278.954 106.877C278.886 106.02 279.009 105.141 279.324 104.24C279.634 103.334 280.151 102.437 280.874 101.548ZM281.083 101.718C280.373 102.591 279.866 103.465 279.563 104.341C279.25 105.217 279.124 106.067 279.183 106.891C279.243 107.714 279.483 108.497 279.903 109.24C280.317 109.978 280.894 110.648 281.633 111.249L285.458 114.363L294.353 103.436L290.528 100.323C289.789 99.7209 289.016 99.292 288.209 99.036C287.397 98.7755 286.582 98.6996 285.763 98.808C284.945 98.9165 284.14 99.21 283.35 99.6887C282.549 100.168 281.794 100.845 281.083 101.718Z" fill="black"/>
<path d="M265.946 100.55L266.065 100.356L273.066 104.676L276.634 98.8918L270.692 95.2251L270.812 95.0311L276.754 98.6979L280.443 92.7202L273.425 88.3897L273.562 88.2066L280.774 92.6568L273.157 105L265.946 100.55Z" fill="black"/>
<path d="M257.003 94.7779C257.052 94.7554 257.095 94.753 257.133 94.7709C257.189 94.7976 257.246 94.9016 257.305 95.0828C257.355 95.2672 257.456 95.4877 257.61 95.7443C257.756 95.998 257.975 96.2704 258.264 96.5615C258.551 96.8589 258.956 97.1324 259.48 97.3821C260.016 97.6377 260.533 97.7809 261.031 97.8117C261.52 97.8458 261.97 97.7926 262.381 97.652C262.793 97.5115 263.159 97.2961 263.481 97.0058C263.797 96.7126 264.049 96.3696 264.236 95.9768C264.477 95.4718 264.581 95.0049 264.548 94.5761C264.509 94.1444 264.385 93.7373 264.177 93.3551C263.969 92.9728 263.697 92.6057 263.36 92.2536C263.02 91.9078 262.672 91.5622 262.316 91.2167C261.958 90.8774 261.61 90.5318 261.273 90.1797C260.935 89.8277 260.666 89.4543 260.464 89.0596C260.259 88.6711 260.144 88.2531 260.121 87.8056C260.087 87.3614 260.197 86.8743 260.45 86.3444C260.706 85.8082 261.035 85.3494 261.439 84.968C261.84 84.5929 262.295 84.3125 262.804 84.1269C263.31 83.9474 263.861 83.8769 264.454 83.9152C265.048 83.9534 265.663 84.1242 266.299 84.4274C266.742 84.6384 267.118 84.8677 267.429 85.1151C267.742 85.3564 268.011 85.6186 268.236 85.9017C268.451 86.188 268.632 86.492 268.777 86.8137C268.919 87.1416 269.038 87.4931 269.135 87.8681L269.079 87.8877C269.052 87.8975 269.03 87.9025 269.015 87.9028C268.996 87.9093 268.972 87.9052 268.941 87.8903C268.903 87.8725 268.869 87.8067 268.839 87.693C268.8 87.5825 268.748 87.4352 268.683 87.251C268.615 87.0731 268.526 86.874 268.417 86.6536C268.308 86.4332 268.158 86.2013 267.968 85.9577C267.775 85.7203 267.539 85.4853 267.26 85.2527C266.971 85.0233 266.621 84.8106 266.21 84.6144C265.605 84.3261 265.023 84.1671 264.463 84.1374C263.897 84.1048 263.375 84.1733 262.896 84.3429C262.408 84.5158 261.976 84.7803 261.6 85.1365C261.217 85.4897 260.908 85.9125 260.673 86.405C260.477 86.8165 260.373 87.2031 260.362 87.5647C260.344 87.9234 260.393 88.2608 260.51 88.5768C260.625 88.899 260.792 89.2048 261.014 89.4941C261.227 89.7867 261.47 90.071 261.744 90.347C262.015 90.6292 262.298 90.9019 262.593 91.1651C262.886 91.4346 263.167 91.7104 263.438 91.9927C263.709 92.2749 263.954 92.5638 264.173 92.8593C264.382 93.1582 264.543 93.4718 264.654 93.8003C264.762 94.135 264.807 94.4894 264.79 94.8635C264.763 95.2409 264.647 95.6447 264.442 96.0749C264.242 96.4926 263.974 96.8544 263.637 97.1604C263.297 97.4726 262.907 97.7039 262.468 97.8543C262.03 98.0046 261.55 98.063 261.031 98.0295C260.505 97.9931 259.958 97.8396 259.391 97.5691C258.755 97.2659 258.243 96.8956 257.855 96.458C257.46 96.0174 257.155 95.4702 256.939 94.8162L257.003 94.7779Z" fill="black"/>
<path d="M257.139 80.6802L257.371 80.769L252.192 94.3169L251.96 94.2281L257.139 80.6802Z" fill="black"/>
<path d="M244.844 76.8378C244.271 76.6818 243.747 76.5712 243.27 76.5061C242.786 76.4457 242.327 76.4212 241.895 76.4323C241.46 76.4501 241.043 76.4976 240.643 76.5747C240.234 76.6567 239.819 76.762 239.397 76.8906L238.214 81.2391L241.352 82.0934C241.432 82.1151 241.463 82.1593 241.445 82.226L241.418 82.3259L237.939 81.3791L239.202 76.7408C239.612 76.6019 240.03 76.4866 240.455 76.3949C240.873 76.308 241.313 76.256 241.776 76.2388C242.232 76.2198 242.72 76.2416 243.239 76.3044C243.752 76.3653 244.306 76.4764 244.899 76.6379C245.905 76.9117 246.774 77.3235 247.504 77.8731C248.233 78.4294 248.807 79.0973 249.225 79.8767C249.636 80.6543 249.882 81.5264 249.962 82.4932C250.041 83.4666 249.929 84.5064 249.628 85.6127C249.329 86.7123 248.9 87.6584 248.34 88.451C247.779 89.2503 247.115 89.8782 246.346 90.3347C245.578 90.7913 244.725 91.071 243.788 91.1738C242.844 91.2749 241.842 91.1812 240.783 90.8928C240.263 90.7514 239.796 90.5884 239.381 90.4038C238.964 90.226 238.59 90.0205 238.26 89.7875C237.923 89.5526 237.618 89.2908 237.346 89.002C237.074 88.7132 236.82 88.3862 236.583 88.0211L236.626 87.9792C236.662 87.9532 236.696 87.9447 236.73 87.9537C236.783 87.9682 236.875 88.0757 237.007 88.2762C237.137 88.4833 237.353 88.7282 237.655 89.0109C237.949 89.2985 238.352 89.5942 238.863 89.898C239.373 90.2085 240.031 90.4735 240.837 90.6929C241.85 90.9686 242.81 91.0581 243.717 90.9613C244.622 90.8711 245.446 90.6051 246.189 90.1631C246.932 89.7211 247.577 89.1129 248.124 88.3384C248.671 87.564 249.093 86.6336 249.388 85.5474C249.684 84.4611 249.796 83.4464 249.723 82.5033C249.644 81.5583 249.403 80.7089 248.999 79.9549C248.596 79.201 248.045 78.5571 247.345 78.0232C246.638 77.4941 245.804 77.099 244.844 76.8378Z" fill="black"/>
<path d="M231.772 88.6225C231.71 88.6153 231.666 88.5822 231.638 88.5233L223.066 73.4483C223.069 73.4834 223.069 73.5181 223.065 73.5524C223.06 73.5936 223.055 73.6313 223.051 73.6656L221.441 87.4126L221.236 87.3885L222.923 72.9829L222.984 72.9902C223.026 72.995 223.061 73.0234 223.089 73.0755L231.705 88.2183C231.703 88.1763 231.705 88.1313 231.71 88.0833C231.715 88.0421 231.719 88.0044 231.723 87.9701L233.336 74.2025L233.542 74.2266L231.854 88.6322L231.772 88.6225Z" fill="black"/>
<path d="M209.119 83.6844C209.138 84.0237 209.047 84.3086 208.844 84.5391C208.638 84.7697 208.356 84.8951 207.997 84.9153C207.642 84.9352 207.347 84.8442 207.113 84.6421C206.879 84.444 206.752 84.1636 206.731 83.8009L206.719 83.5844C206.7 83.2451 206.792 82.9622 206.994 82.7356C207.197 82.5091 207.481 82.3855 207.848 82.3649C208.211 82.3446 208.507 82.4355 208.738 82.6378C208.964 82.8441 209.087 83.1189 209.107 83.4621L209.119 83.6844Z" fill="black"/>
<path d="M187.281 89.1889C187.306 89.1413 187.339 89.1132 187.379 89.1047C187.44 89.0919 187.549 89.1396 187.706 89.2477C187.857 89.3641 188.072 89.4778 188.349 89.5889C188.62 89.7013 188.959 89.7854 189.366 89.8409C189.774 89.9033 190.262 89.8748 190.83 89.7554C191.411 89.6332 191.909 89.4332 192.323 89.1555C192.732 88.886 193.058 88.5705 193.299 88.2092C193.541 87.8478 193.702 87.4541 193.782 87.028C193.855 86.6033 193.846 86.178 193.757 85.7522C193.642 85.2047 193.441 84.7706 193.155 84.4496C192.862 84.1301 192.516 83.8816 192.119 83.704C191.722 83.5264 191.282 83.4 190.801 83.3248C190.321 83.2564 189.834 83.1928 189.342 83.134C188.851 83.0819 188.365 83.0183 187.883 82.9432C187.402 82.868 186.961 82.7348 186.561 82.5437C186.162 82.3594 185.817 82.0966 185.527 81.7554C185.231 81.4224 185.023 80.9686 184.902 80.3941C184.78 79.8129 184.763 79.2482 184.853 78.7C184.944 78.1587 185.135 77.6596 185.427 77.203C185.721 76.7531 186.115 76.3631 186.61 76.0332C187.106 75.7032 187.698 75.4657 188.387 75.3207C188.867 75.2198 189.306 75.1735 189.703 75.1818C190.098 75.1833 190.471 75.2284 190.821 75.3171C191.166 75.4139 191.494 75.5461 191.805 75.7137C192.117 75.8881 192.425 76.095 192.729 76.3345L192.697 76.3836C192.681 76.4081 192.667 76.4252 192.655 76.4348C192.644 76.4512 192.622 76.4629 192.588 76.47C192.548 76.4785 192.481 76.4467 192.388 76.3744C192.29 76.3104 192.159 76.225 191.996 76.1182C191.833 76.0182 191.642 75.9138 191.422 75.8049C191.201 75.696 190.941 75.6024 190.643 75.524C190.345 75.4525 190.015 75.409 189.652 75.3936C189.283 75.3864 188.876 75.4297 188.43 75.5235C187.774 75.6614 187.215 75.8883 186.752 76.2045C186.283 76.522 185.909 76.8934 185.631 77.3188C185.349 77.7524 185.166 78.2249 185.083 78.7364C184.993 79.2493 185.004 79.7727 185.116 80.3067C185.21 80.7527 185.362 81.1231 185.572 81.4177C185.776 81.7137 186.02 81.9517 186.305 82.1318C186.591 82.3186 186.91 82.4597 187.262 82.5551C187.608 82.6587 187.974 82.737 188.359 82.7901C188.746 82.85 189.137 82.8949 189.531 82.9249C189.927 82.9616 190.318 83.0099 190.705 83.0698C191.092 83.1296 191.461 83.2106 191.815 83.3128C192.162 83.4232 192.48 83.5751 192.768 83.7687C193.057 83.969 193.308 84.2233 193.521 84.5314C193.729 84.8476 193.882 85.239 193.98 85.7053C194.075 86.1582 194.081 86.6085 193.999 87.0563C193.918 87.5109 193.749 87.9311 193.491 88.317C193.234 88.7029 192.888 89.0402 192.455 89.3289C192.015 89.6191 191.487 89.8288 190.872 89.9582C190.183 90.1031 189.551 90.1195 188.977 90.0073C188.396 89.8966 187.821 89.6469 187.253 89.2583L187.281 89.1889Z" fill="black"/>
<path d="M175.752 94.2L175.68 93.9837L183.486 91.3899L181.344 84.9405L174.717 87.1422L174.645 86.9259L181.272 84.7242L179.057 78.0584L171.231 80.6587L171.179 80.4359L179.221 77.7637L183.794 91.5278L175.752 94.2Z" fill="black"/>
<path d="M156.916 86.8053L157.085 86.7256C157.141 86.699 157.193 86.7125 157.241 86.766L161.141 90.2849L168.052 87.0154L167.805 81.7687C167.794 81.6974 167.823 81.6455 167.892 81.613L168.042 81.5421L168.775 97.2403L168.588 97.3289L156.916 86.8053ZM168.066 87.2381L161.304 90.4368L168.204 96.6625C168.267 96.7164 168.325 96.7656 168.377 96.8099C168.425 96.8635 168.478 96.9187 168.535 96.9756C168.528 96.8951 168.522 96.8177 168.517 96.7435C168.509 96.6784 168.505 96.6042 168.503 96.5207L168.066 87.2381Z" fill="black"/>
<path d="M153.926 105.557L153.808 105.362L158.469 102.538L151.071 90.3281L151.284 90.1993L158.682 102.409L163.378 99.564L163.496 99.759L153.926 105.557Z" fill="black"/>
<path d="M144.357 112.791L144.219 112.61L148.544 109.296L139.863 97.9633L140.06 97.8121L148.742 109.145L153.101 105.806L153.239 105.987L144.357 112.791Z" fill="black"/>
<path d="M132.293 104.58L126.933 109.677L126.776 109.512L132.316 104.243L142.312 114.753L142.131 114.925L132.293 104.58Z" fill="black"/>
<path d="M129.407 128.66L129.233 128.513L134.554 122.239L129.371 117.843L124.854 123.169L124.68 123.021L129.197 117.696L123.84 113.153L118.506 119.442L118.345 119.279L123.827 112.816L134.888 122.197L129.407 128.66Z" fill="black"/>
<path d="M116.464 122.81C116.598 122.907 116.686 123.039 116.728 123.205C116.765 123.377 116.729 123.539 116.62 123.69C116.51 123.841 116.365 123.923 116.184 123.938C116 123.957 115.801 123.89 115.588 123.736C115.158 123.424 114.813 123.029 114.553 122.552C114.284 122.075 114.102 121.585 114.006 121.081L114.05 121.074C114.079 121.07 114.102 121.073 114.118 121.085C114.135 121.098 114.153 121.132 114.172 121.188C114.204 121.297 114.25 121.445 114.31 121.633C114.364 121.818 114.443 122.015 114.546 122.226C114.649 122.437 114.779 122.647 114.935 122.854C115.088 123.067 115.276 123.254 115.5 123.416C115.463 123.244 115.503 123.077 115.62 122.915C115.717 122.781 115.843 122.701 115.998 122.677C116.157 122.656 116.313 122.7 116.464 122.81Z" fill="black"/>
<path d="M123.421 136.47L123.336 136.636C123.308 136.691 123.258 136.713 123.188 136.7L109.201 134.318C109.099 134.304 109.004 134.287 108.914 134.264C108.828 134.251 108.737 134.232 108.641 134.206C108.718 134.269 108.788 134.328 108.853 134.384C108.92 134.45 108.989 134.52 109.06 134.594L118.977 144.949C119.029 144.999 119.041 145.051 119.012 145.107L118.984 145.162C118.956 145.218 118.906 145.239 118.835 145.226L104.632 143.268C104.435 143.245 104.248 143.208 104.072 143.157C104.238 143.288 104.378 143.417 104.491 143.545L114.625 153.475C114.677 153.525 114.685 153.584 114.651 153.651L114.576 153.799L103.749 143.108L103.843 142.923L118.439 144.954C118.575 144.976 118.684 144.997 118.768 145.017C118.703 144.961 118.622 144.884 118.524 144.788L108.317 134.157L108.412 133.973L123.421 136.47Z" fill="black"/>
<path d="M97.1465 160.702L97.2067 160.526C97.2267 160.467 97.2728 160.439 97.3449 160.441L102.586 160.095L105.055 152.859L101.119 149.381C101.06 149.339 101.043 149.283 101.067 149.211L101.121 149.054L112.894 159.464L112.827 159.66L97.1465 160.702ZM105.224 153.004L102.809 160.084L112.082 159.471C112.165 159.463 112.24 159.456 112.308 159.45C112.38 159.452 112.456 159.453 112.537 159.451C112.474 159.401 112.414 159.351 112.358 159.303C112.306 159.263 112.249 159.214 112.189 159.157L105.224 153.004Z" fill="black"/>
<path d="M72.8265 228.027L72.6052 227.091L22.3393 219.355C19.8136 218.964 17.496 219.131 15.2726 216.159L14.6964 216.295L16.9095 225.657L17.4856 225.521C18.2241 222.533 19.811 220.561 23.3581 221.091L33.0501 222.526L38.4768 245.804L29.746 251.974C26.8288 254.108 25.103 252.919 23.385 251.12L22.9529 251.223L25.881 263.609L26.3131 263.507C27.3396 260.451 29.0208 259.521 31.049 258.129L72.8265 228.027ZM64.8851 227.243L39.5269 245.1L34.2325 222.703L64.8851 227.243Z" fill="black"/>
<path d="M57.3178 302.238C52.6371 302.793 47.0917 301.627 43.588 295.277L37.0455 283.421L78.6411 260.468C80.52 259.431 82.7631 259.208 84.3048 260.47L84.6936 260.256L79.1521 250.213L78.7633 250.428C79.0092 252.405 77.6241 254.183 75.7452 255.22L38.037 276.028C36.1581 277.064 33.915 277.288 32.3733 276.026L31.9845 276.24L48.18 305.59L57.4608 302.498L57.3178 302.238Z" fill="black"/>
<path d="M89.8585 338.674C85.7925 340.09 80.1326 340.366 74.8801 334.843L64.987 324.44L84.8276 305.572L93.3948 314.58C95.4347 316.725 94.2586 319.784 92.5164 322.462L92.8224 322.784L102.475 313.605L102.169 313.283C99.2456 315.041 96.2926 315.909 94.2528 313.764L85.6856 304.756L102.309 288.947L110.519 297.581C115.517 302.836 114.956 308.474 113.016 312.77L113.22 312.985L118.967 305.068L96.9884 281.957L96.6667 282.263C97.4053 284.113 96.5158 286.185 94.9608 287.663L63.752 317.343C62.1969 318.822 60.0835 319.606 58.2724 318.775L57.9506 319.081L81.8675 344.231L90.0625 338.888L89.8585 338.674Z" fill="black"/>
<path d="M151.027 333.156C153.323 332.201 155.796 331.094 159.4 331.267L159.666 330.822L152.046 326.264L151.78 326.708C153.09 329.13 151.684 331.48 149.11 332.613L129.12 341.091L128.14 319.378C127.944 315.381 128.869 314.123 131.687 314.602L131.915 314.221L121.056 307.725L120.828 308.106C122.926 311.085 122.346 313.929 122.451 316.924L123.46 341.327L100.705 350.824C98.4091 351.779 95.9359 352.886 92.3314 352.713L92.0655 353.158L99.686 357.717L99.9519 357.272C98.6416 354.85 99.9837 352.462 102.622 351.367L123.513 342.825L124.545 365.172C124.677 369.131 123.561 370.275 120.616 369.72L120.388 370.101L131.565 376.788L131.793 376.407C129.759 373.465 130.352 370.888 130.144 367.056L129.211 342.525L151.027 333.156Z" fill="black"/>
<path d="M190.988 337.431L190.038 337.277L163.678 380.77C162.351 382.955 161.62 385.161 158.024 386.079L157.93 386.664L167.427 388.197L167.521 387.612C165.042 385.788 163.826 383.568 165.672 380.493L170.702 372.085L194.287 375.967L196.652 386.393C197.509 389.905 195.751 391.045 193.432 391.945L193.361 392.383L205.926 394.412L205.997 393.973C203.565 391.857 203.349 389.948 202.838 387.542L190.988 337.431ZM187.228 344.469L194.037 374.727L171.318 371.06L187.228 344.469Z" fill="black"/>
<path d="M250.186 335.803C252.284 336.84 253.63 338.362 253.976 340.704L259.659 379.211L218.862 339.977L213.371 340.788L213.436 341.227C215.374 341.689 216.555 343.609 217.041 346.903L223.092 387.899C223.438 390.242 222.588 392.088 220.806 393.697L220.871 394.137L228.265 393.045L228.2 392.606C226.175 391.558 224.682 390.058 224.337 387.716L218.351 347.159L261.208 388.183L262.233 388.032L255.221 340.521C254.875 338.178 255.871 336.311 257.507 334.723L257.442 334.283L250.121 335.364L250.186 335.803Z" fill="black"/>
<path d="M260.547 333.431L260.751 333.826C262.734 333.635 264.473 335.069 265.457 336.977L285.203 375.251C286.187 377.158 286.348 379.407 285.043 380.912L285.247 381.307L301.885 372.723C314.906 366.005 320.698 350.277 313.641 336.599C306.21 322.196 290.404 318.028 277.382 324.745L260.547 333.431ZM268.782 330.348L277.792 325.7C288.577 320.136 299.986 324.658 307.688 339.586C315.118 353.989 312.13 366.272 301.344 371.836L292.532 376.383L268.782 330.348Z" fill="black"/>
<path d="M340.383 311.641C343.972 304.984 344.368 298.181 339.591 293.434C330.562 284.464 322.003 291.503 313.71 299.85L303.175 310.454L303.49 310.767C305.319 309.976 307.047 310.442 308.937 312.319L339.489 342.674C341.012 344.186 341.856 346.276 341.077 348.11L341.392 348.423L349.476 340.286L349.161 339.974C347.332 340.764 345.236 339.934 343.714 338.421L329.698 324.496L333.922 320.244C335.122 319.036 336.217 317.829 337.207 316.518L357.11 322.418C360.619 323.506 363.395 324.177 362.721 326.325L363.036 326.638L370.964 318.658L370.649 318.345C367.409 319.612 363.166 318.213 360.233 317.49L340.383 311.641ZM328.963 323.766L310.012 304.938L314.132 300.79C320.704 294.176 326.602 289.709 334.949 298.002C342.088 305.095 339.759 312.899 333.031 319.671L328.963 323.766Z" fill="black"/>
<path d="M388.886 269.389C391.445 272.851 393.39 278.174 389.675 284.83L382.677 297.365L358.77 284.02L364.829 273.164C366.272 270.58 369.542 270.795 372.616 271.664L372.833 271.276L361.202 264.784L360.986 265.171C363.533 267.441 365.238 270.003 363.795 272.587L357.736 283.443L337.705 272.262L343.512 261.859C347.047 255.526 352.598 254.388 357.276 254.965L357.42 254.706L348.154 251.568L332.609 279.417L332.997 279.634C334.545 278.379 336.787 278.614 338.661 279.66L376.267 300.651C378.141 301.697 379.517 303.482 379.261 305.458L379.649 305.675L396.565 275.37L389.031 269.131L388.886 269.389Z" fill="black"/>
<path d="M355.602 227.368L355.386 228.305L397.021 257.511C399.112 258.981 401.264 259.857 401.941 263.507L402.517 263.64L404.681 254.267L404.104 254.133C402.119 256.485 399.822 257.55 396.877 255.503L388.824 249.922L394.272 226.65L404.833 224.986C408.394 224.365 409.415 226.196 410.158 228.57L410.59 228.67L413.453 216.268L413.02 216.168C410.746 218.453 408.827 218.542 406.392 218.891L355.602 227.368ZM362.374 231.589L393.019 226.816L387.842 249.24L362.374 231.589Z" fill="black"/>
<path d="M355.134 160.174L355.355 161.11L405.621 168.846C408.147 169.237 410.465 169.069 412.688 172.042L413.264 171.905L411.051 162.544L410.475 162.68C409.737 165.668 408.15 167.64 404.603 167.109L394.911 165.675L389.484 142.397L398.215 136.227C401.132 134.092 402.858 135.281 404.576 137.08L405.008 136.978L402.08 124.591L401.648 124.694C400.621 127.75 398.94 128.679 396.912 130.071L355.134 160.174ZM363.076 160.958L388.434 143.101L393.728 165.498L363.076 160.958Z" fill="black"/>
<path d="M370.653 85.9725C375.333 85.4181 380.879 86.584 384.383 92.9335L390.925 104.79L349.33 127.743C347.451 128.78 345.207 129.003 343.666 127.741L343.277 127.955L348.818 137.998L349.207 137.783C348.961 135.806 350.346 134.028 352.225 132.991L389.934 112.183C391.812 111.147 394.056 110.923 395.597 112.185L395.986 111.971L379.791 82.6206L370.51 85.7133L370.653 85.9725Z" fill="black"/>
<path d="M338.112 49.5272C342.178 48.1114 347.838 47.8348 353.091 53.358L362.984 63.7609L343.143 82.6293L334.576 73.6205C332.536 71.4756 333.712 68.4169 335.454 65.7389L335.148 65.4172L325.496 74.5963L325.802 74.9181C328.725 73.1595 331.678 72.2915 333.718 74.4365L342.285 83.4452L325.662 99.2538L317.452 90.6204C312.454 85.3653 313.014 79.7264 314.954 75.4307L314.75 75.2163L309.003 83.1326L330.982 106.244L331.304 105.938C330.565 104.088 331.455 102.016 333.01 100.538L364.219 70.8582C365.774 69.3793 367.887 68.5949 369.698 69.4255L370.02 69.1196L346.103 43.9702L337.908 49.3127L338.112 49.5272Z" fill="black"/>
<path d="M276.944 55.0447C274.648 55.9995 272.175 57.1069 268.57 56.9339L268.304 57.3784L275.925 61.9372L276.191 61.4927C274.881 59.0704 276.286 56.7208 278.861 55.5879L298.851 47.1097L299.831 68.8225C300.027 72.8199 299.102 74.0775 296.284 73.599L296.056 73.98L306.915 80.4762L307.143 80.0952C305.045 77.1156 305.625 74.2721 305.52 71.2771L304.511 46.8738L327.266 37.3767C329.561 36.4219 332.035 35.3146 335.639 35.4875L335.905 35.043L328.285 30.4842L328.019 30.9287C329.329 33.351 327.987 35.7386 325.349 36.8335L304.458 45.3764L303.426 23.029C303.294 19.0697 304.409 17.926 307.354 18.4806L307.582 18.0995L296.406 11.4133L296.178 11.7944C298.212 14.736 297.619 17.313 297.827 21.1454L298.76 45.6757L276.944 55.0447Z" fill="black"/>
<path d="M236.972 50.7803L237.922 50.9336L264.282 7.44057C265.609 5.25614 266.34 3.05043 269.937 2.13182L270.031 1.54738L260.534 0.014297L260.439 0.598731C262.918 2.4231 264.134 4.64322 262.288 7.71839L257.258 16.1262L233.674 12.244L231.309 1.81794C230.452 -1.69357 232.21 -2.83395 234.529 -3.73388L234.6 -4.1722L222.034 -6.20059L221.963 -5.76227C224.395 -3.64568 224.612 -1.73677 225.123 0.669426L236.972 50.7803ZM240.732 43.7415L233.923 13.4837L256.643 17.1513L240.732 43.7415Z" fill="black"/>
<path d="M177.785 52.3978C175.687 51.3609 174.34 49.8393 173.995 47.4966L168.311 8.98976L209.109 48.2234L214.599 47.4131L214.535 46.9739C212.596 46.5119 211.415 44.5918 210.929 41.2974L204.879 0.301529C204.533 -2.04109 205.382 -3.88692 207.165 -5.49637L207.1 -5.93561L199.706 -4.84435L199.771 -4.40511C201.795 -3.3575 203.288 -1.85742 203.634 0.485207L209.62 41.0419L166.763 0.0177113L165.738 0.168975L172.75 47.6803C173.096 50.0229 172.1 51.8904 170.464 53.4782L170.529 53.9175L177.85 52.837L177.785 52.3978Z" fill="black"/>
<path d="M167.424 54.7698L167.22 54.3752C165.237 54.5657 163.498 53.1315 162.514 51.2244L142.767 12.95C141.783 11.0428 141.622 8.79428 142.927 7.28843L142.724 6.89385L126.085 15.4778C113.064 22.1956 107.273 37.9236 114.33 51.6024C121.76 66.0046 137.567 70.1733 150.588 63.4555L167.424 54.7698ZM159.189 57.8526L150.179 62.5009C139.394 68.0651 127.984 63.5429 120.283 48.6146C112.852 34.2123 115.841 21.9288 126.626 16.3645L135.439 11.8181L159.189 57.8526Z" fill="black"/>
<path d="M87.578 76.5594C83.9892 83.2165 83.5927 90.0202 88.3698 94.7663C97.3991 103.737 105.958 96.6975 114.25 88.3507L124.786 77.7465L124.471 77.4336C122.642 78.2244 120.914 77.7591 119.024 75.8815L88.4713 45.5271C86.9489 44.0146 86.1049 41.9243 86.8838 40.0903L86.5689 39.7774L78.4848 47.9142L78.7997 48.2272C80.6286 47.4363 82.7243 48.2667 84.2467 49.7792L98.2631 63.7047L94.0385 67.9569C92.8389 69.1643 91.744 70.3714 90.7541 71.6827L70.8509 65.7823C67.3415 64.6948 64.5661 64.0236 65.2393 61.8761L64.9243 61.5631L56.9967 69.5425L57.3117 69.8554C60.5518 68.5891 64.7948 69.9881 67.7274 70.7111L87.578 76.5594ZM98.998 64.4349L117.949 83.263L113.829 87.4102C107.257 94.0247 101.359 98.4916 93.012 90.1989C85.8726 83.1057 88.2019 75.3015 94.9299 68.5296L98.998 64.4349Z" fill="black"/>
<path d="M39.4702 118.98C36.8907 115.533 34.9149 110.222 38.5904 103.545L45.5131 90.968L69.4994 104.171L63.5044 115.062C62.0771 117.655 58.806 117.46 55.7264 116.609L55.5123 116.998L67.1812 123.421L67.3954 123.032C64.8349 120.778 63.1143 118.226 64.5417 115.633L70.5366 104.742L90.6332 115.804L84.8881 126.242C81.391 132.595 75.8468 133.766 71.1655 133.217L71.0228 133.476L80.3068 136.559L95.6867 108.619L95.2978 108.404C93.7574 109.668 91.514 109.447 89.634 108.412L51.9043 87.6439C50.0243 86.6091 48.6373 84.832 48.8811 82.8545L48.4922 82.6404L31.7562 113.045L39.3274 119.239L39.4702 118.98Z" fill="black"/>
<path d="M72.3587 160.843L72.5751 159.906L30.9393 130.7C28.8484 129.23 26.6964 128.354 26.02 124.704L25.4431 124.571L23.2793 133.944L23.8561 134.078C25.842 131.726 28.1383 130.661 31.0834 132.708L39.1365 138.288L33.6882 161.561L23.1275 163.225C19.5665 163.845 18.5461 162.015 17.803 159.641L17.3704 159.541L14.5075 171.943L14.9401 172.043C17.2144 169.758 19.1335 169.669 21.5684 169.32L72.3587 160.843ZM65.5867 156.622L34.9417 161.395L40.1182 138.971L65.5867 156.622Z" fill="black"/>
</g>
</mask>
<g mask="url(#mask0)">
<rect y="197.659" width="427.971" height="211.309" fill="#2C2928"/>
</g>
<defs>
<clipPath id="clip0">
<rect width="426.33" height="428.1" fill="white" transform="translate(1.6438 -20.7664) rotate(0.22)"/>
</clipPath>
</defs>
</svg>
