<svg xmlns="http://www.w3.org/2000/svg" viewBox="0 0 426.2 410.05"><defs><style>.cls-1{font-size:20.72px;}.cls-1,.cls-2{font-family:Lato-Hairline, Lato;font-weight:100;}.cls-2{font-size:9px;}.cls-3{font-size:74px;font-family:Juana-Light, Juana;font-weight:300;}</style></defs><g id="Layer_2" data-name="Layer 2"><g id="Layer_1-2" data-name="Layer 1"><text class="cls-1" transform="translate(96.25 228.32) rotate(70.93)">U</text><text class="cls-1" transform="translate(101.97 244.21) rotate(63.75)">X</text><text class="cls-1" transform="matrix(0.52, 0.85, -0.85, 0.52, 107.83, 255.74)">/</text><text class="cls-1" transform="matrix(0.61, 0.8, -0.8, 0.61, 112.17, 263.14)">U</text><text class="cls-1" transform="translate(122.49 276.21) rotate(47.04)">I</text><text class="cls-1" transform="matrix(0.72, 0.7, -0.7, 0.72, 127.28, 281.27)"> </text><text class="cls-1" transform="matrix(0.78, 0.63, -0.63, 0.78, 130.99, 285.18)">D</text><text class="cls-1" transform="matrix(0.85, 0.52, -0.52, 0.85, 144.79, 296.04)">E</text><text class="cls-1" transform="translate(156.72 303.19) rotate(25.27)">S</text><text class="cls-1" transform="matrix(0.94, 0.35, -0.35, 0.94, 167.56, 308.15)">I</text><text class="cls-1" transform="translate(174.52 310.97) rotate(14.8)">G</text><text class="cls-1" transform="translate(191.58 315.33) rotate(6.46)">N</text><text class="cls-1" transform="translate(208.49 316.92) rotate(1.22)"> </text><text class="cls-1" transform="translate(213.4 317.01) rotate(-1.28)"> </text><text class="cls-2" transform="translate(217.94 311.92) rotate(-3.6)">•</text><text class="cls-1" transform="translate(224.08 316.52) rotate(-6.06)"> </text><text class="cls-1" transform="translate(228.92 315.98) rotate(-8.36)"> </text><text class="cls-1" transform="matrix(0.98, -0.21, 0.21, 0.98, 234, 315.32)">S</text><text class="cls-1" transform="matrix(0.95, -0.32, 0.32, 0.95, 245.91, 312.66)">E</text><text class="cls-1" transform="matrix(0.9, -0.43, 0.43, 0.9, 259.17, 308.11)">A</text><text class="cls-1" transform="matrix(0.85, -0.52, 0.52, 0.85, 271.03, 302.44)">T</text><text class="cls-1" transform="matrix(0.79, -0.61, 0.61, 0.79, 282.55, 295.3)">T</text><text class="cls-1" transform="matrix(0.72, -0.69, 0.69, 0.72, 293.11, 286.96)">L</text><text class="cls-1" transform="translate(301.78 278.6) rotate(-49.92)">E</text><text class="cls-1" transform="translate(310.38 268.05) rotate(-54.31)">,</text><text class="cls-1" transform="translate(313.11 264.23) rotate(-56.57)"> </text><text class="cls-1" transform="matrix(0.45, -0.89, 0.89, 0.45, 316.46, 259.8)">W</text><text class="cls-1" transform="translate(325.83 240.65) rotate(-71.38)">A</text><text class="cls-3" transform="translate(17.07 219.05) rotate(76.48)">A</text><text class="cls-3" transform="translate(31.87 273.37) rotate(60.89)">L</text><text class="cls-3" transform="matrix(0.69, 0.72, -0.72, 0.69, 56.75, 316.05)">E</text><text class="cls-3" transform="matrix(0.86, 0.51, -0.51, 0.86, 93.52, 353.01)">X</text><text class="cls-3" transform="matrix(0.94, 0.34, -0.34, 0.94, 138.71, 377.6)"> </text><text class="cls-3" transform="translate(159.12 385.94) rotate(8.95)">A</text><text class="cls-3" transform="matrix(0.99, -0.15, 0.15, 0.99, 216.14, 393.78)">N</text><text class="cls-3" transform="translate(279.69 382.39) rotate(-27.51)">D</text><text class="cls-3" transform="matrix(0.7, -0.71, 0.71, 0.7, 335.65, 350.84)">R</text><text class="cls-3" transform="translate(374.41 309.5) rotate(-61.05)">E</text><text class="cls-3" transform="matrix(0.22, -0.97, 0.97, 0.22, 398.83, 263.27)">A</text></g></g></svg>