<svg width="61" height="59" viewBox="0 0 61 59" fill="none" xmlns="http://www.w3.org/2000/svg">
<path d="M44.0765 16.2613H44.4761C44.8031 16.2613 45.0695 15.9828 45.0695 15.6559C45.0695 15.3289 44.8031 15.0746 44.4761 15.0625H44.0886C43.3257 15.0625 42.7082 15.6801 42.7082 16.4309C42.7082 16.7094 42.7929 16.9758 42.9504 17.2059C42.5144 17.8355 42.6839 18.6832 43.3015 19.1191C43.5316 19.2766 43.798 19.3613 44.0765 19.3613H44.464C44.791 19.3613 45.0574 19.0828 45.0574 18.7559C45.0574 18.4289 44.791 18.1746 44.464 18.1625H44.0765C43.9796 18.1625 43.8949 18.0898 43.8949 17.993C43.8949 17.8961 43.9675 17.8113 44.0644 17.8113H44.0765H44.464C44.791 17.8113 45.0574 17.5328 45.0574 17.2059C45.0574 16.8789 44.791 16.6246 44.464 16.6125H44.0765C43.9796 16.6125 43.8949 16.5398 43.8949 16.443C43.8949 16.3461 43.9796 16.2613 44.0765 16.2613Z" fill="black"/>
<path d="M29.8721 45.2512L29.5209 45.0817C29.2303 44.9364 28.867 45.0575 28.7217 45.3602C28.5763 45.6508 28.6974 46.0141 29.0002 46.1594C29.0123 46.1594 29.0123 46.1594 29.0244 46.1715L29.3756 46.3411C29.4603 46.3774 29.5088 46.4864 29.4603 46.5832C29.4119 46.668 29.315 46.7164 29.2181 46.668L28.867 46.4985C28.5642 46.3532 28.2131 46.4864 28.0678 46.7891C27.9224 47.0918 28.0556 47.443 28.3584 47.5883L28.7096 47.7579C28.7943 47.7942 28.8428 47.9032 28.7943 48C28.7459 48.0848 28.649 48.1332 28.5521 48.0848L28.201 47.9153C27.8982 47.77 27.547 47.9032 27.4017 48.2059C27.2564 48.5086 27.3896 48.8598 27.6924 49.0051L28.0435 49.1747C28.7338 49.5016 29.5451 49.1989 29.8721 48.5207C29.9931 48.2664 30.0295 47.9879 29.981 47.7094C30.6349 47.3219 30.8529 46.4864 30.4775 45.8325C30.3322 45.5661 30.1142 45.3723 29.8721 45.2512Z" fill="black"/>
<path d="M21.6498 47.6247C21.3713 47.443 21.008 47.5157 20.8264 47.7942L20.6084 48.1211C20.5478 48.2059 20.4389 48.2301 20.3541 48.1696C20.2693 48.1211 20.2451 48 20.3057 47.9274L20.5236 47.6004C20.7053 47.3219 20.6326 46.9586 20.3541 46.777C20.0756 46.5954 19.7123 46.668 19.5307 46.9465L19.3127 47.2735C18.901 47.9032 19.0705 48.7629 19.7123 49.1747C20.342 49.5864 21.2018 49.4168 21.6135 48.775L21.8314 48.4481C22.001 48.1817 21.9162 47.8063 21.6498 47.6247Z" fill="black"/>
<path d="M18.1864 51.1605L17.8958 51.4148C17.8231 51.4754 17.702 51.4754 17.6415 51.4027C17.5809 51.3301 17.5809 51.2211 17.6536 51.1484L17.9442 50.8941C18.1864 50.6762 18.2106 50.3008 17.9926 50.0465C17.7747 49.8043 17.3993 49.7801 17.145 49.998L16.8544 50.2523C16.2852 50.7609 16.2368 51.6328 16.7454 52.1898C17.254 52.759 18.1258 52.8074 18.6829 52.2988L18.9735 52.0445C19.2157 51.8266 19.2399 51.4512 19.0219 51.1969C18.804 50.9668 18.4286 50.9426 18.1864 51.1605Z" fill="black"/>
<path d="M13.2943 52.0808L13.6818 52.105C14.0088 52.1292 14.2994 51.8749 14.3115 51.5359C14.3357 51.2089 14.0814 50.9183 13.7424 50.9062L13.3549 50.882C12.592 50.8335 11.9502 51.4148 11.9017 52.1777C11.8533 52.9406 12.4346 53.5824 13.1974 53.6308L13.585 53.655H13.6213C13.9482 53.655 14.2146 53.3886 14.2146 53.0617C14.2146 52.7468 13.9725 52.4804 13.6455 52.4683L13.258 52.4441C13.1611 52.4441 13.0885 52.3593 13.0885 52.2503C13.1127 52.1414 13.1975 52.0687 13.2943 52.0808Z" fill="black"/>
<path d="M34.4131 46.8859L34.0741 46.6922C33.7834 46.5348 33.4201 46.6316 33.2627 46.9223C33.1053 47.2008 33.2022 47.5641 33.4807 47.7336L33.8198 47.9273C33.9045 47.9758 33.9408 48.0848 33.8803 48.1695C33.8319 48.2543 33.7229 48.2906 33.6381 48.2301L33.2991 48.0363C33.0084 47.8668 32.6451 47.9637 32.4756 48.2543C32.3061 48.5449 32.403 48.9082 32.6936 49.0777L33.0326 49.2715C33.1174 49.3199 33.1537 49.4289 33.0932 49.5137C33.0448 49.5984 32.9358 49.6226 32.851 49.5742L32.5119 49.3805C32.2213 49.2109 31.858 49.3078 31.7006 49.5984C31.5311 49.889 31.628 50.2523 31.9186 50.4097L32.2576 50.6035C32.9115 50.9789 33.7592 50.7609 34.1346 50.0949C34.2799 49.8527 34.3405 49.5742 34.3162 49.2957C35.0065 48.9687 35.285 48.1453 34.9701 47.4672C34.8491 47.2371 34.6553 47.0312 34.4131 46.8859Z" fill="black"/>
<path d="M39.4626 48.5691C39.2688 48.3754 39.0145 48.2422 38.7481 48.1937L38.3606 48.1211C38.0337 48.0605 37.7188 48.2785 37.6583 48.5933C37.5977 48.9082 37.8157 49.2351 38.1305 49.2957L38.518 49.3683C38.6149 49.3926 38.6755 49.4773 38.6633 49.5742C38.6391 49.6711 38.5544 49.7316 38.4575 49.7195L38.07 49.6469C37.743 49.5863 37.4282 49.8043 37.3676 50.1191C37.3071 50.4461 37.5251 50.7609 37.8399 50.8215L38.2274 50.8941C38.3243 50.9183 38.3848 51.0031 38.3727 51.1C38.3606 51.1969 38.2637 51.2574 38.1669 51.2453L37.7794 51.1726C37.4524 51.1121 37.1376 51.3301 37.077 51.6449C37.0165 51.9598 37.2344 52.2867 37.5493 52.3472L37.9368 52.4199C38.6876 52.5652 39.402 52.0687 39.5473 51.318C39.5958 51.0394 39.5715 50.7609 39.4505 50.5066C39.9954 49.9859 39.9954 49.114 39.4626 48.5691Z" fill="black"/>
<path d="M19.6394 29.1457H19.7483C20.9956 29.1578 22.1944 28.6371 23.0421 27.7168C23.2601 27.4746 23.248 27.0992 23.0058 26.8691C22.7636 26.6511 22.3882 26.6632 22.1581 26.9054C21.5284 27.6078 20.6081 27.9953 19.6636 27.9468C19.3366 27.9347 19.0581 28.2011 19.0581 28.5281C19.0581 28.855 19.3124 29.1457 19.6394 29.1457Z" fill="black"/>
<path d="M17.181 28.5765C17.4353 28.6855 17.7017 28.7823 17.9681 28.8671C18.2829 28.964 18.622 28.7823 18.7068 28.4675C18.8036 28.1527 18.622 27.8257 18.3193 27.7288C18.1013 27.6562 17.8833 27.5835 17.6653 27.4866C17.3626 27.3534 17.0114 27.4866 16.8782 27.7894C16.745 28.0921 16.8782 28.4433 17.181 28.5765Z" fill="black"/>
<path d="M52.9045 14.6386C52.8924 14.6386 52.8924 14.6386 52.9045 14.6386C52.8924 14.6386 52.6866 14.6749 52.4323 14.3964C52.3233 14.2753 52.2385 14.1542 52.1659 14.0089C51.5846 12.9069 50.4705 12.2046 49.2233 12.144C48.8963 12.144 48.6299 12.4104 48.6299 12.7374C48.6299 12.8706 48.6784 13.0038 48.751 13.1007C48.0244 14.0452 48.2061 15.4015 49.1627 16.128C50.1073 16.8546 51.4635 16.673 52.1901 15.7163C52.2022 15.7042 52.2143 15.6921 52.2143 15.68C52.4202 15.7769 52.6502 15.8253 52.8924 15.8253C53.0135 15.8253 53.1467 15.8132 53.2678 15.7769C53.5827 15.68 53.7643 15.353 53.6674 15.0261C53.5463 14.7233 53.2194 14.5417 52.9045 14.6386ZM50.5674 15.353C50.0346 15.4136 49.5623 15.0261 49.5139 14.4933C49.4897 14.2632 49.5502 14.0331 49.6834 13.8394C49.6955 14.4933 50.2284 15.0019 50.8702 15.0019C51.0034 15.0019 51.1487 14.9776 51.2819 14.9292C51.1123 15.1714 50.858 15.3288 50.5674 15.353Z" fill="black"/>
<path d="M48.3748 37.6465C48.3869 37.6465 48.3869 37.6465 48.3748 37.6465C48.5807 37.6828 48.7865 37.6949 48.9924 37.6949C49.5252 37.6949 50.0459 37.5859 50.5303 37.3558C50.833 37.2226 50.9662 36.8594 50.8209 36.5566C50.6756 36.2539 50.3244 36.1207 50.0217 36.266C49.5615 36.4719 49.0529 36.5445 48.5685 36.4597C48.2416 36.4113 47.9389 36.6293 47.8783 36.9562C47.8299 37.2832 48.0478 37.5859 48.3748 37.6465Z" fill="black"/>
<path d="M46.6191 36.9684C46.728 37.041 46.8491 37.1137 46.9581 37.1742C47.2487 37.3316 47.612 37.2227 47.7694 36.932C47.9269 36.6414 47.8179 36.2781 47.5273 36.1207L47.5151 36.1086C47.4425 36.0723 47.3698 36.0238 47.2972 35.9875C47.0308 35.7938 46.6554 35.8664 46.4616 36.1328C46.2921 36.3992 46.3527 36.7746 46.6191 36.9684Z" fill="black"/>
<path d="M10.6305 9.28633C10.909 9.46797 11.2844 9.3832 11.454 9.10469C11.6235 8.85039 11.793 8.58398 11.9747 8.3418C12.1684 8.07539 12.1079 7.7 11.8415 7.50625C11.575 7.3125 11.1997 7.37305 11.0059 7.63945C10.8122 7.90586 10.6184 8.18437 10.4368 8.475C10.2672 8.7414 10.352 9.10469 10.6305 9.28633Z" fill="black"/>
<path d="M13.4153 6.67065C13.936 6.14995 14.5052 5.67769 15.0985 5.25386C15.3649 5.06011 15.4255 4.68472 15.2439 4.41831C15.0622 4.1519 14.6747 4.09136 14.4083 4.273C13.7544 4.73315 13.1489 5.25386 12.5798 5.81089C12.3497 6.04097 12.3497 6.42847 12.5798 6.65854C12.8099 6.88862 13.1853 6.88862 13.4153 6.67065Z" fill="black"/>
<path d="M16.7215 4.26097C16.7215 4.26097 16.7336 4.26097 16.7336 4.24886C17.6903 3.75237 18.6954 3.37698 19.7368 3.12269C20.0516 3.03792 20.2575 2.72308 20.1727 2.39613C20.0879 2.08128 19.7731 1.87542 19.4461 1.96019C18.3079 2.2387 17.218 2.65042 16.1766 3.18323C15.886 3.32855 15.7649 3.69183 15.9102 3.98245C16.0676 4.28519 16.4309 4.40628 16.7215 4.26097Z" fill="black"/>
<path d="M48.2299 56.8157C47.5881 57.1063 46.922 57.3485 46.2439 57.5422C45.9291 57.627 45.7353 57.9661 45.8322 58.2809C45.917 58.5958 46.256 58.7895 46.5709 58.6926C47.3095 58.4868 48.0361 58.2204 48.7263 57.9055C49.0291 57.7723 49.1623 57.409 49.017 57.1184C48.8838 56.8036 48.5326 56.6704 48.2299 56.8157Z" fill="black"/>
<path d="M51.742 54.4906C51.7299 54.4906 51.7299 54.4906 51.742 54.4906C51.2092 54.975 50.64 55.423 50.0467 55.8105C49.7682 55.9922 49.6834 56.3554 49.865 56.634C50.0467 56.9125 50.4099 56.9972 50.6885 56.8156C50.6885 56.8156 50.7006 56.8156 50.7006 56.8035C51.3424 56.3797 51.9599 55.8953 52.5291 55.3746C52.7713 55.1566 52.7955 54.7812 52.5775 54.5269C52.3596 54.2726 51.9842 54.2605 51.742 54.4906Z" fill="black"/>
<path d="M56.6819 43.8586C56.3428 43.8586 56.0764 44.1372 56.0885 44.4641C56.1128 47.1161 55.362 49.7196 53.9089 51.9356C53.7272 52.2141 53.7999 52.5774 54.0663 52.7711C54.3448 52.9528 54.7081 52.8801 54.9018 52.6137L54.9139 52.6016C56.5003 50.1797 57.3237 47.3461 57.2995 44.4641C57.2874 44.125 57.0089 43.8586 56.6819 43.8586Z" fill="black"/>
<path d="M38.0335 10.8364L37.6944 10.6426C37.0405 10.2551 36.1929 10.4731 35.8175 11.127C35.6722 11.3692 35.6116 11.6477 35.6237 11.9262C34.9335 12.2411 34.6429 13.0645 34.9577 13.7548C35.0788 14.0091 35.2726 14.2149 35.5026 14.3602L35.8417 14.554C36.1323 14.7235 36.4956 14.6145 36.653 14.336C36.8105 14.0575 36.7257 13.6942 36.4472 13.5247L36.1081 13.3309C36.0234 13.2825 35.987 13.1735 36.0355 13.0887C36.0839 13.004 36.1929 12.9676 36.2776 13.0161H36.2898L36.6288 13.2098C36.9194 13.3794 37.2827 13.2704 37.4402 12.9919C37.5976 12.7134 37.5128 12.3501 37.2343 12.1805L36.8952 11.9868C36.8105 11.9384 36.7741 11.8294 36.8226 11.7446C36.871 11.6598 36.98 11.6235 37.0648 11.6719H37.0769L37.4159 11.8657C37.7066 12.0352 38.0698 11.9262 38.2273 11.6477C38.4089 11.3571 38.312 11.0059 38.0335 10.8364Z" fill="black"/>
<path d="M49.5015 44.4761C49.1745 44.4761 48.9202 44.7425 48.9081 45.0695V45.457C48.9081 45.5538 48.8355 45.6386 48.7386 45.6386C48.6417 45.6386 48.5569 45.5659 48.5569 45.4691V45.457V45.0695C48.5569 44.7425 48.2784 44.4761 47.9515 44.4761C47.6245 44.4761 47.3702 44.7425 47.3581 45.0695V45.457C47.3581 45.5538 47.2854 45.6386 47.1886 45.6386C47.0917 45.6386 47.0069 45.5659 47.0069 45.4691V45.457V45.0695C47.0069 44.7425 46.7284 44.4761 46.4015 44.4761C46.0745 44.4761 45.8202 44.7425 45.8081 45.0695V45.457C45.8081 46.2199 46.4136 46.8374 47.1765 46.8374C47.455 46.8374 47.7335 46.7527 47.9636 46.5952C48.5933 47.0312 49.4409 46.8738 49.8769 46.2441C50.0343 46.014 50.119 45.7476 50.119 45.4691V45.0816C50.1069 44.7304 49.8405 44.464 49.5015 44.4761Z" fill="black"/>
<path d="M50.6395 41.5578V41.1582C50.6395 40.8312 50.3609 40.5648 50.034 40.5648C49.707 40.5648 49.4527 40.8312 49.4406 41.1582V41.5457C49.4406 41.6426 49.368 41.7273 49.2711 41.7273C49.1742 41.7273 49.0895 41.6547 49.0895 41.5578V41.5457V41.1582C49.0895 40.8312 48.8109 40.5648 48.484 40.5648C48.157 40.5648 47.9027 40.8312 47.8906 41.1582V41.5457C47.8906 42.3086 48.4961 42.9262 49.259 42.9262C49.5375 42.9262 49.816 42.8414 50.0461 42.684C50.6758 43.1199 51.5234 42.9625 51.9594 42.3328C52.1168 42.1027 52.2016 41.8363 52.2016 41.5578V41.1703C52.2016 40.8433 51.923 40.5769 51.5961 40.5769C51.2691 40.5769 51.0148 40.8433 51.0027 41.1703V41.5578C51.0027 41.6547 50.9301 41.7394 50.8332 41.7394C50.7242 41.7394 50.6395 41.6547 50.6395 41.5578Z" fill="black"/>
<path d="M35.2001 28.4797L35.5876 28.4312C35.6844 28.4191 35.7813 28.4918 35.7934 28.5886C35.8055 28.6855 35.7329 28.7824 35.636 28.7945H35.6239L35.2364 28.8429C34.9094 28.8793 34.6794 29.182 34.7157 29.5089C34.752 29.8359 35.0426 30.066 35.3696 30.0296L35.7571 29.9812C35.854 29.9691 35.9508 30.0418 35.963 30.1386C35.9751 30.2355 35.9024 30.3324 35.8055 30.3445H35.7934L35.4059 30.3929C35.079 30.4293 34.8489 30.732 34.8852 31.0589C34.9215 31.3859 35.2122 31.616 35.5391 31.5796L35.9266 31.5312C36.6774 31.4464 37.2223 30.7683 37.1376 30.0175C37.1012 29.739 36.9923 29.4847 36.8106 29.2668C37.1618 28.6007 36.9075 27.7652 36.2415 27.414C35.9993 27.2808 35.7208 27.2324 35.4423 27.2566L35.0548 27.305C34.7278 27.3414 34.4977 27.6441 34.534 27.9711C34.5946 28.2859 34.8852 28.516 35.2001 28.4797Z" fill="black"/>
<path d="M29.3998 28.4676L29.7873 28.4191C29.8841 28.407 29.981 28.4797 29.9931 28.5766C30.0052 28.6734 29.9326 28.7703 29.8357 28.7824H29.8236L29.4361 28.8308C29.1091 28.8672 28.8791 29.1699 28.9154 29.4969C28.9517 29.8238 29.2423 30.0539 29.5693 30.0176L29.9568 29.9691C30.0537 29.957 30.1506 30.0297 30.1627 30.1265C30.1748 30.2234 30.1021 30.3203 30.0052 30.3324H29.9931L29.6056 30.3808C29.2787 30.4172 29.0486 30.7199 29.0849 31.0469C29.1213 31.3738 29.4119 31.6039 29.7388 31.5676L30.1263 31.5191C30.8771 31.4344 31.422 30.7562 31.3373 30.0055C31.301 29.7269 31.192 29.4726 31.0103 29.2547C31.3615 28.5887 31.1072 27.7531 30.4412 27.4019C30.199 27.2687 29.9205 27.2203 29.642 27.2445L29.2545 27.293C28.9275 27.3293 28.6974 27.632 28.7338 27.959C28.7943 28.2617 29.0849 28.4918 29.3998 28.4676Z" fill="black"/>
<path d="M16.8424 13.9121L16.467 13.9969C16.3701 14.0211 16.2733 13.9605 16.2491 13.8637C16.2248 13.7668 16.2854 13.6699 16.3823 13.6457H16.3944L16.7698 13.5609C17.0967 13.4883 17.2905 13.1613 17.2178 12.8465C17.1451 12.5316 16.8303 12.3258 16.5155 12.3863L16.1401 12.4711C16.0432 12.4953 15.9463 12.4348 15.9221 12.3379C15.8979 12.241 15.9584 12.1441 16.0553 12.1199H16.0674L16.4428 12.0351C16.7698 11.9625 16.9635 11.6355 16.8909 11.3207C16.8182 11.0059 16.5033 10.8 16.1885 10.8605L15.8131 10.9453C15.0744 11.1027 14.5901 11.8293 14.7475 12.568C14.808 12.8465 14.9412 13.0887 15.1471 13.2824C14.8565 13.9848 15.1834 14.784 15.8858 15.0746C16.1401 15.1836 16.4307 15.2078 16.6971 15.1473L17.0725 15.0625C17.3994 14.9898 17.5932 14.6629 17.5205 14.348C17.4721 14.0453 17.1694 13.8516 16.8424 13.9121Z" fill="black"/>
<path d="M20.366 10.8604H19.9785C19.8816 10.8604 19.7969 10.7878 19.7969 10.6909C19.7969 10.594 19.8695 10.5093 19.9664 10.5093H19.9785H20.366C20.693 10.4972 20.9594 10.2308 20.9473 9.90381C20.9352 9.57686 20.6809 9.32256 20.3539 9.32256H19.9664C19.8695 9.32256 19.7848 9.2499 19.7848 9.15303C19.7848 9.05615 19.8574 8.97139 19.9543 8.97139H19.9664H20.3539C20.6809 8.95928 20.9473 8.69287 20.9352 8.36592C20.923 8.03897 20.6687 7.78467 20.3418 7.78467H19.9543C19.1914 7.78467 18.5859 8.40225 18.5859 9.16514C18.5859 9.44365 18.6707 9.71006 18.8281 9.94014C18.4043 10.5698 18.5617 11.4175 19.1914 11.8534C19.4215 12.0108 19.7 12.0956 19.9785 12.0956H20.366C20.693 12.0835 20.9594 11.8171 20.9473 11.4901C20.9473 11.1147 20.693 10.8604 20.366 10.8604Z" fill="black"/>
<path d="M24.5804 9.04404H24.1929C24.096 9.04404 24.0112 8.97139 24.0112 8.87451C24.0112 8.77764 24.0839 8.69287 24.1808 8.69287H24.1929H24.5804C24.9073 8.68076 25.1737 8.41436 25.1616 8.0874C25.1495 7.76045 24.8952 7.50615 24.5683 7.50615H24.1808C24.0839 7.50615 23.9991 7.4335 23.9991 7.33662C23.9991 7.23975 24.0718 7.15498 24.1687 7.15498H24.1808H24.5683C24.8952 7.14287 25.1616 6.87647 25.1495 6.54951C25.1374 6.22256 24.8831 5.96826 24.5562 5.96826H24.1687C23.4058 5.96826 22.8003 6.58584 22.8003 7.34873C22.8003 7.62725 22.8851 7.89365 23.0425 8.12373C22.6187 8.75342 22.7761 9.60107 23.4058 10.037C23.6358 10.1944 23.9144 10.2792 24.1929 10.2792H24.5804C24.9073 10.2671 25.1737 10.0007 25.1616 9.67373C25.1737 9.31045 24.9073 9.05615 24.5804 9.04404Z" fill="black"/>
<path d="M31.1675 7.17932L30.8042 7.04612C30.0898 6.79182 29.3027 7.1551 29.0484 7.86955C28.9515 8.13596 28.9394 8.41448 29.012 8.68088C28.3945 9.11682 28.2491 9.97659 28.6972 10.5942C28.8546 10.8242 29.0847 10.9938 29.3511 11.0907L29.7144 11.2239C30.0292 11.3328 30.3683 11.1633 30.4773 10.8485C30.5862 10.5457 30.4288 10.2067 30.1261 10.0977L29.7628 9.96448C29.6659 9.92815 29.6175 9.83127 29.6538 9.7344C29.6902 9.63752 29.787 9.58909 29.8839 9.62541H29.896L30.2593 9.75862C30.5741 9.8676 30.9132 9.69807 31.0222 9.38323C31.1312 9.08049 30.9737 8.74143 30.671 8.63245L30.3077 8.49924C30.2109 8.46291 30.1624 8.36604 30.1988 8.26916C30.2351 8.17229 30.332 8.12385 30.4288 8.16018H30.4409L30.8042 8.29338C31.1191 8.40237 31.4581 8.23284 31.5671 7.91799C31.6277 7.62737 31.4702 7.2883 31.1675 7.17932Z" fill="black"/>
<path d="M58.9587 14.0937H58.7892C58.1716 14.0937 57.6388 14.4449 57.3845 14.9656C56.8396 14.7719 56.1493 14.2512 55.4954 13.5488C55.229 13.2582 54.9263 12.9918 54.6115 12.7617C54.1997 12.4711 52.1411 10.9211 51.7779 9.27421C51.681 8.86249 51.3904 8.70507 51.1482 8.68085C50.8697 8.66874 50.6638 8.78984 50.4579 9.05624L50.5548 8.06327C50.6396 7.10663 50.0825 6.18632 49.1743 5.84726L48.6415 5.6414C48.2177 5.48398 47.9755 5.03593 48.0482 4.58788C48.2419 3.43749 47.5033 2.35976 46.365 2.11757L45.0935 1.85116C44.7665 1.77851 44.4396 1.98437 44.379 2.32343C44.3185 2.66249 44.5122 2.97734 44.8513 3.03788L46.1228 3.30429C46.6193 3.41327 46.9462 3.88554 46.8615 4.39413C46.6919 5.39921 47.2611 6.40429 48.2177 6.76757L48.7505 6.97343C49.1501 7.13085 49.3923 7.53046 49.356 7.95429L49.1138 10.6184H49.029C48.2177 10.5699 47.4669 10.8969 46.9704 11.466C46.256 9.81913 44.6333 8.69296 42.8048 8.69296H42.2962C42.2478 8.6082 42.1872 8.47499 42.1146 8.26913C41.3759 6.36796 39.4626 5.19335 37.4525 5.42343C37.1255 5.45976 36.8833 5.76249 36.9197 6.08945C36.956 6.4164 37.2587 6.65859 37.5857 6.62226C39.0509 6.45273 40.4435 7.31249 40.9884 8.70507C41.2185 9.31054 41.497 9.9039 42.054 9.9039H42.8048C42.8532 9.9039 42.9017 9.9039 42.9501 9.91601C42.8532 9.96445 42.7685 10.0492 42.72 10.1461C42.6958 10.1824 42.5505 10.4488 42.4294 10.8484C40.8794 10.0976 37.7189 8.47499 35.7814 7.45781C35.5513 6.25898 34.9943 3.7039 32.8872 2.45663C32.7419 2.37187 32.5603 2.34765 32.4029 2.39609C32.2333 2.44452 32.1001 2.56562 32.0396 2.72304L31.9306 2.95312C31.4825 2.11757 30.6954 1.33046 29.424 1.1246C29.2423 1.10038 29.0607 1.14882 28.9275 1.26991C28.7943 1.39101 28.7216 1.56054 28.7216 1.74218L28.7337 1.93593C28.4915 1.75429 28.2251 1.56054 27.9224 1.39101C26.324 0.446477 24.6771 0.228508 23.1513 0.749211C22.9333 0.821867 22.7759 1.00351 22.7517 1.23359C22.7275 1.46366 22.8122 1.68163 22.9939 1.81484C23.006 1.82695 24.12 2.63827 25.2462 3.5707C23.9868 3.64335 22.8607 3.71601 21.6982 4.00663C20.5599 4.28515 19.4458 4.70898 18.3923 5.2539C16.3216 6.2953 14.5052 7.8453 13.1368 9.72226C12.6404 10.4004 12.2165 11.1027 11.8411 11.8414C11.3325 11.8172 10.4486 11.8535 9.41926 12.2047C7.97825 12.7012 5.94387 13.9363 4.49075 17C4.36966 17.2664 4.44231 17.5812 4.6845 17.7508C4.92669 17.9203 5.25364 17.8961 5.4595 17.6781C5.47161 17.666 6.13762 17.0242 7.34856 17.3512C6.3677 18.1141 5.03567 19.6156 4.90247 22.1344C4.89036 22.3402 4.97512 22.5219 5.14466 22.643C5.30208 22.7641 5.50794 22.8004 5.70169 22.7398L7.44544 22.1586C6.99739 23.3453 6.51301 25.3676 6.51301 28.4918C6.51301 28.7461 6.68255 28.9762 6.92473 29.0609C7.16692 29.1457 7.44544 29.0609 7.60286 28.8672L9.15286 26.8934C9.34661 28.407 9.96419 30.5988 11.8411 32.0883C11.9501 32.173 12.0833 32.2215 12.2165 32.2215C12.3013 32.2215 12.3982 32.1973 12.4829 32.1609C12.6888 32.0641 12.822 31.8461 12.822 31.616V29.957C13.9482 30.9137 15.922 32.0883 18.5013 31.8582C20.5841 32.9238 22.9454 33.5293 25.44 33.5293H39.1599C42.7322 33.5293 45.7716 36.4961 45.7837 40.0078C45.7958 42.248 44.7302 44.2461 42.8532 45.4812C40.9884 46.7043 38.7482 46.9101 36.7017 46.0262L27.0384 41.8848C28.2372 40.6133 29.6177 39.7535 31.2404 39.2934C31.1677 40.9281 31.7247 43.4711 34.3404 44.2703C34.522 44.3187 34.7036 44.2945 34.8611 44.1855C35.0185 44.0766 35.1032 43.907 35.1154 43.7254V43.6648L35.2001 43.7496C35.854 44.3308 36.7017 44.6094 37.731 44.6094C37.8521 44.6094 37.9853 44.6094 38.1185 44.5973C38.3243 44.5851 38.506 44.4762 38.6029 44.2945C38.6997 44.1129 38.7118 43.907 38.615 43.7254L38.5302 43.5559C38.6876 43.568 38.8572 43.5801 39.0388 43.5801C40.0439 43.568 41.497 43.2168 42.7443 41.6184C43.3618 40.8191 43.5919 39.8262 43.374 38.9058C43.3255 38.7 43.1681 38.5305 42.9622 38.4699C42.7564 38.4094 42.5263 38.4578 42.3689 38.6152C41.4849 39.4508 39.838 40.6012 39.1599 40.4195C39.0993 40.4074 38.9661 40.3711 38.8572 40.032C38.8329 39.9351 38.8329 39.8867 38.8329 39.8625C38.8935 39.8019 39.172 39.7414 39.5837 39.7898C39.5958 39.7898 39.62 39.7898 39.6322 39.8019C39.9591 39.8383 40.2497 39.6082 40.2982 39.2812C40.3103 39.1723 40.2982 39.0754 40.2618 38.9785C40.2255 38.8574 40.1044 38.3851 40.0197 38.034C39.838 37.3195 39.7775 37.0773 39.7533 36.9926C39.3657 35.8543 38.4333 35.043 37.1497 34.6918C34.849 34.0863 32.7419 35.5637 31.7611 37.2105C31.6884 37.3316 31.6279 37.4527 31.5673 37.5738C28.322 37.6949 25.6458 38.8453 23.4661 40.3832L20.3177 39.0391C19.9907 38.7363 18.7314 37.5738 17.1693 36.4113C14.699 34.5828 12.7251 33.6867 11.3325 33.7836C11.1267 33.7957 10.945 33.9047 10.8482 34.0863C10.7513 34.268 10.7392 34.4738 10.8361 34.6555L11.0419 35.0793C9.73411 34.7523 7.73606 34.498 5.99231 35.2488C5.78645 35.3457 5.64114 35.5394 5.62903 35.7695C5.61692 35.9996 5.73801 36.2176 5.93177 36.3266L6.86419 36.8594C5.54426 37.4648 3.50989 38.6637 2.68645 40.5648C2.60169 40.7707 2.62591 41.0129 2.77122 41.1824C2.91653 41.3519 3.1345 41.4367 3.35247 41.4004L3.67942 41.3398C2.57747 42.3449 1.30598 43.8344 0.506765 45.8687C0.421999 46.0988 0.470437 46.3531 0.652077 46.5226C0.833718 46.6922 1.08801 46.7406 1.31809 46.6437L3.11028 45.8566C2.58958 47.5762 2.34739 50.6641 4.91458 54.5996C5.03567 54.7812 5.24153 54.8902 5.4595 54.8781C5.67747 54.866 5.87122 54.7328 5.96809 54.5391L6.19817 54.0547C6.98528 55.5926 8.70481 58.0266 11.7685 58.3172H11.829C12.0107 58.3172 12.1802 58.2445 12.2892 58.0992C12.4224 57.9418 12.4587 57.7359 12.4103 57.5543L11.8532 55.5199C12.8341 55.859 13.8755 56.0406 14.9048 56.0406C15.0259 56.0406 15.147 56.0406 15.2681 56.0285C18.356 55.9074 21.1532 53.9336 22.4005 51.0031C22.6306 50.4703 22.8607 49.8527 23.1029 49.1988C23.1513 49.0777 23.1997 48.9566 23.2361 48.8234C25.0525 49.9254 26.9536 50.8941 28.9032 51.7297L33.4079 53.6672C35.2849 54.4785 37.2708 54.866 39.2568 54.866C42.1146 54.866 44.9482 54.0426 47.4064 52.4199C51.6204 49.6469 54.115 44.9726 54.0665 39.923C54.0544 38.2277 53.7517 36.5687 53.1583 34.9824C53.2068 34.9582 53.2552 34.9219 53.3036 34.8976C53.3036 34.8976 53.3158 34.8855 53.3279 34.8855C53.7154 34.6918 54.1634 34.6555 54.5751 34.7887C54.999 34.934 55.338 35.2246 55.5439 35.6242L55.6771 35.9027C55.7861 36.1086 55.9919 36.2418 56.222 36.2418C56.2825 36.2418 56.3431 36.2297 56.3915 36.2176C56.67 36.1328 56.8517 35.8543 56.8154 35.5637L56.8032 35.4547C56.9001 35.6242 57.0697 35.7453 57.2755 35.7695C57.5298 35.7937 57.7841 35.6605 57.8931 35.4184C57.9173 35.3699 58.1111 34.9219 58.1595 34.3285C58.2322 33.4809 57.9657 32.7422 57.3845 32.2094C56.6337 31.5191 55.6286 31.1559 54.4782 31.168C53.4732 31.1801 52.6255 31.4707 51.8142 31.7613C51.7173 31.7976 51.6325 31.8219 51.5357 31.8582C50.2279 29.9328 48.472 28.3223 46.4255 27.1719C44.1732 25.9125 41.6302 25.2465 39.0388 25.2465H25.2341C24.6892 25.2465 24.1685 25.1859 23.6478 25.0527C23.6962 25.0164 23.7447 24.9801 23.7931 24.9437C24.447 24.4594 25.0646 23.9871 25.7427 23.6723C26.9415 23.1031 28.4673 22.5219 29.6904 23.0668C29.8841 23.1516 30.0536 23.2848 30.2111 23.4543L31.1193 24.4715C31.2767 24.6531 31.531 24.7137 31.7611 24.641C31.9911 24.5684 32.1486 24.3625 32.1728 24.1203L32.2454 23.2848C32.2454 23.2726 32.2454 23.2726 32.2575 23.2726H32.2697L33.2021 23.8297C33.42 23.9508 33.6865 23.9387 33.8802 23.7934C34.074 23.648 34.1587 23.3937 34.0982 23.1516L33.965 22.6672C33.965 22.6672 33.9771 22.6551 33.9892 22.6551L34.9216 23.1273C35.1759 23.2484 35.4786 23.1879 35.6603 22.9699C35.8419 22.7519 35.8419 22.4371 35.6724 22.2191L34.4614 20.6449C34.4493 20.6328 34.4372 20.6086 34.4251 20.5965C33.2626 19.3734 32.5361 19.0101 31.5068 18.7437C30.0173 18.3562 28.5036 18.659 27.4986 18.9254C26.2392 19.2523 24.9435 19.7367 23.4056 20.4633C22.013 21.1172 20.4993 21.323 19.0341 21.093C18.695 20.2453 18.5255 19.3492 18.5497 18.4289C18.6345 14.8203 21.6861 11.8898 25.3431 11.8898C26.5661 11.8898 27.8497 12.1441 29.4966 12.7375C29.8841 12.8707 30.2716 13.0281 30.647 13.1734C31.1193 13.3551 31.5915 13.5488 32.088 13.7062C32.0517 13.8152 32.0032 13.9484 31.9185 14.0937C31.5915 14.6387 30.9255 15.0383 29.981 15.2441C29.7388 15.2926 29.5572 15.4863 29.5087 15.7285C29.4603 15.9707 29.5693 16.2129 29.7872 16.3461C30.6228 16.8789 32.3544 17.4117 33.9165 16.4793C33.8318 16.8547 33.6622 17.1937 33.3595 17.3633C33.1536 17.4844 33.0325 17.7023 33.0447 17.9445C33.0689 18.1867 33.2142 18.3805 33.4443 18.4652C33.529 18.4894 35.297 19.1191 37.0286 17.993C38.0943 19.5793 39.8017 20.8508 41.2548 21.4199C43.4345 22.2676 45.4204 21.759 47.3458 21.2504C47.8665 21.1172 48.3993 20.9719 48.92 20.8629C50.5064 20.5359 52.7103 20.2332 53.8849 21.3109L54.1392 23.1273C54.1634 23.3211 54.2845 23.4785 54.4419 23.5754C54.6115 23.6723 54.8173 23.6723 54.9868 23.5996C55.0353 23.5754 55.9193 23.1637 56.3431 22.2555C56.4884 22.4734 56.5853 22.7156 56.5247 22.9578C56.4642 23.2242 56.5974 23.5148 56.8396 23.6359C56.9243 23.6844 57.0212 23.6965 57.106 23.6965C57.2755 23.6965 57.445 23.6238 57.5661 23.4785C57.6146 23.4301 58.4501 22.4008 58.0384 20.9476H58.9103C59.2493 20.9476 59.5158 20.6812 59.5158 20.3422V18.5984C59.5158 18.4168 59.4431 18.2594 59.3099 18.1383C59.1767 18.0293 58.995 17.9687 58.8255 17.993C58.7892 17.993 55.4228 18.4894 52.8072 18.0051C53.8001 17.5449 55.6165 17.1211 58.547 17.8234C59.0193 17.9324 59.5036 17.8234 59.879 17.5328C60.2544 17.2301 60.4724 16.782 60.4724 16.2976V15.7164C60.5208 14.7961 59.8185 14.0937 58.9587 14.0937ZM32.4634 38.8937L32.4755 38.7242C32.5118 38.3973 32.6208 38.0945 32.7782 37.816C33.5411 36.5566 35.1275 35.3941 36.8228 35.8422C37.4525 36.0117 38.2638 36.4113 38.5907 37.3559C38.615 37.4406 38.7361 37.9371 38.8329 38.3004C38.8572 38.3973 38.8814 38.482 38.8935 38.5668C38.5302 38.6152 38.1548 38.7484 37.8884 39.0512C37.7189 39.2449 37.4646 39.6687 37.6704 40.359C37.9126 41.1703 38.4333 41.4609 38.8087 41.5578C39.8017 41.8242 41.0974 41.0855 42.0298 40.4074C41.9572 40.5648 41.8724 40.7101 41.7634 40.8555C39.9712 43.1562 37.731 42.1269 37.6462 42.0906C37.4161 41.9816 37.1376 42.0301 36.956 42.2117C36.7743 42.3933 36.7259 42.6719 36.847 42.9141L37.0529 43.3258C35.406 42.9988 35.2486 41.5094 35.2365 41.3277C35.2243 41.0129 34.9579 40.7586 34.631 40.7586C34.3161 40.7586 34.0497 41.0008 34.0255 41.3277L33.9286 42.793C32.0638 41.6789 32.4513 39.0269 32.4634 38.8937ZM45.8079 11.9262C45.1419 11.7324 44.5607 11.3449 44.1611 10.8363C44.0036 10.6305 43.8825 10.4246 43.7978 10.2187C43.7736 10.1461 43.7251 10.0734 43.6767 10.0129C44.6333 10.2914 45.4325 10.9937 45.8079 11.9262ZM24.8224 1.66952C25.6095 1.66952 26.4329 1.92382 27.2685 2.4082C28.2736 3.00155 28.9275 3.72812 28.9396 3.74023C29.1091 3.93398 29.3755 3.99452 29.6177 3.90976C29.8599 3.81288 30.0052 3.5828 29.9931 3.3164L29.9568 2.55351C31.0587 3.17109 31.2161 4.59999 31.2161 4.66054C31.2404 4.93905 31.4462 5.15702 31.7126 5.20546C31.979 5.2539 32.2575 5.10859 32.3665 4.85429L32.8146 3.87343C33.6622 4.63632 34.1103 5.75038 34.3525 6.6707C34.3404 6.6707 34.3404 6.65859 34.3283 6.65859C33.299 6.07734 32.1243 5.5203 30.6349 4.91484L30.4169 4.83007C29.4361 4.43046 28.3704 4.00663 27.2806 3.75234C26.5298 3.03788 25.5611 2.25077 24.8224 1.66952ZM12.6888 28.1406C12.5314 27.9348 12.265 27.85 12.0107 27.9348C11.7564 28.0195 11.599 28.2496 11.599 28.5039V30.1266C10.0974 28.0559 10.2669 25.3191 10.2669 25.2949C10.2911 25.0285 10.1337 24.7863 9.87942 24.6894C9.62512 24.5926 9.34661 24.6773 9.18919 24.8832L7.7845 26.6875C7.90559 25.0043 8.172 23.8297 8.41419 23.0789C8.75325 22.0012 9.09231 21.541 9.09231 21.541C9.26184 21.3351 9.27395 21.0324 9.11653 20.8144C8.95911 20.5965 8.68059 20.4996 8.4263 20.5844L6.2345 21.323C6.76731 18.8406 8.77747 17.884 8.87434 17.8477C9.0802 17.7508 9.21341 17.557 9.22552 17.3269C9.23762 17.0969 9.12864 16.891 8.93489 16.7699C7.94192 16.1766 7.09426 16.0312 6.41614 16.0918C8.11145 13.6215 10.1822 13.1371 11.3083 13.0766C10.824 14.2875 10.5091 15.559 10.3638 16.8668C10.2911 17.4601 10.2669 18.0535 10.2669 18.6469C10.2911 23.4664 12.6404 27.7652 16.2611 30.4898C14.0572 29.8601 12.7009 28.1648 12.6888 28.1406ZM6.80364 52.4199C6.73098 52.1898 6.51301 52.0203 6.27083 51.9961C6.02864 51.984 5.78645 52.1172 5.67747 52.3351L5.35051 53.0012C2.68645 48.1816 4.67239 45.1422 4.76926 45.009C4.92669 44.791 4.91458 44.4883 4.74505 44.2824C4.57551 44.0766 4.28489 44.0039 4.03059 44.1129L2.33528 44.8637C3.98216 42.0785 6.47669 40.7828 6.50091 40.7707C6.76731 40.6375 6.90052 40.3226 6.80364 40.032C6.70677 39.7414 6.41614 39.5719 6.11341 39.6324L4.50286 39.9351C5.91966 38.3246 8.40208 37.5375 8.4263 37.5254C8.65637 37.4527 8.82591 37.259 8.85012 37.0168C8.87434 36.7746 8.76536 36.5445 8.54739 36.4234L7.79661 35.9875C9.84309 35.7453 11.9501 36.6051 11.9743 36.6172C12.2044 36.7141 12.4829 36.6535 12.6525 36.4719C12.822 36.2902 12.8704 36.0117 12.7493 35.7816L12.3982 35.0914C13.7423 35.4789 15.4497 36.593 16.9029 37.707C14.5658 37.1742 12.0954 37.5738 10.0005 38.8695C7.11848 40.6496 5.43528 43.8707 5.61692 47.2613C5.78645 50.434 7.61497 53.3281 10.388 54.8539L10.9572 56.9125C8.00247 56.0527 6.81575 52.4562 6.80364 52.4199ZM21.9525 48.775C21.7103 49.4168 21.4923 50.0223 21.2743 50.5308C20.2087 53.0375 17.8232 54.7207 15.2075 54.8176C15.0986 54.8176 15.0017 54.8297 14.8927 54.8297C13.597 54.8297 12.3618 54.5269 11.1993 53.9336C8.66848 52.6379 6.99739 50.0707 6.83997 47.225C6.68255 44.2219 8.09934 41.4973 10.6423 39.923C12.9915 38.4699 15.8857 38.3246 18.3802 39.5234C18.3923 39.5234 18.3923 39.5355 18.4044 39.5355L22.3521 41.2309C21.0443 42.3086 19.9423 43.4953 19.022 44.6336L16.6365 43.0715C16.0794 42.6598 15.474 42.4055 14.8443 42.2965C13.8755 42.1269 13.04 42.3449 12.5193 42.5629C11.6958 42.9019 10.2427 43.7617 9.89153 45.8082C9.57669 47.6004 10.2911 49.1867 11.829 50.1555C12.3618 50.4945 13.1611 50.8578 14.1419 50.8578C14.263 50.8578 14.3962 50.8578 14.5294 50.8336C15.5708 50.7246 16.5275 50.1555 17.1693 49.2715C17.3388 49.0293 17.5325 48.7508 17.7505 48.4359C18.247 47.7094 18.8646 46.8012 19.6275 45.8324C19.6396 45.8203 19.6517 45.8082 19.6638 45.7961C21.5771 43.3621 24.3501 40.5769 28.1767 39.3781C27.2079 39.9957 26.324 40.7949 25.549 41.7516C23.7447 43.9434 22.7517 46.6195 21.9525 48.775ZM18.2833 45.5781C17.6779 46.3773 17.1693 47.1281 16.7454 47.7457C16.5275 48.0605 16.3458 48.3269 16.1763 48.557C15.7404 49.1625 15.0865 49.55 14.3962 49.6226C13.5849 49.7074 12.8947 49.3926 12.4708 49.1141C11.6837 48.6176 10.7997 47.6609 11.0904 45.9898C11.3325 44.5973 12.2529 43.9555 12.9794 43.6648C13.27 43.5437 13.6818 43.4348 14.1661 43.4348C14.3236 43.4348 14.481 43.4469 14.6505 43.4711C15.0986 43.5437 15.5466 43.7375 15.9462 44.0402C15.9583 44.0523 15.9704 44.0523 15.9704 44.0644L18.2833 45.5781ZM37.4404 16.0676C37.3314 15.7527 36.9802 15.5832 36.6654 15.6922C36.3505 15.8012 36.181 16.1523 36.29 16.4672C36.3384 16.6125 36.3989 16.7578 36.4595 16.891C35.9025 17.2664 35.3212 17.3875 34.8611 17.4117C35.3697 16.3703 35.188 15.0504 35.1759 14.9777C35.1396 14.7355 34.97 14.5418 34.74 14.4812C34.5099 14.4207 34.2556 14.5055 34.1103 14.6871C33.4079 15.5711 32.5966 15.7891 31.9185 15.7527C32.4997 15.3894 32.8388 14.9535 33.0325 14.6023C33.42 13.9 33.3837 13.2824 33.3716 13.2098C33.3474 12.9555 33.1779 12.7496 32.9357 12.6769C32.3181 12.4953 31.7247 12.2652 31.095 12.023C30.7075 11.8777 30.3079 11.7203 29.9083 11.575C28.7943 11.1875 27.1232 10.6668 25.3431 10.6668C23.2482 10.6668 21.2743 11.466 19.7607 12.907C18.247 14.3601 17.3751 16.3098 17.3267 18.3926C17.3025 19.1918 17.4115 19.9789 17.6294 20.7297L16.1279 20.2332C15.813 20.1242 15.474 20.3059 15.365 20.6207C15.256 20.9355 15.4376 21.2746 15.7525 21.3836L17.4962 21.9527C19.6033 22.643 21.8798 22.5098 23.9263 21.5531C25.4036 20.8629 26.6388 20.4027 27.8134 20.0879C29.206 19.7246 30.2958 19.6641 31.2161 19.9062C31.9669 20.1 32.4997 20.2937 33.5411 21.3957L33.6138 21.4926C33.4685 21.541 33.3353 21.6137 33.2142 21.7105C33.0568 21.8437 32.9236 22.0133 32.8509 22.1949C32.4997 22.0012 32.0759 22.0012 31.7126 22.1949C31.4825 22.316 31.3009 22.4977 31.1919 22.7156L31.1314 22.6551C30.865 22.3523 30.5501 22.1223 30.199 21.9648C28.5279 21.2262 26.663 21.9043 25.2341 22.5824C24.447 22.9578 23.7447 23.4785 23.0786 23.9871C22.1825 24.6531 21.3349 25.2949 20.354 25.5371C19.0704 25.8641 17.5931 25.4281 16.697 24.4473C16.4669 24.2051 16.0915 24.1809 15.8372 24.4109C15.595 24.641 15.5708 25.0164 15.8009 25.2707C16.7333 26.2879 18.1138 26.8691 19.4943 26.8691C19.8818 26.8691 20.2693 26.8207 20.6447 26.7238C21.2865 26.5664 21.8556 26.2879 22.3884 25.9488C23.2966 26.3 24.2411 26.4816 25.222 26.4816H39.0267C41.4001 26.4816 43.7493 27.0871 45.82 28.2496C47.5759 29.2305 49.1017 30.5867 50.2642 32.1973C49.1138 32.2699 47.8544 31.6644 47.249 30.6836C47.0794 30.393 46.704 30.3082 46.4134 30.4777C46.1228 30.6473 46.038 31.0226 46.2075 31.3133C47.1884 32.9117 49.356 33.7715 51.1482 33.2629C51.5115 33.1539 51.8626 33.0328 52.2017 32.9238C52.9525 32.6574 53.6669 32.4031 54.4782 32.4031C55.0595 32.391 55.895 32.5242 56.549 33.1297C56.7064 33.275 56.8154 33.4445 56.8759 33.6141C56.6458 33.4082 56.44 33.2387 56.3189 33.1539C56.1251 33.0086 55.8587 32.9965 55.6529 33.1176C55.447 33.2387 55.3259 33.4809 55.3501 33.7109L55.3622 33.8441C55.229 33.7715 55.0837 33.7109 54.9384 33.6625C54.2118 33.4203 53.4368 33.4809 52.7587 33.8199C52.7103 33.8441 52.6861 33.8562 52.6861 33.8562C52.674 33.8562 52.674 33.8684 52.6618 33.8684C48.7626 36.2902 46.704 33.3234 46.6193 33.1902C46.4376 32.9117 46.0622 32.8391 45.7837 33.0207C45.5052 33.2023 45.4204 33.5777 45.6142 33.8562C45.6384 33.8926 47.9271 37.2711 52.0564 35.5516C52.565 36.9562 52.8314 38.4336 52.8435 39.9473C52.8798 44.5851 50.6032 48.8719 46.7282 51.4269C42.9017 53.9457 38.0943 54.3816 33.8681 52.5773L29.3634 50.6398C27.4017 49.7922 25.4763 48.8113 23.6599 47.6851C24.2896 46.0988 25.0646 44.3793 26.1908 42.8777L36.1931 47.1644C37.1982 47.5883 38.2275 47.8062 39.2568 47.8062C40.7341 47.8062 42.1872 47.3703 43.4829 46.5105C45.7111 45.0453 46.9704 42.684 46.9583 40.0199C46.9462 37.9855 46.1107 36.048 44.6091 34.5949C43.1197 33.1418 41.17 32.3426 39.1236 32.3426H25.4279C17.7747 32.3426 11.5142 26.191 11.4779 18.6348C11.4779 18.0898 11.5021 17.5328 11.5626 16.9879C11.829 14.6266 12.713 12.3742 14.1177 10.4488C15.3771 8.72929 17.0361 7.30038 18.9251 6.31952C19.8939 5.82304 20.9111 5.43554 21.9646 5.18124C23.0181 4.92695 24.0595 4.85429 25.2947 4.78163C26.8204 4.69687 28.4915 5.37499 29.981 5.98046L30.199 6.06523C31.64 6.64648 32.7661 7.17929 33.747 7.73632C34.7521 8.30546 40.3466 11.2117 42.272 12.1199C42.2841 12.4953 42.3568 12.8707 42.49 13.234C41.7634 13.1855 40.7825 12.9555 40.2739 12.1441C40.1286 11.9141 39.8622 11.8051 39.6079 11.8777C39.3536 11.9504 39.172 12.1805 39.1599 12.4469C39.1478 12.8344 39.0872 15.5469 39.9712 17.2664C38.8693 17.0848 37.6825 16.7457 37.4404 16.0676ZM59.3341 16.2492H59.3099C59.3099 16.3945 59.2251 16.4914 59.1767 16.5277C59.1282 16.5641 59.0193 16.6246 58.874 16.5883C53.2673 15.2441 51.0634 17.6902 50.9786 17.7992C50.8454 17.9445 50.797 18.1504 50.8454 18.3441C50.8939 18.5379 51.0392 18.6953 51.2208 18.768C53.5095 19.6277 56.9001 19.3855 58.3532 19.2402V19.7004H57.1544C56.9365 19.7004 56.7306 19.8215 56.6216 20.0152C56.5126 20.209 56.5247 20.4391 56.6458 20.6328C56.6943 20.7055 56.7306 20.7781 56.7669 20.8387C56.5247 20.6328 56.3431 20.4996 56.3189 20.4875C56.1251 20.3664 55.8708 20.3664 55.6771 20.4875C55.4833 20.6086 55.3743 20.8387 55.3986 21.0687C55.4349 21.3715 55.3501 21.6258 55.2411 21.8195L55.12 20.9113C55.1079 20.7902 55.0474 20.6691 54.9626 20.5844C54.0665 19.6156 52.7708 19.3129 51.463 19.3129C50.5064 19.3129 49.5497 19.4703 48.7263 19.6398C48.1693 19.7609 47.6243 19.8941 47.0915 20.0394C45.2751 20.5117 43.5556 20.9598 41.7513 20.2574C40.722 19.8578 39.7048 19.1312 38.8935 18.2715C40.0681 18.55 41.2306 18.5379 41.4607 18.5379C41.7513 18.5258 41.9814 18.332 42.0419 18.0535C42.0904 17.775 41.945 17.4965 41.6908 17.3875C40.9279 17.0605 40.5404 15.4258 40.4314 13.8758C41.7997 14.6508 43.495 14.4328 43.5798 14.4207C43.7857 14.3965 43.9673 14.2512 44.0521 14.0574C44.1368 13.8637 44.1126 13.6457 43.9915 13.4641C43.6525 12.9797 43.495 12.459 43.5072 11.9019C44.0642 12.4832 44.7786 12.907 45.59 13.125L46.8009 13.4519C46.9704 13.5004 47.14 13.4641 47.2853 13.3793C47.4306 13.2824 47.5275 13.1371 47.5517 12.9676C47.6486 12.2894 48.254 11.8051 48.9443 11.8414L50.0704 11.9141C50.3368 11.9262 50.579 11.7687 50.6759 11.5144C50.7849 11.2359 50.906 10.9211 51.0271 10.6426C51.8263 12.1684 53.3884 13.3793 53.9333 13.7668C54.1876 13.9484 54.4177 14.1543 54.6357 14.3844C55.1564 14.9535 56.5247 16.2855 57.8568 16.2855C58.1958 16.2855 58.4622 16.0191 58.4622 15.6801C58.4622 15.4863 58.6197 15.3289 58.8134 15.3289H58.9829C59.1767 15.3289 59.3341 15.4863 59.3341 15.6801V16.2492Z" fill="black"/>
</svg>
