<svg width="21" height="31" viewBox="0 0 21 31" fill="none" xmlns="http://www.w3.org/2000/svg">
<g clip-path="url(#clip0)">
<path d="M5.47716 30.6977C8.18304 30.6977 10.3791 28.5016 10.3791 25.7958V20.8938H5.47716C2.77127 20.8938 0.575195 23.0899 0.575195 25.7958C0.575195 28.5016 2.77127 30.6977 5.47716 30.6977Z" fill="#0ACF83"/>
<path d="M0.575195 15.9918C0.575195 13.286 2.77127 11.0899 5.47716 11.0899H10.3791V20.8938H5.47716C2.77127 20.8938 0.575195 18.6977 0.575195 15.9918Z" fill="#A259FF"/>
<path d="M0.575195 6.18791C0.575195 3.48203 2.77127 1.28595 5.47716 1.28595H10.3791V11.0899H5.47716C2.77127 11.0899 0.575195 8.89379 0.575195 6.18791Z" fill="#F24E1E"/>
<path d="M10.3789 1.28595H15.2809C17.9868 1.28595 20.1828 3.48203 20.1828 6.18791C20.1828 8.89379 17.9868 11.0899 15.2809 11.0899H10.3789V1.28595Z" fill="#FF7262"/>
<path d="M20.1828 15.9918C20.1828 18.6977 17.9868 20.8938 15.2809 20.8938C12.575 20.8938 10.3789 18.6977 10.3789 15.9918C10.3789 13.286 12.575 11.0899 15.2809 11.0899C17.9868 11.0899 20.1828 13.286 20.1828 15.9918Z" fill="#1ABCFE"/>
</g>
<defs>
<clipPath id="clip0">
<rect width="20.5882" height="30" fill="white" transform="translate(0 0.991821)"/>
</clipPath>
</defs>
</svg>
