<svg width="16" height="15" viewBox="0 0 16 15" fill="none" xmlns="http://www.w3.org/2000/svg">
<g clip-path="url(#clip0)">
<path d="M10.7212 0.000244141H5.09619C2.50775 0.000244141 0.408691 2.09931 0.408691 4.68774V10.3127C0.408691 12.9012 2.50775 15.0002 5.09619 15.0002H10.7212C13.3096 15.0002 15.4087 12.9012 15.4087 10.3127V4.68774C15.4087 2.09931 13.3096 0.000244141 10.7212 0.000244141ZM14.0024 10.3127C14.0024 12.1221 12.5306 13.594 10.7212 13.594H5.09619C3.28682 13.594 1.81494 12.1221 1.81494 10.3127V4.68774C1.81494 2.87837 3.28682 1.40649 5.09619 1.40649H10.7212C12.5306 1.40649 14.0024 2.87837 14.0024 4.68774V10.3127Z" fill="url(#paint0_linear)"/>
<path d="M7.90869 3.75024C5.83775 3.75024 4.15869 5.42931 4.15869 7.50024C4.15869 9.57118 5.83775 11.2502 7.90869 11.2502C9.97963 11.2502 11.6587 9.57118 11.6587 7.50024C11.6587 5.42931 9.97963 3.75024 7.90869 3.75024ZM7.90869 9.84399C6.61682 9.84399 5.56494 8.79212 5.56494 7.50024C5.56494 6.20743 6.61682 5.15649 7.90869 5.15649C9.20057 5.15649 10.2524 6.20743 10.2524 7.50024C10.2524 8.79212 9.20057 9.84399 7.90869 9.84399Z" fill="url(#paint1_linear)"/>
<path d="M11.9401 3.96867C12.2161 3.96867 12.4398 3.74495 12.4398 3.46898C12.4398 3.19302 12.2161 2.9693 11.9401 2.9693C11.6641 2.9693 11.4404 3.19302 11.4404 3.46898C11.4404 3.74495 11.6641 3.96867 11.9401 3.96867Z" fill="url(#paint2_linear)"/>
</g>
<defs>
<linearGradient id="paint0_linear" x1="1.7818" y1="13.6272" x2="14.0356" y2="1.37326" gradientUnits="userSpaceOnUse">
<stop stop-color="#FFC107"/>
<stop offset="0.507" stop-color="#F44336"/>
<stop offset="0.99" stop-color="#9C27B0"/>
</linearGradient>
<linearGradient id="paint1_linear" x1="5.25711" y1="10.1518" x2="10.5603" y2="4.84867" gradientUnits="userSpaceOnUse">
<stop stop-color="#FFC107"/>
<stop offset="0.507" stop-color="#F44336"/>
<stop offset="0.99" stop-color="#9C27B0"/>
</linearGradient>
<linearGradient id="paint2_linear" x1="11.5868" y1="3.82237" x2="12.2934" y2="3.11568" gradientUnits="userSpaceOnUse">
<stop stop-color="#FFC107"/>
<stop offset="0.507" stop-color="#F44336"/>
<stop offset="0.99" stop-color="#9C27B0"/>
</linearGradient>
<clipPath id="clip0">
<rect width="15" height="15" fill="white" transform="translate(0.408691 0.000244141)"/>
</clipPath>
</defs>
</svg>
