<svg width="16" height="15" viewBox="0 0 16 15" fill="none" xmlns="http://www.w3.org/2000/svg">
<path d="M5.42132 5.81274H3.40869V12.0002H5.42132V5.81274Z" fill="#1976D2"/>
<path d="M10.9034 5.88531C10.8821 5.87856 10.8618 5.87124 10.8393 5.86506C10.8123 5.85887 10.7853 5.85381 10.7578 5.84931C10.6509 5.82793 10.5339 5.81274 10.3966 5.81274C9.22325 5.81274 8.47907 6.66606 8.23382 6.99568V5.81274H6.22119V12.0002H8.23382V8.62524C8.23382 8.62524 9.75482 6.50687 10.3966 8.06274C10.3966 9.45156 10.3966 12.0002 10.3966 12.0002H12.4087V7.82481C12.4087 6.88993 11.768 6.11087 10.9034 5.88531Z" fill="#1976D2"/>
<path d="M4.39307 4.96899C4.93672 4.96899 5.37744 4.52827 5.37744 3.98462C5.37744 3.44096 4.93672 3.00024 4.39307 3.00024C3.84941 3.00024 3.40869 3.44096 3.40869 3.98462C3.40869 4.52827 3.84941 4.96899 4.39307 4.96899Z" fill="#1976D2"/>
<rect x="1.15869" y="0.750244" width="13.5" height="13.5" rx="3.25" stroke="#1976D2" stroke-width="1.5"/>
</svg>
