<svg width="59" height="59" viewBox="0 0 59 59" fill="none" xmlns="http://www.w3.org/2000/svg">
<path d="M0.884766 49.3427L1.59226 49.3428V49.3427H0.884766ZM5.08144 42.6567L5.47727 43.2431L6.13859 42.7967L5.61628 42.1936L5.08144 42.6567ZM2.89344 28.3618L2.24964 28.0684L2.89344 28.3618ZM13.8335 21.3602L13.8528 22.0675L14.6713 22.045L14.5304 21.2384L13.8335 21.3602ZM27.8848 1.72517L27.8198 1.02066L27.8848 1.72517ZM42.9634 19.374L42.2601 19.2972L42.1607 20.2069L43.0661 20.074L42.9634 19.374ZM56.5725 27.4866L57.2397 27.2514L56.5725 27.4866ZM54.0927 42.6567L53.5256 42.2338L53.1114 42.7891L53.658 43.2149L54.0927 42.6567ZM57.4477 51.4088L58.1339 51.5811L57.4477 51.4088ZM17.0413 7.98321L16.4784 7.55468L17.0413 7.98321ZM27.8848 14.1506L28.512 13.8233C28.3901 13.5896 28.1483 13.4431 27.8848 13.4431C27.6212 13.4431 27.3795 13.5896 27.2576 13.8233L27.8848 14.1506ZM25.6967 18.3433L25.766 19.0474L26.1469 19.0099L26.3239 18.6707L25.6967 18.3433ZM21.0526 18.8005L20.9833 18.0965C20.7109 18.1233 20.4785 18.3048 20.3864 18.5625C20.2943 18.8202 20.3591 19.108 20.5528 19.3013L21.0526 18.8005ZM24.4884 22.2296L25.185 22.3531L25.2495 21.9896L24.9882 21.7288L24.4884 22.2296ZM23.6719 26.8343L22.9753 26.7108C22.9279 26.9783 23.0378 27.2494 23.2583 27.4083C23.4787 27.5671 23.7706 27.5857 24.0094 27.4562L23.6719 26.8343ZM27.8848 24.5483L28.2222 23.9264L27.8848 23.7433L27.5473 23.9264L27.8848 24.5483ZM30.0728 18.3433L29.4456 18.6707L29.6225 19.0095L30.0028 19.0474L30.0728 18.3433ZM34.669 18.8005L35.1723 19.2978C35.3639 19.1038 35.4271 18.817 35.3346 18.5605C35.2421 18.304 35.0104 18.1235 34.7391 18.0965L34.669 18.8005ZM31.2812 22.2296L30.7779 21.7324L30.5206 21.9927L30.5845 22.3531L31.2812 22.2296ZM32.0976 26.8343L31.7602 27.4562C31.999 27.5857 32.2909 27.5671 32.5113 27.4083C32.7317 27.2494 32.8417 26.9783 32.7942 26.7108L32.0976 26.8343ZM40.8966 8.95454L41.5139 8.60885L40.8966 8.95454ZM10.0411 57.5351C10.0925 56.8295 10.0928 56.8295 10.093 56.8295C10.093 56.8295 10.0932 56.8296 10.0932 56.8296C10.0933 56.8296 10.0933 56.8296 10.0931 56.8295C10.0928 56.8295 10.0919 56.8295 10.0904 56.8293C10.0876 56.8291 10.0826 56.8287 10.0755 56.8281C10.0614 56.8269 10.039 56.8249 10.0088 56.8218C9.94854 56.8158 9.85744 56.8058 9.73994 56.7903C9.50474 56.7594 9.16496 56.7068 8.75568 56.621C7.93396 56.4486 6.84832 56.1454 5.77097 55.6242C3.62554 54.5863 1.59216 52.7381 1.59226 49.3428L0.177269 49.3427C0.177146 53.4731 2.72195 55.7211 5.15476 56.898C6.36653 57.4842 7.57002 57.818 8.46515 58.0058C8.9143 58.1 9.28987 58.1583 9.55543 58.1932C9.68831 58.2107 9.79392 58.2224 9.86776 58.2298C9.90468 58.2335 9.93368 58.2361 9.9542 58.2379C9.96445 58.2388 9.97259 58.2394 9.97854 58.2399C9.98152 58.2401 9.98394 58.2403 9.98582 58.2405C9.98675 58.2405 9.98755 58.2406 9.9882 58.2407C9.98853 58.2407 9.98892 58.2407 9.98909 58.2407C9.98944 58.2407 9.98975 58.2408 10.0411 57.5351ZM1.59226 49.3427C1.59226 47.6698 2.50975 46.1613 3.51377 45.0227C4.00813 44.462 4.50429 44.013 4.87693 43.7045C5.06275 43.5506 5.21651 43.4328 5.32218 43.3545C5.37498 43.3154 5.41566 43.2863 5.44221 43.2676C5.45548 43.2582 5.4652 43.2514 5.47113 43.2474C5.4741 43.2453 5.47611 43.2439 5.47715 43.2432C5.47766 43.2429 5.47793 43.2427 5.47795 43.2427C5.47797 43.2427 5.47791 43.2427 5.4778 43.2428C5.47774 43.2428 5.47761 43.2429 5.47758 43.2429C5.47743 43.243 5.47727 43.2431 5.08144 42.6567C4.68562 42.0703 4.68542 42.0705 4.68521 42.0706C4.68512 42.0707 4.68489 42.0708 4.6847 42.0709C4.68433 42.0712 4.6839 42.0715 4.6834 42.0718C4.68241 42.0725 4.68116 42.0733 4.67966 42.0744C4.67665 42.0764 4.67265 42.0792 4.66767 42.0826C4.65772 42.0895 4.64389 42.0991 4.62642 42.1114C4.59149 42.1361 4.54201 42.1715 4.48005 42.2174C4.35621 42.3091 4.18212 42.4427 3.97449 42.6146C3.56025 42.9576 3.00725 43.4576 2.45244 44.0868C1.35812 45.3279 0.177269 47.1624 0.177269 49.3427H1.59226ZM5.08144 42.6567C5.61628 42.1936 5.61646 42.1938 5.61661 42.194C5.61664 42.194 5.61677 42.1942 5.61682 42.1942C5.61691 42.1943 5.61692 42.1943 5.61685 42.1942C5.6167 42.1941 5.61621 42.1935 5.61539 42.1925C5.61374 42.1906 5.61078 42.1871 5.60654 42.1821C5.59806 42.172 5.58451 42.1558 5.56634 42.1335C5.52999 42.089 5.47518 42.0204 5.40552 41.9292C5.26611 41.7468 5.06761 41.4741 4.83859 41.1218C4.37979 40.4161 3.80277 39.3976 3.33155 38.1506C2.39 35.6589 1.88091 32.2896 3.53723 28.6552L2.24964 28.0684C0.392076 32.1444 0.976986 35.9226 2.00791 38.6508C2.52293 40.0137 3.15176 41.1232 3.65226 41.8931C3.90289 42.2786 4.1224 42.5805 4.28109 42.7882C4.36047 42.8921 4.42473 42.9726 4.47019 43.0283C4.49292 43.0561 4.51096 43.0778 4.52385 43.0931C4.53029 43.1008 4.53545 43.1069 4.53926 43.1113C4.54117 43.1136 4.54274 43.1154 4.54396 43.1168C4.54458 43.1175 4.5451 43.1181 4.54554 43.1186C4.54577 43.1189 4.54603 43.1192 4.54614 43.1193C4.54638 43.1196 4.54661 43.1199 5.08144 42.6567ZM3.53723 28.6552C4.983 25.4828 7.53964 23.8359 9.77695 22.9765C10.8954 22.5469 11.9238 22.3187 12.6714 22.1984C13.0446 22.1383 13.346 22.1054 13.5514 22.0876C13.654 22.0787 13.7325 22.0736 13.7838 22.0707C13.8094 22.0693 13.8283 22.0684 13.8399 22.068C13.8457 22.0677 13.8497 22.0676 13.8519 22.0675C13.853 22.0675 13.8536 22.0674 13.8538 22.0674C13.8539 22.0674 13.8538 22.0674 13.8537 22.0674C13.8536 22.0674 13.8534 22.0674 13.8533 22.0674C13.8531 22.0675 13.8528 22.0675 13.8335 21.3602C13.8141 20.653 13.8138 20.653 13.8134 20.653C13.8132 20.653 13.8129 20.653 13.8125 20.653C13.8119 20.6531 13.8111 20.6531 13.8103 20.6531C13.8085 20.6532 13.8063 20.6532 13.8036 20.6533C13.7982 20.6535 13.7909 20.6538 13.7818 20.6542C13.7636 20.6549 13.738 20.6561 13.7054 20.6579C13.6402 20.6615 13.5471 20.6676 13.4291 20.6779C13.1932 20.6983 12.8574 20.7352 12.4466 20.8014C11.6263 20.9334 10.4995 21.1832 9.26957 21.6556C6.81008 22.6003 3.89671 24.4543 2.24965 28.0684L3.53723 28.6552ZM42.9634 19.374C43.0661 20.074 43.0658 20.0741 43.0656 20.0741C43.0655 20.0741 43.0653 20.0742 43.0652 20.0742C43.0651 20.0742 43.0651 20.0742 43.0653 20.0742C43.0656 20.0741 43.0666 20.074 43.0681 20.0738C43.0713 20.0733 43.0768 20.0726 43.0846 20.0715C43.1003 20.0695 43.1254 20.0663 43.1592 20.0625C43.227 20.0547 43.3299 20.0442 43.464 20.0337C43.7323 20.0129 44.1241 19.9928 44.6067 19.9974C45.5739 20.0065 46.8933 20.1148 48.3082 20.5074C51.1182 21.2872 54.3049 23.1816 55.9052 27.7218L57.2397 27.2514C55.452 22.1793 51.8342 20.0174 48.6866 19.144C47.1228 18.71 45.6751 18.5924 44.6201 18.5824C44.0914 18.5774 43.6583 18.5994 43.3544 18.623C43.2023 18.6348 43.0824 18.6471 42.9988 18.6566C42.957 18.6614 42.9242 18.6655 42.901 18.6685C42.8894 18.67 42.8802 18.6713 42.8735 18.6722C42.8701 18.6727 42.8673 18.6731 42.8652 18.6734C42.8641 18.6735 42.8632 18.6737 42.8625 18.6738C42.8621 18.6738 42.8616 18.6739 42.8615 18.6739C42.861 18.674 42.8607 18.674 42.9634 19.374ZM55.9052 27.7218C57.252 31.5429 56.6693 35.1615 55.7279 37.8545C55.2579 39.1989 54.702 40.3015 54.2647 41.0663C54.0463 41.4482 53.8581 41.7447 53.7261 41.9435C53.6601 42.0429 53.6083 42.1178 53.5737 42.1667C53.5565 42.1912 53.5436 42.2091 53.5354 42.2203C53.5313 42.226 53.5284 42.2299 53.5268 42.2322C53.5259 42.2333 53.5254 42.234 53.5252 42.2343C53.5251 42.2344 53.5251 42.2344 53.5252 42.2343C53.5252 42.2343 53.5253 42.2342 53.5253 42.2341C53.5254 42.234 53.5256 42.2338 54.0927 42.6567C54.6599 43.0797 54.6601 43.0794 54.6603 43.0792C54.6604 43.079 54.6606 43.0787 54.6608 43.0785C54.6612 43.078 54.6616 43.0773 54.6622 43.0766C54.6632 43.0751 54.6647 43.0732 54.6664 43.0709C54.6698 43.0662 54.6745 43.0598 54.6804 43.0517C54.6922 43.0355 54.7087 43.0125 54.7297 42.9827C54.7717 42.9233 54.8312 42.8373 54.905 42.7261C55.0526 42.5038 55.2575 42.1806 55.493 41.7687C55.9636 40.9459 56.5593 39.7641 57.0636 38.3214C58.0708 35.4402 58.7279 31.4738 57.2397 27.2514L55.9052 27.7218ZM54.0927 42.6567C53.658 43.2149 53.6577 43.2147 53.6576 43.2146C53.6575 43.2145 53.6573 43.2144 53.6573 43.2143C53.6571 43.2142 53.657 43.2141 53.657 43.2141C53.657 43.2141 53.6572 43.2143 53.6577 43.2147C53.6587 43.2155 53.6608 43.2171 53.6639 43.2196C53.6702 43.2246 53.6806 43.233 53.6948 43.2448C53.7234 43.2683 53.7672 43.305 53.8238 43.3546C53.9371 43.4537 54.101 43.6036 54.2955 43.8C54.6856 44.1939 55.1923 44.7689 55.6596 45.4916C56.5959 46.9394 57.3421 48.9245 56.7615 51.2365L58.1339 51.5811C58.8426 48.7587 57.9114 46.3678 56.8478 44.7232C56.3152 43.8996 55.7415 43.2493 55.301 42.8044C55.0802 42.5814 54.8914 42.4086 54.7557 42.2898C54.6879 42.2304 54.6332 42.1845 54.5943 42.1524C54.5748 42.1364 54.5593 42.1239 54.5481 42.1149C54.5425 42.1104 54.5379 42.1068 54.5345 42.1041C54.5328 42.1027 54.5313 42.1016 54.5301 42.1007C54.5296 42.1002 54.529 42.0998 54.5286 42.0995C54.5284 42.0993 54.5281 42.0991 54.528 42.099C54.5277 42.0988 54.5275 42.0986 54.0927 42.6567ZM56.7615 51.2365C55.9924 54.2992 54.0164 55.677 52.207 56.3131C51.2919 56.6348 50.4197 56.7646 49.774 56.8131C49.4523 56.8372 49.1901 56.8409 49.0112 56.8388C48.9218 56.8378 48.8535 56.8352 48.8092 56.8331C48.7871 56.8321 48.771 56.8311 48.7613 56.8305C48.7564 56.8302 48.7532 56.83 48.7516 56.8298C48.7508 56.8298 48.7504 56.8298 48.7504 56.8298C48.7505 56.8298 48.7506 56.8298 48.7508 56.8298C48.7509 56.8298 48.7512 56.8298 48.7512 56.8298C48.7515 56.8298 48.7518 56.8299 48.6956 57.5351C48.6395 58.2404 48.6398 58.2404 48.6402 58.2405C48.6404 58.2405 48.6408 58.2405 48.6411 58.2405C48.6418 58.2406 48.6426 58.2406 48.6434 58.2407C48.6452 58.2408 48.6474 58.241 48.65 58.2412C48.6552 58.2416 48.6621 58.242 48.6707 58.2426C48.6879 58.2437 48.7117 58.2451 48.7417 58.2465C48.8019 58.2494 48.8871 58.2524 48.9944 58.2537C49.2088 58.2563 49.5123 58.2517 49.8799 58.2241C50.6126 58.1691 51.6135 58.0217 52.6763 57.648C54.823 56.8933 57.2231 55.208 58.1339 51.5811L56.7615 51.2365ZM13.8335 21.3602C14.5304 21.2384 14.5304 21.2387 14.5305 21.2389C14.5305 21.2389 14.5305 21.239 14.5305 21.2391C14.5305 21.2392 14.5305 21.2392 14.5305 21.2391C14.5305 21.2388 14.5303 21.2381 14.5302 21.237C14.5298 21.2347 14.5291 21.2307 14.5282 21.2249C14.5263 21.2134 14.5233 21.1949 14.5195 21.1697C14.512 21.1194 14.501 21.0425 14.4884 20.9411C14.4631 20.7382 14.4313 20.4378 14.4065 20.0572C14.3568 19.2953 14.3355 18.2162 14.4507 16.9579C14.6814 14.4353 15.4559 11.2339 17.6043 8.41175L16.4784 7.55468C14.1166 10.6572 13.2872 14.1442 13.0416 16.829C12.9185 18.1743 12.9409 19.3287 12.9945 20.1493C13.0212 20.5599 13.0559 20.888 13.0842 21.1158C13.0984 21.2297 13.111 21.3187 13.1203 21.3804C13.125 21.4113 13.1288 21.4354 13.1316 21.4524C13.133 21.4609 13.1341 21.4677 13.1349 21.4726C13.1353 21.4751 13.1357 21.4771 13.1359 21.4787C13.1361 21.4795 13.1362 21.4801 13.1363 21.4807C13.1363 21.481 13.1364 21.4813 13.1364 21.4814C13.1365 21.4817 13.1365 21.482 13.8335 21.3602ZM17.6043 8.41175C19.9883 5.27999 23.3711 2.85231 27.9498 2.42967L27.8198 1.02066C22.7614 1.48758 19.0452 4.18274 16.4784 7.55468L17.6043 8.41175ZM27.2576 13.8233L25.0695 18.016L26.3239 18.6707L28.512 14.4779L27.2576 13.8233ZM25.6274 17.6392L20.9833 18.0965L21.1219 19.5046L25.766 19.0474L25.6274 17.6392ZM20.5528 19.3013L23.9886 22.7304L24.9882 21.7288L21.5524 18.2998L20.5528 19.3013ZM23.7918 22.1061L22.9753 26.7108L24.3686 26.9578L25.185 22.3531L23.7918 22.1061ZM24.0094 27.4562L28.2222 25.1701L27.5473 23.9264L23.3345 26.2125L24.0094 27.4562ZM27.2576 14.4779L29.4456 18.6707L30.7001 18.016L28.512 13.8233L27.2576 14.4779ZM30.0028 19.0474L34.599 19.5046L34.7391 18.0965L30.1429 17.6393L30.0028 19.0474ZM34.1657 18.3033L30.7779 21.7324L31.7845 22.7268L35.1723 19.2978L34.1657 18.3033ZM30.5845 22.3531L31.401 26.9578L32.7942 26.7108L31.9778 22.1061L30.5845 22.3531ZM32.435 26.2125L28.2222 23.9264L27.5473 25.1701L31.7602 27.4562L32.435 26.2125ZM27.9498 2.42967C33.1489 1.94977 37.9297 5.10449 40.2793 9.30022L41.5139 8.60885C38.9437 4.01924 33.6753 0.480161 27.8198 1.02066L27.9498 2.42967ZM40.2793 9.30022C41.5544 11.5772 42.0547 14.0743 42.2311 16.0239C42.3189 16.995 42.3255 17.8206 42.3103 18.401C42.3028 18.6909 42.2898 18.919 42.2789 19.0727C42.2734 19.1495 42.2685 19.2077 42.265 19.2457C42.2633 19.2646 42.262 19.2786 42.2611 19.2872C42.2607 19.2915 42.2603 19.2946 42.2602 19.2962C42.2601 19.2971 42.26 19.2976 42.26 19.2977C42.26 19.2978 42.26 19.2978 42.26 19.2977C42.26 19.2977 42.26 19.2975 42.26 19.2975C42.2601 19.2974 42.2601 19.2972 42.9634 19.374C43.6667 19.4509 43.6667 19.4507 43.6667 19.4504C43.6668 19.4503 43.6668 19.4501 43.6668 19.4498C43.6669 19.4494 43.6669 19.4489 43.667 19.4483C43.6671 19.4471 43.6673 19.4455 43.6675 19.4437C43.6679 19.4399 43.6684 19.4347 43.669 19.4283C43.6703 19.4153 43.6721 19.397 43.6742 19.3736C43.6785 19.3268 43.6842 19.2593 43.6903 19.1728C43.7026 18.9999 43.7167 18.7507 43.7248 18.438C43.7412 17.813 43.734 16.9316 43.6403 15.8965C43.4537 13.8337 42.9207 11.121 41.5139 8.60885L40.2793 9.30022Z" fill="black"/>
<path d="M34.2701 32.4408C33.8794 32.4408 33.5626 32.7576 33.5626 33.1483C33.5626 33.5391 33.8794 33.8558 34.2701 33.8558V32.4408ZM39.1236 33.8558C39.5144 33.8558 39.8311 33.5391 39.8311 33.1483C39.8311 32.7576 39.5144 32.4408 39.1236 32.4408V33.8558ZM34.2701 33.8558H39.1236V32.4408H34.2701V33.8558Z" fill="black"/>
<path d="M18.5624 33.1358C18.1941 33.0051 17.7897 33.1977 17.659 33.5659C17.5284 33.9342 17.7209 34.3386 18.0892 34.4693L18.5624 33.1358ZM22.6633 36.0923C23.0315 36.223 23.436 36.0304 23.5666 35.6622C23.6973 35.2939 23.5047 34.8895 23.1365 34.7588L22.6633 36.0923ZM18.0892 34.4693L22.6633 36.0923L23.1365 34.7588L18.5624 33.1358L18.0892 34.4693Z" fill="black"/>
<circle cx="40.5656" cy="21.5087" r="0.735493" fill="black"/>
<circle cx="36.6966" cy="35.09" r="1.28747" fill="black"/>
<circle cx="19.9574" cy="35.9687" r="1.28747" fill="black"/>
<circle cx="15.0255" cy="22.2442" r="0.735493" fill="black"/>
<circle cx="17.4318" cy="24.3054" r="0.735493" fill="black"/>
<circle cx="8.72084" cy="41.6957" r="0.735493" fill="black"/>
<circle cx="11.9469" cy="43.0111" r="0.735493" fill="black"/>
<circle cx="45.1007" cy="42.6369" r="0.735493" fill="black"/>
<circle cx="48.2448" cy="40.931" r="0.735493" fill="black"/>
<circle cx="51.7687" cy="41.2461" r="0.735493" fill="black"/>
<path d="M32.8215 40.9004C32.8215 41.479 32.4455 42.1089 31.6142 42.63C30.7926 43.1451 29.6137 43.4867 28.2745 43.4867C26.9353 43.4867 25.7564 43.1451 24.9348 42.63C24.1035 42.1089 23.7275 41.479 23.7275 40.9004C23.7275 40.3218 24.1035 39.6919 24.9348 39.1708C25.7564 38.6557 26.9353 38.3141 28.2745 38.3141C29.6137 38.3141 30.7926 38.6557 31.6142 39.1708C32.4455 39.6919 32.8215 40.3218 32.8215 40.9004Z" stroke="black" stroke-width="1.41499"/>
</svg>
