<svg width="37" height="43" viewBox="0 0 37 43" fill="none" xmlns="http://www.w3.org/2000/svg">
<path d="M3.12912 5.45111L2.58391 4.61281C2.19996 4.86252 2.03474 5.34115 2.18287 5.77454L3.12912 5.45111ZM8.58503 1.90271L9.48154 1.4597C9.35499 1.20359 9.12495 1.01384 8.84945 0.938301C8.57395 0.862766 8.27929 0.908662 8.03982 1.06441L8.58503 1.90271ZM16.399 17.7156L15.5025 18.1586C15.6719 18.5014 16.0219 18.7176 16.4042 18.7156C16.7865 18.7136 17.1343 18.4938 17.3001 18.1493L16.399 17.7156ZM24.0095 1.90271L24.547 1.05945C24.3059 0.905786 24.0106 0.862649 23.7357 0.940934C23.4607 1.01922 23.2324 1.21144 23.1084 1.46904L24.0095 1.90271ZM29.5764 5.45111L30.5191 5.78494C30.6745 5.3461 30.5065 4.85807 30.1139 4.60784L29.5764 5.45111ZM35.2115 27.0514L36.0414 27.6093C36.1908 27.3871 36.2448 27.1142 36.1914 26.8518C36.1379 26.5894 35.9815 26.3594 35.757 26.2133L35.2115 27.0514ZM29.8868 35.1468L29.4728 36.0571C29.9247 36.2626 30.459 36.1055 30.7277 35.6881L29.8868 35.1468ZM29.8868 23.5853L30.4324 22.7472L30.4257 22.743L29.8868 23.5853ZM23.8891 32.4189L23.4634 33.3238L23.4751 33.3291L23.8891 32.4189ZM1.09448 29.6636L0.265458 29.1044C0.0303691 29.4529 0.0383553 29.9112 0.285443 30.2513L1.09448 29.6636ZM9.92589 41.82L9.11685 42.4077C9.305 42.6667 9.60577 42.82 9.92589 42.82V41.82ZM28.6517 41.82V42.82C28.8905 42.82 29.1214 42.7345 29.3027 42.579L28.6517 41.82ZM32.298 37.098L31.3527 36.7718L32.298 37.098ZM32.5356 31.0317L31.7057 30.4738C31.702 30.4793 31.6983 30.4849 31.6947 30.4905L32.5356 31.0317ZM9.92588 28.6636C9.3736 28.6636 8.92589 29.1113 8.92589 29.6636C8.9259 30.2159 9.37362 30.6636 9.9259 30.6636L9.92588 28.6636ZM15.4197 29.6635L15.4197 28.6635L15.4197 28.6635L15.4197 29.6635ZM17.8585 36.927C18.1011 37.4231 18.7 37.6287 19.1962 37.386C19.6923 37.1434 19.8978 36.5445 19.6552 36.0484L17.8585 36.927ZM3.67433 6.28941L9.13024 2.74101L8.03982 1.06441L2.58391 4.61281L3.67433 6.28941ZM7.68852 2.34572L15.5025 18.1586L17.2955 17.2726L9.48154 1.4597L7.68852 2.34572ZM17.3001 18.1493L24.9106 2.33638L23.1084 1.46904L15.4979 17.2819L17.3001 18.1493ZM23.472 2.74597L29.0389 6.29437L30.1139 4.60784L24.547 1.05945L23.472 2.74597ZM28.6338 5.11728L23.4553 19.7398L25.3406 20.4075L30.5191 5.78494L28.6338 5.11728ZM23.859 20.916L29.3479 24.4277L30.4257 22.743L24.9369 19.2313L23.859 20.916ZM29.3412 24.4234L34.666 27.8895L35.757 26.2133L30.4323 22.7472L29.3412 24.4234ZM30.3008 34.2366L24.3031 31.5086L23.4751 33.3291L29.4728 36.0571L30.3008 34.2366ZM24.3148 31.514L18.4574 28.7586L17.6061 30.5684L23.4634 33.3238L24.3148 31.514ZM29.0595 23.0236L23.0618 31.8572L24.7164 32.9806L30.7141 24.147L29.0595 23.0236ZM2.18287 5.77454L6.99125 19.8423L8.88375 19.1955L4.07537 5.12768L2.18287 5.77454ZM18.8696 30.2094L21.3519 26.3991L19.6762 25.3074L17.1939 29.1177L18.8696 30.2094ZM21.3441 26.411L25.2279 20.6314L23.5679 19.5159L19.6841 25.2955L21.3441 26.411ZM7.48767 20.412L20.0642 26.7464L20.9639 24.9601L8.38733 18.6258L7.48767 20.412ZM7.10848 18.9597L0.265458 29.1044L1.92351 30.2228L8.76653 20.0781L7.10848 18.9597ZM0.285443 30.2513L9.11685 42.4077L10.7349 41.2322L1.90352 29.0758L0.285443 30.2513ZM9.92589 42.82H28.6517V40.82H9.92589V42.82ZM28.6517 41.82C29.3027 42.579 29.3028 42.5789 29.303 42.5788C29.303 42.5788 29.3032 42.5786 29.3033 42.5785C29.3035 42.5783 29.3038 42.5781 29.3042 42.5778C29.3048 42.5772 29.3057 42.5765 29.3067 42.5756C29.3087 42.5739 29.3114 42.5715 29.3148 42.5686C29.3216 42.5627 29.331 42.5545 29.343 42.544C29.3669 42.5231 29.401 42.493 29.4439 42.4545C29.5297 42.3776 29.6513 42.2667 29.7989 42.127C30.0934 41.8483 30.4945 41.4521 30.9225 40.9802C31.7533 40.0642 32.7829 38.7586 33.2433 37.4243L31.3527 36.7718C31.0315 37.7026 30.238 38.7579 29.441 39.6366C29.0551 40.0621 28.6912 40.4216 28.4242 40.6744C28.2909 40.8005 28.1826 40.8992 28.1087 40.9654C28.0718 40.9985 28.0435 41.0235 28.0251 41.0396C28.0159 41.0477 28.0092 41.0535 28.0051 41.0571C28.003 41.0589 28.0016 41.0601 28.0009 41.0607C28.0005 41.0611 28.0003 41.0612 28.0003 41.0613C28.0003 41.0613 28.0003 41.0612 28.0004 41.0612C28.0004 41.0612 28.0005 41.0611 28.0005 41.0611C28.0006 41.061 28.0007 41.0609 28.6517 41.82ZM34.3816 26.4935L31.7057 30.4738L33.3655 31.5897L36.0414 27.6093L34.3816 26.4935ZM31.6947 30.4905L29.0459 34.6056L30.7277 35.6881L33.3764 31.573L31.6947 30.4905ZM33.2433 37.4243C33.6687 36.1917 33.7188 34.5156 33.6877 33.2544C33.6716 32.6024 33.632 32.0201 33.5966 31.6007C33.5788 31.3906 33.562 31.2205 33.5495 31.1017C33.5433 31.0423 33.5381 30.9957 33.5344 30.9634C33.5325 30.9472 33.5311 30.9346 33.53 30.9257C33.5295 30.9212 33.5291 30.9177 33.5288 30.9151C33.5286 30.9139 33.5285 30.9128 33.5284 30.912C33.5283 30.9116 33.5283 30.9113 33.5283 30.911C33.5282 30.9109 33.5282 30.9107 33.5282 30.9106C33.5282 30.9105 33.5282 30.9103 32.5356 31.0317C31.543 31.1531 31.543 31.153 31.5429 31.1529C31.5429 31.1529 31.5429 31.1528 31.5429 31.1528C31.5429 31.1528 31.5429 31.1528 31.5429 31.1529C31.543 31.1531 31.543 31.1535 31.5431 31.1541C31.5432 31.1554 31.5435 31.1576 31.5439 31.1607C31.5446 31.167 31.5458 31.1769 31.5473 31.1903C31.5504 31.2171 31.5549 31.2579 31.5605 31.3112C31.5717 31.4178 31.5872 31.5742 31.6037 31.7691C31.6367 32.1598 31.6734 32.7011 31.6883 33.3038C31.7191 34.5518 31.6505 35.9089 31.3527 36.7718L33.2433 37.4243ZM18.0318 28.6635H15.4197V30.6635H18.0318V28.6635ZM15.4197 28.6635L9.92588 28.6636L9.9259 30.6636L15.4197 30.6635L15.4197 28.6635ZM14.5213 30.1028L17.8585 36.927L19.6552 36.0484L16.318 29.2242L14.5213 30.1028Z" fill="black"/>
</svg>
