<svg width="56" height="56" viewBox="0 0 56 56" fill="none" xmlns="http://www.w3.org/2000/svg">
<path d="M27.6156 5.36284C26.724 2.86332 24.3361 1.07434 21.5303 1.07434C18.5739 1.07434 16.0813 3.06066 15.3145 5.77158M27.6156 9.70403C26.724 12.2035 24.3361 13.9925 21.5303 13.9925C18.5739 13.9925 16.0813 12.0062 15.3145 9.29529" stroke="black" stroke-width="1.17416"/>
<path d="M53.0283 8.09524C53.3525 8.09524 53.6154 7.8324 53.6154 7.50816C53.6154 7.18393 53.3525 6.92108 53.0283 6.92108V8.09524ZM50.9675 6.43534L50.7754 6.9901L50.9675 6.43534ZM45.3899 4.69177L45.5541 4.12815L45.4665 4.10261L45.3753 4.10487L45.3899 4.69177ZM45.3899 10.375L45.3761 10.9619L45.4627 10.964L45.5462 10.9409L45.3899 10.375ZM50.9675 8.67334L50.786 8.11504L50.9675 8.67334ZM3.75798 5.72343L3.71641 5.13782L3.75798 5.72343ZM2.20397 7.50816L2.79081 7.5248L2.20397 7.50816ZM3.75798 9.39853L3.72201 9.9845L3.75798 9.39853ZM53.0283 6.92108H51.0502V8.09524H53.0283V6.92108ZM51.0502 7.50816C51.6373 7.50816 51.6373 7.50813 51.6373 7.5081C51.6373 7.50809 51.6373 7.50805 51.6373 7.50802C51.6373 7.50796 51.6373 7.50788 51.6373 7.50779C51.6373 7.5076 51.6373 7.50735 51.6373 7.50703C51.6373 7.50641 51.6373 7.50553 51.6373 7.50441C51.6373 7.50218 51.6373 7.49898 51.6372 7.49488C51.6372 7.48668 51.6372 7.47485 51.6371 7.45992C51.6369 7.43008 51.6366 7.3877 51.6359 7.33685C51.6346 7.23561 51.6319 7.09874 51.6265 6.95957C51.6212 6.82347 51.6128 6.6727 51.5986 6.5485C51.5919 6.48946 51.5816 6.41547 51.564 6.34574C51.5558 6.31326 51.5396 6.25533 51.5087 6.1927C51.4953 6.16538 51.4016 5.96436 51.1596 5.88057L50.7754 6.9901C50.6484 6.94612 50.5695 6.86971 50.5302 6.82405C50.4897 6.77699 50.4665 6.7341 50.4554 6.71151C50.4336 6.66731 50.4259 6.63475 50.4256 6.63357C50.4238 6.62642 50.4271 6.6387 50.432 6.68158C50.4411 6.76123 50.4482 6.87687 50.4532 7.00539C50.4581 7.13086 50.4606 7.25682 50.4619 7.35227C50.4625 7.39976 50.4628 7.43918 50.463 7.46655C50.463 7.48023 50.4631 7.49087 50.4631 7.49797C50.4631 7.50153 50.4631 7.50419 50.4631 7.50591C50.4631 7.50677 50.4631 7.5074 50.4631 7.50777C50.4631 7.50796 50.4631 7.50809 50.4631 7.50815C50.4631 7.50819 50.4631 7.5082 50.4631 7.5082C50.4631 7.5082 50.4631 7.50819 50.4631 7.50819C50.4631 7.50818 50.4631 7.50816 51.0502 7.50816ZM51.1596 5.88057C50.0743 5.50477 48.6711 5.06622 47.544 4.72294C46.9794 4.551 46.4823 4.40238 46.1262 4.29675C45.9481 4.24392 45.8053 4.20182 45.7069 4.17291C45.6577 4.15845 45.6196 4.14729 45.5938 4.13973C45.5808 4.13595 45.571 4.13307 45.5643 4.13112C45.561 4.13015 45.5585 4.12942 45.5568 4.12892C45.5559 4.12867 45.5553 4.12848 45.5548 4.12835C45.5546 4.12829 45.5545 4.12824 45.5543 4.12821C45.5543 4.12819 45.5542 4.12818 45.5542 4.12817C45.5542 4.12816 45.5541 4.12815 45.3899 4.69177C45.2256 5.25539 45.2256 5.2554 45.2256 5.2554C45.2256 5.25541 45.2256 5.25542 45.2257 5.25543C45.2258 5.25546 45.2259 5.2555 45.2261 5.25556C45.2265 5.25567 45.2271 5.25585 45.2279 5.25608C45.2295 5.25655 45.2319 5.25726 45.2352 5.2582C45.2416 5.26009 45.2513 5.26291 45.264 5.26663C45.2894 5.27408 45.3271 5.28511 45.3759 5.29944C45.4734 5.3281 45.6152 5.3699 45.7922 5.42241C46.1463 5.52744 46.6406 5.67522 47.2019 5.84616C48.3265 6.18866 49.7121 6.6219 50.7754 6.9901L51.1596 5.88057ZM44.8028 4.69177V10.375H45.9769V4.69177H44.8028ZM45.3899 10.375C45.5462 10.9409 45.5462 10.9409 45.5462 10.9409C45.5463 10.9409 45.5463 10.9409 45.5464 10.9409C45.5465 10.9408 45.5466 10.9408 45.5467 10.9408C45.5471 10.9407 45.5475 10.9405 45.5481 10.9404C45.5494 10.94 45.5511 10.9395 45.5534 10.9389C45.5581 10.9376 45.5649 10.9357 45.5739 10.9332C45.5918 10.9282 45.6185 10.9208 45.6534 10.911C45.7232 10.8914 45.8264 10.8622 45.9603 10.824C46.2281 10.7475 46.6189 10.6344 47.1127 10.4879C48.1001 10.195 49.4994 9.76803 51.1491 9.23165L50.786 8.11504C49.1476 8.64777 47.7581 9.07168 46.7787 9.36228C46.289 9.50756 45.902 9.61949 45.6377 9.695C45.5056 9.73275 45.4041 9.76139 45.3359 9.78055C45.3018 9.79012 45.276 9.79733 45.2589 9.80211C45.2503 9.8045 45.2438 9.80629 45.2396 9.80746C45.2375 9.80805 45.2359 9.80849 45.2349 9.80877C45.2344 9.80891 45.234 9.80901 45.2338 9.80907C45.2337 9.80911 45.2336 9.80913 45.2335 9.80914C45.2335 9.80915 45.2335 9.80915 45.2335 9.80915C45.2335 9.80915 45.2335 9.80915 45.3899 10.375ZM51.1491 9.23165C51.2955 9.18405 51.3848 9.09356 51.4281 9.041C51.4734 8.98598 51.5003 8.93377 51.5149 8.90239C51.5438 8.83992 51.5588 8.78206 51.5663 8.74976C51.5828 8.6797 51.5926 8.60393 51.5992 8.54138C51.613 8.41022 51.6213 8.24913 51.6266 8.10173C51.632 7.95146 51.6346 7.80331 51.6359 7.69352C51.6366 7.63841 51.6369 7.59248 51.6371 7.56016C51.6372 7.544 51.6372 7.53122 51.6372 7.52237C51.6373 7.51795 51.6373 7.5145 51.6373 7.51211C51.6373 7.51092 51.6373 7.50999 51.6373 7.50932C51.6373 7.50899 51.6373 7.50873 51.6373 7.50854C51.6373 7.50844 51.6373 7.50836 51.6373 7.5083C51.6373 7.50826 51.6373 7.50823 51.6373 7.50822C51.6373 7.50819 51.6373 7.50816 51.0502 7.50816C50.4631 7.50816 50.4631 7.50814 50.4631 7.50813C50.4631 7.50813 50.4631 7.50813 50.4631 7.50813C50.4631 7.50814 50.4631 7.50816 50.4631 7.5082C50.4631 7.50828 50.4631 7.50843 50.4631 7.50865C50.4631 7.50908 50.4631 7.50978 50.4631 7.51074C50.4631 7.51266 50.4631 7.51561 50.4631 7.51953C50.4631 7.52737 50.463 7.53907 50.463 7.55408C50.4628 7.58413 50.4625 7.62734 50.4619 7.67936C50.4606 7.78384 50.4581 7.92195 50.4532 8.05961C50.4481 8.20015 50.4409 8.32867 50.4315 8.41851C50.4264 8.46645 50.4226 8.48402 50.4233 8.48136C50.4238 8.47915 50.4255 8.47221 50.4287 8.4619C50.4317 8.4524 50.4381 8.43344 50.4493 8.40927C50.4593 8.3877 50.4815 8.34341 50.522 8.29427C50.5604 8.2476 50.6447 8.16096 50.786 8.11504L51.1491 9.23165ZM3.71641 5.13782C2.42554 5.22947 1.64979 6.3396 1.61713 7.49152L2.79081 7.5248C2.81054 6.82913 3.24673 6.34828 3.79955 6.30904L3.71641 5.13782ZM1.61713 7.49152C1.58339 8.68099 2.37575 9.90187 3.72201 9.9845L3.79395 8.81255C3.23247 8.77809 2.77036 8.24589 2.79081 7.5248L1.61713 7.49152ZM35.2753 10.725L45.3761 10.9619L45.4036 9.78811L35.3028 9.55119L35.2753 10.725ZM45.3753 4.10487L35.2745 4.35518L35.3036 5.52897L45.4044 5.27867L45.3753 4.10487ZM35.8761 10.1381V4.94207H34.702V10.1381H35.8761ZM35.2745 4.35518L5.86783 5.08389L5.89692 6.25769L35.3036 5.52897L35.2745 4.35518ZM5.88237 5.67079C5.88237 5.08371 5.88236 5.08371 5.88234 5.08371C5.88232 5.08371 5.8823 5.08371 5.88227 5.08371C5.88221 5.08371 5.88213 5.08371 5.88203 5.08371C5.88184 5.08371 5.88156 5.08371 5.88119 5.08371C5.88047 5.08371 5.87941 5.08371 5.87803 5.08371C5.87527 5.08371 5.87121 5.08371 5.86593 5.08372C5.85537 5.08373 5.83988 5.08376 5.81997 5.08381C5.78015 5.08392 5.7226 5.08412 5.6513 5.08454C5.50875 5.08537 5.31087 5.08703 5.08945 5.09035C4.65075 5.09694 4.10513 5.11023 3.71641 5.13782L3.79955 6.30904C4.15238 6.28399 4.66895 6.27096 5.10707 6.26438C5.32405 6.26112 5.51822 6.25949 5.65814 6.25868C5.72806 6.25827 5.78434 6.25807 5.82304 6.25797C5.84239 6.25792 5.85734 6.25789 5.86739 6.25788C5.87242 6.25787 5.87622 6.25787 5.87874 6.25787C5.88 6.25787 5.88094 6.25787 5.88155 6.25787C5.88185 6.25787 5.88207 6.25787 5.88221 6.25787C5.88228 6.25787 5.88233 6.25787 5.88235 6.25787C5.88237 6.25787 5.88237 6.25787 5.88238 6.25787C5.88238 6.25787 5.88237 6.25787 5.88237 5.67079ZM3.72201 9.9845C4.14242 10.0103 4.68503 10.0229 5.11609 10.0291C5.33299 10.0323 5.5242 10.0339 5.66123 10.0346C5.72977 10.035 5.78483 10.0352 5.82286 10.0353C5.84188 10.0354 5.85664 10.0354 5.86671 10.0354C5.87174 10.0354 5.8756 10.0354 5.87823 10.0354C5.87954 10.0354 5.88055 10.0354 5.88124 10.0354C5.88159 10.0354 5.88186 10.0354 5.88205 10.0354C5.88214 10.0354 5.88222 10.0354 5.88227 10.0354C5.8823 10.0354 5.88232 10.0354 5.88234 10.0354C5.88236 10.0354 5.88237 10.0354 5.88237 9.44836C5.88237 8.86128 5.88238 8.86128 5.88238 8.86128C5.88237 8.86128 5.88237 8.86128 5.88236 8.86128C5.88233 8.86128 5.88229 8.86128 5.88222 8.86128C5.88209 8.86128 5.88188 8.86128 5.8816 8.86128C5.88102 8.86128 5.88013 8.86128 5.87894 8.86127C5.87655 8.86127 5.87294 8.86127 5.86816 8.86126C5.8586 8.86125 5.84437 8.86123 5.82591 8.86118C5.78899 8.86108 5.73516 8.86089 5.66796 8.86051C5.53351 8.85974 5.34583 8.85819 5.13311 8.85511C4.70492 8.8489 4.18533 8.83657 3.79395 8.81255L3.72201 9.9845ZM5.86861 10.0353L35.2753 10.725L35.3028 9.55119L5.89614 8.86144L5.86861 10.0353ZM5.29529 5.67079V9.44836H6.46945V5.67079H5.29529ZM38.24 8.09524H42.3622V6.92108H38.24V8.09524Z" fill="black"/>
<rect x="1.00505" y="17.3977" width="53.8157" height="37.2688" rx="3.92892" stroke="black" stroke-width="1.17416"/>
<rect x="12.0666" y="21.6877" width="38.5872" height="28.6891" rx="1.21932" stroke="black" stroke-width="1.17416"/>
<path d="M4.36833 22.907C4.36833 22.2336 4.91424 21.6877 5.58765 21.6877H7.89682C8.57023 21.6877 9.11614 22.2336 9.11614 22.907V28.7621C9.11614 29.4355 8.57023 29.9814 7.89682 29.9814H5.58765C4.91424 29.9814 4.36833 29.4355 4.36833 28.7621V22.907Z" stroke="black" stroke-width="1.17416"/>
<path d="M4.36833 43.3022C4.36833 42.6288 4.91424 42.0829 5.58765 42.0829H7.89682C8.57023 42.0829 9.11614 42.6288 9.11614 43.3022V49.1574C9.11614 49.8308 8.57023 50.3767 7.89682 50.3767H5.58765C4.91424 50.3767 4.36833 49.8308 4.36833 49.1574V43.3022Z" stroke="black" stroke-width="1.17416"/>
<circle cx="6.78706" cy="36.0322" r="2.41873" stroke="black" stroke-width="1.17416"/>
<rect x="15.8752" y="25.9545" width="7.90784" height="7.90784" stroke="black" stroke-width="1.17416"/>
<rect x="19.4176" y="29.6232" width="13.8336" height="13.8336" stroke="black" stroke-width="1.17416" stroke-dasharray="1.81 1.81"/>
</svg>
