<svg width="38" height="31" viewBox="0 0 38 31" fill="none" xmlns="http://www.w3.org/2000/svg">
<g clip-path="url(#clip0)">
<path d="M5.78556 21.6759L3.82225 22.3932L3.71777 28.2332L10.5137 25.7506C8.18082 24.9694 6.4795 23.5924 5.78556 21.6759Z" fill="#FDBD39"/>
<path d="M6.81308 15.4991L0 17.9879L3.82212 22.3948L5.78542 21.6775C5.09304 19.7672 5.52032 17.6105 6.81308 15.4991Z" fill="#F69833"/>
<path d="M18.2765 7.07041C9.60145 10.2391 4.00782 16.7793 5.78555 21.6758L37.2 10.2002C35.4223 5.3036 26.9515 3.90169 18.2765 7.07041Z" fill="#FECF33"/>
<path d="M24.7077 24.8072C33.3827 21.6385 38.9857 15.1279 37.1986 10.2017L5.78418 21.6759C7.57127 26.6036 16.0326 27.9759 24.7077 24.8072Z" fill="#FF7262"/>
<path d="M37.198 10.2002L5.78516 21.6759C6.39957 23.3725 8.74648 24.2084 12.0368 24.2084C15.2461 24.2084 19.3536 23.4146 23.6358 21.8505C32.3108 18.6818 38.4128 13.5498 37.198 10.2002Z" fill="#F69833"/>
<path d="M30.9471 7.66922C27.7394 7.66922 23.6303 8.46296 19.3482 10.0271C10.6731 13.1958 4.57115 18.3263 5.78593 21.6759L37.2003 10.2001C36.5844 8.50351 34.239 7.66922 30.9471 7.66922Z" fill="#FDBD39"/>
<path d="M29.2109 28.5435C28.2862 28.5435 26.9232 27.7092 25.158 26.0625C23.0699 24.1148 20.6794 21.2611 18.4229 18.0284C16.168 14.7957 14.3154 11.5646 13.2051 8.92767C11.9966 6.05523 11.8235 4.28998 12.6921 3.67869C12.8932 3.54146 13.1318 3.47129 13.3751 3.47752C14.0815 3.47752 15.46 4.00305 18.0065 6.51058L18.0627 6.56516L18.0549 6.64313C18.0377 6.82402 18.0221 7.00492 18.0081 7.18425L17.98 7.53823L17.7305 7.28717C14.986 4.52233 13.779 4.22448 13.386 4.22448C13.2737 4.22448 13.1849 4.24632 13.1209 4.29154C12.7435 4.55664 12.7186 5.85407 13.8913 8.63762C14.9813 11.2262 16.8074 14.409 19.0326 17.5996C21.2595 20.7917 23.6142 23.6017 25.6664 25.5151C27.8776 27.5782 28.8741 27.8012 29.2 27.8012C29.3122 27.8012 29.4027 27.7778 29.4713 27.7295C29.869 27.4504 29.869 26.0609 28.5622 23.0637L28.5014 22.9265L28.6323 22.8548C28.7633 22.7831 28.8912 22.7129 29.0097 22.6443L29.1672 22.5554L29.2405 22.7207C30.1668 24.8446 31.0338 27.5439 29.897 28.3424C29.6959 28.4796 29.4557 28.5498 29.2109 28.5435ZM29.2109 28.216V28.3798V28.216Z" fill="#FF7262"/>
<path d="M24.9177 24.7167L24.9052 24.8789C24.6853 27.5923 24.1083 30.8546 22.6019 30.9871C22.5707 30.9902 22.5396 30.9902 22.5099 30.9902C21.487 30.9902 20.5186 29.5244 19.6344 26.6348C18.7954 23.8996 18.1452 20.2287 17.8036 16.2975C17.4606 12.3662 17.4653 8.63763 17.8177 5.79794C18.2013 2.70406 18.9311 1.08851 19.9884 0.994943C20.0196 0.991824 20.0523 0.990265 20.0835 0.990265C20.8258 0.990265 21.9439 1.83079 23.0885 5.74491L22.3415 5.88838C21.9595 4.58159 21.5431 3.51807 21.1299 2.78515C20.7478 2.10992 20.3751 1.73722 20.0835 1.73722C20.0741 1.73722 20.0648 1.73722 20.0539 1.73878C19.5954 1.77933 18.928 2.88963 18.5568 5.88994C18.2107 8.67817 18.206 12.3521 18.5444 16.232C18.8828 20.1133 19.5221 23.7296 20.3455 26.4149C20.7135 27.6172 21.1174 28.609 21.515 29.2811C21.8799 29.9018 22.2339 30.2433 22.5099 30.2433C22.5193 30.2433 22.5286 30.2433 22.538 30.2417C22.9762 30.2043 23.8027 29.0472 24.1504 24.9787L24.9177 24.7167Z" fill="#FF7262"/>
</g>
<defs>
<clipPath id="clip0">
<rect width="37.532" height="30" fill="white" transform="translate(0 0.991821)"/>
</clipPath>
</defs>
</svg>
