<?xml version="1.0" encoding="utf-8"?>
<!-- Generator: Adobe Illustrator 21.1.0, SVG Export Plug-In . SVG Version: 6.00 Build 0)  -->
<svg version="1.1" id="Icons" xmlns="http://www.w3.org/2000/svg" xmlns:xlink="http://www.w3.org/1999/xlink" x="0px" y="0px"
	 viewBox="0 0 48 48" style="enable-background:new 0 0 48 48;" xml:space="preserve">
<style type="text/css">
	.st0{fill:#FFE500;}
	.st1{fill:#EBCB00;}
	.st2{fill:#FFF48C;}
	.st3{opacity:0.15;fill:#45413C;}
	.st4{fill:none;stroke:#45413C;stroke-linecap:round;stroke-linejoin:round;stroke-miterlimit:10;}
	.st5{fill:#FFAA54;}
	.st6{fill:#FFB0CA;stroke:#45413C;stroke-linecap:round;stroke-linejoin:round;stroke-miterlimit:10;}
	.st7{fill:#FF87AF;stroke:#45413C;stroke-linecap:round;stroke-linejoin:round;stroke-miterlimit:10;}
	.st8{fill:#00B8F0;}
	.st9{fill:#4ACFFF;}
	.st10{fill:#FFFFFF;stroke:#45413C;stroke-linecap:round;stroke-linejoin:round;stroke-miterlimit:10;}
	.st11{fill:#45413C;stroke:#45413C;stroke-linecap:round;stroke-linejoin:round;stroke-miterlimit:10;}
	.st12{fill:#009FD9;}
	.st13{fill:none;stroke:#45413C;stroke-linecap:round;stroke-miterlimit:10;}
	.st14{fill:#FFFFFF;stroke:#45413C;stroke-linejoin:round;stroke-miterlimit:10;}
	.st15{fill:#FF6242;}
	.st16{fill:#FF866E;}
	.st17{fill:#656769;}
	.st18{fill:#87898C;}
	.st19{fill:#4AEFF7;stroke:#45413C;stroke-linecap:round;stroke-linejoin:round;stroke-miterlimit:10;}
	.st20{fill:none;stroke:#48CF3E;stroke-linecap:round;stroke-linejoin:round;stroke-miterlimit:10;}
	.st21{fill:none;stroke:#FF4064;stroke-linecap:round;stroke-linejoin:round;stroke-miterlimit:10;}
	.st22{fill:none;stroke:#FFB700;stroke-linecap:round;stroke-linejoin:round;stroke-miterlimit:10;}
	.st23{fill:none;stroke:#00AED9;stroke-linecap:round;stroke-linejoin:round;stroke-miterlimit:10;}
	.st24{fill:#FFFACF;}
	.st25{fill:#45413C;}
	.st26{fill:#FF866E;stroke:#45413C;stroke-linecap:round;stroke-linejoin:round;stroke-miterlimit:10;}
	.st27{fill:#DABFF5;stroke:#45413C;stroke-linejoin:round;stroke-miterlimit:10;}
	.st28{fill:#EDDBFF;}
	.st29{fill:none;stroke:#45413C;stroke-linejoin:round;stroke-miterlimit:10;}
	.st30{fill:#6DD627;}
	.st31{fill:#46B000;}
	.st32{fill:#C8FFA1;}
	.st33{fill:url(#XMLID_91_);}
	.st34{fill:url(#XMLID_92_);}
	.st35{fill:#F0F0F0;stroke:#45413C;stroke-linecap:round;stroke-linejoin:round;stroke-miterlimit:10;}
	.st36{fill:#EBCB00;stroke:#45413C;stroke-linecap:round;stroke-linejoin:round;stroke-miterlimit:10;}
	.st37{fill:#BDBEC0;stroke:#45413C;stroke-linecap:round;stroke-linejoin:round;stroke-miterlimit:10;}
	.st38{fill:#F0F0F0;}
	.st39{fill:#FFFFFF;}
	.st40{fill:url(#XMLID_93_);}
	.st41{fill:url(#XMLID_94_);}
	.st42{fill:#FFE500;stroke:#45413C;stroke-linecap:round;stroke-linejoin:round;stroke-miterlimit:10;}
	.st43{fill:#E04122;}
	.st44{fill:#8CFFE4;stroke:#45413C;stroke-linecap:round;stroke-linejoin:round;stroke-miterlimit:10;}
	.st45{fill:#E5FFF9;}
	.st46{fill:#E0E0E0;}
	.st47{fill:#9CEB60;}
	.st48{fill:#6DD627;stroke:#45413C;stroke-linecap:round;stroke-linejoin:round;stroke-miterlimit:10;}
	.st49{fill:#E8F4FA;}
	.st50{fill:#F0D5A8;}
	.st51{fill:#DEBB7E;}
	.st52{fill:#B89558;}
	.st53{fill:#00B8F0;stroke:#45413C;stroke-linecap:round;stroke-linejoin:round;stroke-miterlimit:10;}
	.st54{fill:#FFFCE5;}
	.st55{fill:#FF87AF;}
	.st56{fill:#4ACFFF;stroke:#45413C;stroke-linecap:round;stroke-linejoin:round;stroke-miterlimit:10;}
	.st57{fill:#E5F8FF;}
	.st58{fill:none;stroke:#45413C;stroke-miterlimit:10;}
	.st59{fill:none;stroke:#FF6242;stroke-linecap:round;stroke-linejoin:round;stroke-miterlimit:10;}
	.st60{fill:#BDBEC0;}
	.st61{fill:#B89558;stroke:#45413C;stroke-linecap:round;stroke-linejoin:round;stroke-miterlimit:10;}
	.st62{fill:#FF6242;stroke:#45413C;stroke-linecap:round;stroke-linejoin:round;stroke-miterlimit:10;}
	.st63{fill:#525252;stroke:#45413C;stroke-linecap:round;stroke-linejoin:round;stroke-miterlimit:10;}
	.st64{fill:#525252;}
	.st65{fill:#00DBA8;}
	.st66{fill:#00AD85;}
	.st67{fill:#BF8DF2;}
	.st68{fill:#DABFF5;}
	.st69{fill:#00F5BC;}
	.st70{fill:#DAEDF7;}
	.st71{fill:#C0DCEB;}
	.st72{fill:#ADC4D9;}
	.st73{fill:#ADC4D9;stroke:#45413C;stroke-linecap:round;stroke-linejoin:round;stroke-miterlimit:10;}
	.st74{fill:#00DFEB;stroke:#45413C;stroke-linecap:round;stroke-linejoin:round;stroke-miterlimit:10;}
	.st75{fill:#627B8C;stroke:#45413C;stroke-linecap:round;stroke-linejoin:round;stroke-miterlimit:10;}
	.st76{fill:#8CA4B8;}
	.st77{fill:#00DBA8;stroke:#45413C;stroke-linecap:round;stroke-linejoin:round;stroke-miterlimit:10;}
	.st78{fill:#FF8A14;}
	.st79{fill:#BF8256;}
	.st80{fill:#DEA47A;}
	.st81{fill:#915E3A;}
	.st82{fill:#FFA694;}
	.st83{fill:#E5FEFF;stroke:#45413C;stroke-linecap:round;stroke-linejoin:round;stroke-miterlimit:10;}
	.st84{fill:#803EC2;stroke:#45413C;stroke-linecap:round;stroke-linejoin:round;stroke-miterlimit:10;}
	.st85{fill:#9F5AE5;}
	.st86{fill:#803EC2;}
</style>
<g id="XMLID_716_">
	<linearGradient id="XMLID_91_" gradientUnits="userSpaceOnUse" x1="24.0001" y1="41.5" x2="24.0001" y2="1.5">
		<stop  offset="0" style="stop-color:#FFE500"/>
		<stop  offset="0.2848" style="stop-color:#FDE502"/>
		<stop  offset="0.3874" style="stop-color:#F6E408"/>
		<stop  offset="0.4605" style="stop-color:#EBE213"/>
		<stop  offset="0.5197" style="stop-color:#DADF23"/>
		<stop  offset="0.5703" style="stop-color:#C4DB38"/>
		<stop  offset="0.6152" style="stop-color:#A8D651"/>
		<stop  offset="0.6558" style="stop-color:#88D070"/>
		<stop  offset="0.6931" style="stop-color:#62C993"/>
		<stop  offset="0.7278" style="stop-color:#37C2BC"/>
		<stop  offset="0.7586" style="stop-color:#09B9E7"/>
		<stop  offset="0.7643" style="stop-color:#00B8F0"/>
	</linearGradient>
	<circle id="XMLID_272_" class="st33" cx="24" cy="21.5" r="20"/>
	<linearGradient id="XMLID_92_" gradientUnits="userSpaceOnUse" x1="24.0001" y1="41.5" x2="24.0001" y2="1.5">
		<stop  offset="0" style="stop-color:#EBCB00"/>
		<stop  offset="0.2885" style="stop-color:#E9CB02"/>
		<stop  offset="0.3924" style="stop-color:#E2CB09"/>
		<stop  offset="0.4665" style="stop-color:#D7CA14"/>
		<stop  offset="0.5264" style="stop-color:#C6C825"/>
		<stop  offset="0.5777" style="stop-color:#B0C63B"/>
		<stop  offset="0.6231" style="stop-color:#96C457"/>
		<stop  offset="0.6643" style="stop-color:#76C277"/>
		<stop  offset="0.7021" style="stop-color:#51BF9D"/>
		<stop  offset="0.7357" style="stop-color:#29BBC6"/>
		<stop  offset="0.7646" style="stop-color:#00B8F0"/>
	</linearGradient>
	<path id="XMLID_269_" class="st34" d="M24,1.5c-11,0-20,9-20,20s9,20,20,20c11,0,20-9,20-20S35,1.5,24,1.5z M24,38.5
		c-10.1,0-18.2-8.2-18.2-18.2C5.8,10.2,13.9,2,24,2c10.1,0,18.2,8.2,18.2,18.2C42.3,30.3,34.1,38.5,24,38.5z"/>
	<ellipse id="XMLID_268_" class="st9" cx="24" cy="5.5" rx="6" ry="1.5"/>
	<ellipse id="XMLID_267_" class="st3" cx="24" cy="45.5" rx="16" ry="1.5"/>
	<circle id="XMLID_266_" class="st4" cx="24" cy="21.5" r="20"/>
	<ellipse id="XMLID_265_" class="st5" cx="36" cy="26.5" rx="2.5" ry="1.5"/>
	<ellipse id="XMLID_264_" class="st5" cx="12" cy="26.5" rx="2.5" ry="1.5"/>
	<ellipse id="XMLID_263_" class="st6" cx="24" cy="31.5" rx="5" ry="8"/>
	
		<ellipse id="XMLID_261_" transform="matrix(0.8498 -0.5271 0.5271 0.8498 -4.655 20.7898)" class="st10" cx="34.2" cy="18.6" rx="3.8" ry="5.3"/>
	
		<ellipse id="XMLID_260_" transform="matrix(0.5271 -0.8498 0.8498 0.5271 -9.2255 20.5469)" class="st10" cx="13.8" cy="18.6" rx="5.3" ry="3.8"/>
	<path id="XMLID_259_" class="st42" d="M14.8,45.2c-0.1,0.5-0.5,0.8-1,0.8H8c-0.3,0-0.6-0.1-0.8-0.4C7.1,45.4,7,45,7.1,44.7
		c1.3-4.6-0.3-12-3-16.6c-1.5-2.6,1.7-2.6,3-1.8C16,32.4,15.2,42.2,14.8,45.2z"/>
	<path id="XMLID_258_" class="st42" d="M33.2,45.2c0.1,0.5,0.5,0.8,1,0.8H40c0.3,0,0.6-0.1,0.8-0.4c0.2-0.3,0.2-0.6,0.2-0.9
		c-1.3-4.6,0.3-12,3-16.6c1.5-2.6-1.7-2.6-3-1.8C32,32.4,32.8,42.2,33.2,45.2z"/>
	<path class="st26" d="M24,39.5c1.8,0,3.4-1.5,4.2-3.7C27.4,33.5,25.8,32,24,32s-3.4,1.5-4.2,3.8C20.6,38,22.2,39.5,24,39.5z"/>
</g>
</svg>
