<?xml version="1.0" encoding="utf-8"?>
<!-- Generator: Adobe Illustrator 24.2.3, SVG Export Plug-In . SVG Version: 6.00 Build 0)  -->
<svg version="1.1" id="Layer_1" xmlns="http://www.w3.org/2000/svg" xmlns:xlink="http://www.w3.org/1999/xlink" x="0px" y="0px"
	 viewBox="0 0 426.3 428.1" style="enable-background:new 0 0 426.3 428.1;" xml:space="preserve">
<style type="text/css">
	.st0{font-family:'Lato-Hairline';}
	.st1{font-size:20.72px;}
	.st2{font-size:20.6463px;}
	.st3{font-size:20.845px;}
	.st4{font-size:20.7748px;}
	.st5{font-size:20.7831px;}
	.st6{font-size:9px;}
	.st7{font-size:20.7666px;}
	.st8{font-size:20.7707px;}
	.st9{font-size:20.6671px;}
	.st10{font-size:20.6806px;}
	.st11{font-size:20.6629px;}
	.st12{font-size:20.664px;}
	.st13{font-size:20.8079px;}
	.st14{font-size:9.0162px;}
	.st15{font-family:'Juana-Light';}
	.st16{font-size:74px;}
	.st17{font-size:73.7962px;}
	.st18{font-size:73.9889px;}
	.st19{font-size:74.0961px;}
	.st20{font-size:73.7814px;}
	.st21{font-size:73.603px;}
	.st22{font-size:74.1774px;}
</style>
<g id="Layer_2_1_">
	<g id="Layer_1-2">
		<text transform="matrix(0.3267 0.9451 -0.9451 0.3267 96.2503 246.37)" class="st0 st1">U</text>
		<text transform="matrix(0.4423 0.8969 -0.8969 0.4423 101.97 262.2599)" class="st0 st1">X</text>
		<text transform="matrix(0.5219 0.853 -0.853 0.5219 107.8303 273.7997)" class="st0 st2">/</text>
		<text transform="matrix(0.6063 0.7952 -0.7952 0.6063 112.1701 281.1904)" class="st0 st3">U</text>
		<text transform="matrix(0.6815 0.7318 -0.7318 0.6815 122.4896 294.2601)" class="st0 st1">I</text>
		<text transform="matrix(0.7779 0.6283 -0.6283 0.7779 130.9899 303.2299)" class="st0 st4">D</text>
		<text transform="matrix(0.853 0.5219 -0.5219 0.853 144.7894 314.0903)" class="st0 st2">E</text>
		<text transform="matrix(0.9043 0.4269 -0.4269 0.9043 156.7198 321.2399)" class="st0 st1">S</text>
		<text transform="matrix(0.9371 0.3489 -0.3489 0.9371 167.56 326.2002)" class="st0 st5">I</text>
		<text transform="matrix(0.9668 0.2554 -0.2554 0.9668 174.5199 329.0201)" class="st0 st1">G</text>
		<text transform="matrix(0.9937 0.1125 -0.1125 0.9937 191.5799 333.38)" class="st0 st1">N</text>
		<text transform="matrix(0.998 -6.279052e-02 6.279052e-02 0.998 217.94 329.97)" class="st0 st6">•</text>
		<text transform="matrix(0.9778 -0.2095 0.2095 0.9778 233.9996 333.3697)" class="st0 st7">S</text>
		<text transform="matrix(0.9477 -0.3192 0.3192 0.9477 245.9099 330.7198)" class="st0 st8">E</text>
		<text transform="matrix(0.9023 -0.4311 0.4311 0.9023 259.1704 326.1608)" class="st0 st9">A</text>
		<text transform="matrix(0.853 -0.5219 0.5219 0.853 271.0303 320.4898)" class="st0 st2">T</text>
		<text transform="matrix(0.7915 -0.6112 0.6112 0.7915 282.5497 313.3501)" class="st0 st10">T</text>
		<text transform="matrix(0.722 -0.6919 0.6919 0.722 293.1093 305.0101)" class="st0 st11">L</text>
		<text transform="matrix(0.6439 -0.7651 0.7651 0.6439 301.78 296.6501)" class="st0 st1">E</text>
		<text transform="matrix(0.5834 -0.8122 0.8122 0.5834 310.3801 286.0999)" class="st0 st1">,</text>
		<text transform="matrix(0.4512 -0.8924 0.8924 0.4512 316.4598 277.8497)" class="st0 st12">W</text>
		<text transform="matrix(0.3193 -0.9477 0.9477 0.3193 325.83 258.7104)" class="st0 st1">A</text>
		<text transform="matrix(-0.3267 -0.9451 0.9451 -0.3267 330.04 181.6605)" class="st0 st1">U</text>
		<text transform="matrix(-0.4423 -0.8969 0.8969 -0.4423 324.3201 165.7806)" class="st0 st1">X</text>
		<text transform="matrix(-0.5197 -0.8544 0.8544 -0.5197 318.46 154.2401)" class="st0 st1">/</text>
		<text transform="matrix(-0.6063 -0.7952 0.7952 -0.6063 314.12 146.8503)" class="st0 st3">U</text>
		<text transform="matrix(-0.6815 -0.7318 0.7318 -0.6815 303.7902 133.7791)" class="st0 st1">I</text>
		<text transform="matrix(-0.7779 -0.6283 0.6283 -0.7779 295.3 124.8117)" class="st0 st4">D</text>
		<text transform="matrix(-0.853 -0.5219 0.5219 -0.853 281.4991 113.9504)" class="st0 st2">E</text>
		<text transform="matrix(-0.9043 -0.4269 0.4269 -0.9043 269.5703 106.7995)" class="st0 st1">S</text>
		<text transform="matrix(-0.9354 -0.3535 0.3535 -0.9354 258.7298 101.8396)" class="st0 st1">I</text>
		<text transform="matrix(-0.9659 -0.2589 0.2589 -0.9659 251.761 99.0212)" class="st0 st13">G</text>
		<text transform="matrix(-0.9937 -0.1125 0.1125 -0.9937 234.6998 94.6597)" class="st0 st1">N</text>
		<text transform="matrix(-0.9982 5.989229e-02 -5.989229e-02 -0.9982 208.3492 98.0702)" class="st0 st14">•</text>
		<text transform="matrix(-0.9778 0.2095 -0.2095 -0.9778 192.2804 94.671)" class="st0 st7">S</text>
		<text transform="matrix(-0.9478 0.319 -0.319 -0.9478 180.3998 97.3204)" class="st0 st1">E</text>
		<text transform="matrix(-0.9023 0.4311 -0.4311 -0.9023 167.1193 101.88)" class="st0 st9">A</text>
		<text transform="matrix(-0.8533 0.5215 -0.5215 -0.8533 155.2508 107.5498)" class="st0 st1">T</text>
		<text transform="matrix(-0.7915 0.6112 -0.6112 -0.7915 143.7408 114.6902)" class="st0 st10">T</text>
		<text transform="matrix(-0.722 0.6919 -0.6919 -0.722 133.1802 123.029)" class="st0 st11">L</text>
		<text transform="matrix(-0.6439 0.7651 -0.7651 -0.6439 124.5093 131.3894)" class="st0 st1">E</text>
		<text transform="matrix(-0.5834 0.8122 -0.8122 -0.5834 115.9092 141.9402)" class="st0 st1">,</text>
		<text transform="matrix(-0.4512 0.8924 -0.8924 -0.4512 109.8295 150.1903)" class="st0 st12">W</text>
		<text transform="matrix(-0.3193 0.9477 -0.9477 -0.3193 100.4605 169.3299)" class="st0 st1">A</text>
		<text transform="matrix(0.2338 0.9723 -0.9723 0.2338 17.0704 237.1)" class="st15 st16">A</text>
		<text transform="matrix(0.4865 0.8737 -0.8737 0.4865 31.8697 291.4199)" class="st15 st16">L</text>
		<text transform="matrix(0.6919 0.722 -0.722 0.6919 56.7491 334.0988)" class="st15 st17">E</text>
		<text transform="matrix(0.8601 0.5101 -0.5101 0.8601 93.5198 371.0604)" class="st15 st18">X</text>
		<text transform="matrix(0.9878 0.1556 -0.1556 0.9878 159.1201 403.99)" class="st15 st16">A</text>
		<text transform="matrix(0.9887 -0.1498 0.1498 0.9887 216.1401 411.8295)" class="st15 st19">N</text>
		<text transform="matrix(0.8869 -0.4619 0.4619 0.8869 279.6899 400.4399)" class="st15 st16">D</text>
		<text transform="matrix(0.7021 -0.7121 0.7121 0.7021 335.6497 368.8894)" class="st15 st20">R</text>
		<text transform="matrix(0.484 -0.875 0.875 0.484 374.4101 327.5504)" class="st15 st16">E</text>
		<text transform="matrix(0.2212 -0.9752 0.9752 0.2212 398.8299 281.3203)" class="st15 st21">A</text>
		<text transform="matrix(-0.2338 -0.9723 0.9723 -0.2338 409.2499 191.0004)" class="st15 st16">A</text>
		<text transform="matrix(-0.4865 -0.8737 0.8737 -0.4865 394.4599 136.6899)" class="st15 st16">L</text>
		<text transform="matrix(-0.6919 -0.722 0.722 -0.6919 369.5801 94.0009)" class="st15 st17">E</text>
		<text transform="matrix(-0.8601 -0.5101 0.5101 -0.8601 332.8101 57.0407)" class="st15 st18">X</text>
		<text transform="matrix(-0.9878 -0.1556 0.1556 -0.9878 267.2001 24.121)" class="st15 st16">A</text>
		<text transform="matrix(-0.9887 0.1498 -0.1498 -0.9887 210.1898 16.2719)" class="st15 st19">N</text>
		<text transform="matrix(-0.8869 0.4619 -0.4619 -0.8869 146.64 27.6602)" class="st15 st16">D</text>
		<text transform="matrix(-0.7021 0.7121 -0.7121 -0.7021 90.6694 59.2103)" class="st15 st20">R</text>
		<text transform="matrix(-0.4789 0.8779 -0.8779 -0.4789 51.9207 100.5501)" class="st15 st22">E</text>
		<text transform="matrix(-0.2212 0.9752 -0.9752 -0.2212 27.4911 146.7906)" class="st15 st21">A</text>
	</g>
</g>
</svg>
