<svg xmlns="http://www.w3.org/2000/svg" viewBox="0 0 426.33 428.1"><defs><style>.cls-1{font-size:20.72px;}.cls-1,.cls-2{font-family:Lato-Hairline, Lato;font-weight:100;}.cls-2{font-size:9px;}.cls-3{font-size:74px;font-family:Juana-Light, Juana;font-weight:300;}</style></defs><g id="Layer_2" data-name="Layer 2"><g id="Layer_1-2" data-name="Layer 1"><text class="cls-1" transform="translate(96.25 246.37) rotate(70.93)">U</text><text class="cls-1" transform="translate(101.97 262.26) rotate(63.75)">X</text><text class="cls-1" transform="matrix(0.52, 0.85, -0.85, 0.52, 107.83, 273.8)">/</text><text class="cls-1" transform="matrix(0.61, 0.8, -0.8, 0.61, 112.17, 281.19)">U</text><text class="cls-1" transform="translate(122.49 294.26) rotate(47.04)">I</text><text class="cls-1" transform="matrix(0.72, 0.7, -0.7, 0.72, 127.28, 299.32)"> </text><text class="cls-1" transform="matrix(0.78, 0.63, -0.63, 0.78, 130.99, 303.23)">D</text><text class="cls-1" transform="matrix(0.85, 0.52, -0.52, 0.85, 144.79, 314.09)">E</text><text class="cls-1" transform="translate(156.72 321.24) rotate(25.27)">S</text><text class="cls-1" transform="matrix(0.94, 0.35, -0.35, 0.94, 167.56, 326.2)">I</text><text class="cls-1" transform="translate(174.52 329.02) rotate(14.8)">G</text><text class="cls-1" transform="translate(191.58 333.38) rotate(6.46)">N</text><text class="cls-1" transform="translate(208.49 334.97) rotate(1.22)"> </text><text class="cls-1" transform="translate(213.4 335.06) rotate(-1.28)"> </text><text class="cls-2" transform="translate(217.94 329.97) rotate(-3.6)">•</text><text class="cls-1" transform="translate(224.08 334.57) rotate(-6.06)"> </text><text class="cls-1" transform="translate(228.92 334.04) rotate(-8.36)"> </text><text class="cls-1" transform="matrix(0.98, -0.21, 0.21, 0.98, 234, 333.37)">S</text><text class="cls-1" transform="matrix(0.95, -0.32, 0.32, 0.95, 245.91, 330.72)">E</text><text class="cls-1" transform="matrix(0.9, -0.43, 0.43, 0.9, 259.17, 326.16)">A</text><text class="cls-1" transform="matrix(0.85, -0.52, 0.52, 0.85, 271.03, 320.49)">T</text><text class="cls-1" transform="matrix(0.79, -0.61, 0.61, 0.79, 282.55, 313.35)">T</text><text class="cls-1" transform="matrix(0.72, -0.69, 0.69, 0.72, 293.11, 305.01)">L</text><text class="cls-1" transform="translate(301.78 296.65) rotate(-49.92)">E</text><text class="cls-1" transform="translate(310.38 286.1) rotate(-54.31)">,</text><text class="cls-1" transform="translate(313.11 282.28) rotate(-56.57)"> </text><text class="cls-1" transform="matrix(0.45, -0.89, 0.89, 0.45, 316.46, 277.85)">W</text><text class="cls-1" transform="translate(325.83 258.71) rotate(-71.38)">A</text><text class="cls-1" transform="translate(330.04 181.66) rotate(-109.07)">U</text><text class="cls-1" transform="translate(324.32 165.78) rotate(-116.25)">X</text><text class="cls-1" transform="translate(318.46 154.24) rotate(-121.31)">/</text><text class="cls-1" transform="matrix(-0.61, -0.8, 0.8, -0.61, 314.12, 146.85)">U</text><text class="cls-1" transform="translate(303.79 133.78) rotate(-132.96)">I</text><text class="cls-1" transform="matrix(-0.72, -0.7, 0.7, -0.72, 299.01, 128.71)"> </text><text class="cls-1" transform="matrix(-0.78, -0.63, 0.63, -0.78, 295.3, 124.81)">D</text><text class="cls-1" transform="matrix(-0.85, -0.52, 0.52, -0.85, 281.5, 113.95)">E</text><text class="cls-1" transform="translate(269.57 106.8) rotate(-154.73)">S</text><text class="cls-1" transform="translate(258.73 101.84) rotate(-159.3)">I</text><text class="cls-1" transform="matrix(-0.97, -0.26, 0.26, -0.97, 251.76, 99.02)">G</text><text class="cls-1" transform="translate(234.7 94.66) rotate(-173.54)">N</text><text class="cls-1" transform="translate(217.79 93.07) rotate(-178.78)"> </text><text class="cls-1" transform="translate(212.89 92.98) rotate(178.72)"> </text><text class="cls-2" transform="matrix(-1, 0.06, -0.06, -1, 208.35, 98.07)">•</text><text class="cls-1" transform="translate(202.21 93.47) rotate(173.94)"> </text><text class="cls-1" transform="translate(197.37 94) rotate(171.64)"> </text><text class="cls-1" transform="matrix(-0.98, 0.21, -0.21, -0.98, 192.28, 94.67)">S</text><text class="cls-1" transform="translate(180.4 97.32) rotate(161.4)">E</text><text class="cls-1" transform="matrix(-0.9, 0.43, -0.43, -0.9, 167.12, 101.88)">A</text><text class="cls-1" transform="translate(155.25 107.55) rotate(148.57)">T</text><text class="cls-1" transform="matrix(-0.79, 0.61, -0.61, -0.79, 143.74, 114.69)">T</text><text class="cls-1" transform="matrix(-0.72, 0.69, -0.69, -0.72, 133.18, 123.03)">L</text><text class="cls-1" transform="translate(124.51 131.39) rotate(130.08)">E</text><text class="cls-1" transform="translate(115.91 141.94) rotate(125.69)">,</text><text class="cls-1" transform="translate(113.18 145.76) rotate(123.43)"> </text><text class="cls-1" transform="matrix(-0.45, 0.89, -0.89, -0.45, 109.83, 150.19)">W</text><text class="cls-1" transform="translate(100.46 169.33) rotate(108.62)">A</text><text class="cls-3" transform="translate(17.07 237.1) rotate(76.48)">A</text><text class="cls-3" transform="translate(31.87 291.42) rotate(60.89)">L</text><text class="cls-3" transform="matrix(0.69, 0.72, -0.72, 0.69, 56.75, 334.1)">E</text><text class="cls-3" transform="matrix(0.86, 0.51, -0.51, 0.86, 93.52, 371.06)">X</text><text class="cls-3" transform="matrix(0.94, 0.34, -0.34, 0.94, 138.71, 395.65)"> </text><text class="cls-3" transform="translate(159.12 403.99) rotate(8.95)">A</text><text class="cls-3" transform="matrix(0.99, -0.15, 0.15, 0.99, 216.14, 411.83)">N</text><text class="cls-3" transform="translate(279.69 400.44) rotate(-27.51)">D</text><text class="cls-3" transform="matrix(0.7, -0.71, 0.71, 0.7, 335.65, 368.89)">R</text><text class="cls-3" transform="translate(374.41 327.55) rotate(-61.05)">E</text><text class="cls-3" transform="matrix(0.22, -0.97, 0.97, 0.22, 398.83, 281.32)">A</text><text class="cls-3" transform="translate(409.25 191) rotate(-103.52)">A</text><text class="cls-3" transform="translate(394.46 136.69) rotate(-119.11)">L</text><text class="cls-3" transform="matrix(-0.69, -0.72, 0.72, -0.69, 369.58, 94)">E</text><text class="cls-3" transform="matrix(-0.86, -0.51, 0.51, -0.86, 332.81, 57.04)">X</text><text class="cls-3" transform="matrix(-0.94, -0.34, 0.34, -0.94, 287.61, 32.45)"> </text><text class="cls-3" transform="translate(267.2 24.12) rotate(-171.05)">A</text><text class="cls-3" transform="matrix(-0.99, 0.15, -0.15, -0.99, 210.19, 16.27)">N</text><text class="cls-3" transform="translate(146.64 27.66) rotate(152.49)">D</text><text class="cls-3" transform="matrix(-0.7, 0.71, -0.71, -0.7, 90.67, 59.21)">R</text><text class="cls-3" transform="matrix(-0.48, 0.88, -0.88, -0.48, 51.92, 100.55)">E</text><text class="cls-3" transform="matrix(-0.22, 0.97, -0.97, -0.22, 27.49, 146.79)">A</text></g></g></svg>