<svg width="853" height="821" viewBox="0 0 853 821" fill="none" xmlns="http://www.w3.org/2000/svg">
<g clip-path="url(#clip0)">
<mask id="mask0" mask-type="alpha" maskUnits="userSpaceOnUse" x="0" y="-33" width="853" height="857">
<g clip-path="url(#clip1)">
<path d="M198.403 473.591C198.906 475.063 199.615 476.289 200.532 477.27C201.466 478.26 202.526 479.003 203.714 479.499C204.901 479.995 206.18 480.249 207.551 480.261C208.921 480.273 210.304 480.041 211.697 479.565L228.886 473.697L229.047 474.166L211.857 480.034C210.412 480.528 208.973 480.764 207.541 480.744C206.109 480.724 204.771 480.447 203.527 479.912C202.283 479.377 201.172 478.593 200.194 477.56C199.234 476.535 198.494 475.262 197.974 473.738C197.453 472.214 197.258 470.747 197.387 469.336C197.533 467.934 197.935 466.641 198.592 465.457C199.25 464.273 200.138 463.235 201.259 462.344C202.38 461.452 203.663 460.76 205.108 460.266L222.298 454.398L222.458 454.866L205.307 460.722C203.914 461.197 202.672 461.861 201.582 462.713C200.504 463.561 199.641 464.546 198.992 465.669C198.356 466.788 197.969 468.018 197.831 469.359C197.71 470.709 197.901 472.12 198.403 473.591Z" fill="black"/>
<path d="M222.903 494.552L231.042 479.045L231.241 479.453C231.29 479.552 231.292 479.635 231.248 479.703C231.211 479.782 231.176 479.853 231.145 479.914L223.298 494.749L223.658 494.78L239.804 497.645C239.884 497.652 239.961 497.668 240.035 497.693C240.127 497.725 240.191 497.778 240.227 497.852L240.426 498.26L223.258 495.136L214.678 511.386L214.479 510.978C214.43 510.879 214.425 510.79 214.463 510.71C214.513 510.625 214.55 510.56 214.575 510.518L222.863 494.939C222.795 494.957 222.684 494.95 222.531 494.917L205.481 491.896C205.395 491.877 205.309 491.858 205.223 491.839C205.15 491.813 205.095 491.764 205.058 491.689L204.859 491.281L222.903 494.552Z" fill="black"/>
<path d="M216.163 514.749C216.047 514.77 215.953 514.747 215.88 514.679C215.814 514.623 215.76 514.56 215.717 514.49L215.632 514.349L248.942 509.541C249.125 509.526 249.266 509.601 249.366 509.765L249.472 509.941L216.163 514.749Z" fill="black"/>
<path d="M234.311 540.645C235.255 541.893 236.319 542.841 237.504 543.489C238.709 544.141 239.956 544.516 241.247 544.616C242.537 544.716 243.839 544.556 245.153 544.135C246.466 543.714 247.713 543.057 248.895 542.163L263.468 531.139L263.769 531.537L249.195 542.561C247.97 543.488 246.67 544.167 245.296 544.599C243.922 545.031 242.556 545.188 241.199 545.069C239.841 544.95 238.533 544.551 237.273 543.872C236.033 543.196 234.924 542.213 233.947 540.921C232.97 539.629 232.321 538.289 231.999 536.9C231.697 535.514 231.674 534.152 231.928 532.814C232.183 531.476 232.705 530.204 233.495 528.999C234.285 527.794 235.292 526.728 236.518 525.801L251.091 514.777L251.392 515.175L236.852 526.174C235.67 527.067 234.693 528.093 233.92 529.251C233.158 530.4 232.643 531.614 232.377 532.891C232.122 534.16 232.14 535.457 232.431 536.782C232.741 538.11 233.368 539.398 234.311 540.645Z" fill="black"/>
<path d="M249.528 559.362L249.192 558.999L270.415 539.387L270.751 539.751L249.528 559.362Z" fill="black"/>
<path d="M293.598 579.478C292.152 581.254 290.606 582.629 288.96 583.602C287.325 584.583 285.655 585.181 283.951 585.395C282.258 585.617 280.57 585.462 278.887 584.928C277.205 584.395 275.593 583.501 274.052 582.246L266.027 575.714L284.319 553.244L292.344 559.777C293.884 561.031 295.087 562.428 295.951 563.968C296.814 565.507 297.309 567.128 297.435 568.832C297.571 570.544 297.324 572.3 296.695 574.1C296.076 575.909 295.044 577.702 293.598 579.478ZM293.181 579.138C294.6 577.394 295.613 575.648 296.218 573.899C296.843 572.148 297.096 570.45 296.976 568.805C296.856 567.16 296.377 565.596 295.539 564.113C294.711 562.638 293.559 561.3 292.082 560.098L284.443 553.879L266.674 575.706L274.313 581.925C275.79 583.127 277.334 583.984 278.946 584.496C280.568 585.016 282.197 585.168 283.832 584.951C285.467 584.734 287.075 584.148 288.654 583.192C290.252 582.234 291.761 580.882 293.181 579.138Z" fill="black"/>
<path d="M323.574 580.58L323.337 580.965L309.439 572.39L302.354 583.872L314.151 591.151L313.914 591.536L302.117 584.257L294.794 596.124L308.727 604.721L308.454 605.085L294.136 596.25L309.257 571.746L323.574 580.58Z" fill="black"/>
<path d="M340.906 592.841C340.809 592.886 340.723 592.891 340.648 592.855C340.536 592.802 340.422 592.595 340.304 592.234C340.205 591.866 340.003 591.427 339.698 590.916C339.405 590.41 338.97 589.868 338.393 589.288C337.822 588.695 337.015 588.15 335.971 587.653C334.903 587.143 333.873 586.858 332.881 586.797C331.907 586.729 331.01 586.835 330.191 587.115C329.371 587.395 328.641 587.824 327.999 588.402C327.37 588.987 326.869 589.67 326.496 590.453C326.016 591.459 325.809 592.389 325.874 593.243C325.952 594.103 326.198 594.914 326.612 595.676C327.027 596.437 327.57 597.169 328.242 597.87C328.919 598.559 329.612 599.248 330.321 599.936C331.035 600.612 331.728 601.301 332.4 602.002C333.072 602.704 333.609 603.447 334.011 604.234C334.42 605.008 334.648 605.841 334.695 606.732C334.761 607.617 334.542 608.588 334.039 609.644C333.53 610.712 332.873 611.626 332.068 612.386C331.27 613.133 330.363 613.692 329.349 614.062C328.34 614.419 327.244 614.56 326.061 614.483C324.877 614.407 323.652 614.067 322.385 613.463C321.504 613.042 320.753 612.586 320.135 612.093C319.51 611.612 318.974 611.09 318.527 610.526C318.097 609.955 317.738 609.349 317.449 608.708C317.166 608.055 316.928 607.355 316.736 606.608L316.846 606.569C316.901 606.549 316.944 606.539 316.975 606.539C317.011 606.526 317.061 606.534 317.123 606.563C317.197 606.599 317.264 606.73 317.324 606.957C317.402 607.177 317.506 607.47 317.636 607.837C317.772 608.192 317.949 608.588 318.166 609.027C318.384 609.466 318.682 609.929 319.06 610.414C319.444 610.887 319.915 611.355 320.471 611.818C321.046 612.275 321.743 612.699 322.563 613.09C323.768 613.665 324.928 613.981 326.043 614.04C327.171 614.105 328.211 613.969 329.165 613.631C330.137 613.287 330.998 612.76 331.748 612.05C332.511 611.346 333.126 610.504 333.593 609.523C333.984 608.703 334.191 607.933 334.215 607.212C334.251 606.497 334.152 605.825 333.918 605.196C333.691 604.554 333.356 603.945 332.915 603.368C332.491 602.785 332.007 602.219 331.461 601.669C330.921 601.107 330.357 600.563 329.769 600.039C329.186 599.502 328.625 598.953 328.085 598.39C327.545 597.828 327.057 597.252 326.622 596.664C326.204 596.068 325.885 595.443 325.663 594.789C325.448 594.122 325.358 593.416 325.393 592.671C325.446 591.919 325.677 591.114 326.086 590.257C326.483 589.425 327.017 588.704 327.689 588.094C328.367 587.472 329.143 587.011 330.017 586.712C330.892 586.412 331.847 586.296 332.882 586.363C333.93 586.435 335.019 586.741 336.149 587.28C337.416 587.884 338.436 588.622 339.209 589.494C339.995 590.372 340.603 591.462 341.034 592.765L340.906 592.841Z" fill="black"/>
<path d="M340.646 620.762L340.181 620.587L350.399 593.463L350.864 593.638L340.646 620.762Z" fill="black"/>
<path d="M364.938 628.642C366.081 628.948 367.127 629.165 368.077 629.291C369.043 629.408 369.956 629.454 370.818 629.428C371.683 629.39 372.514 629.292 373.311 629.136C374.125 628.97 374.952 628.757 375.791 628.497L378.118 619.826L371.858 618.146C371.698 618.103 371.636 618.015 371.672 617.882L371.726 617.683L378.663 619.545L376.181 628.795C375.365 629.074 374.533 629.307 373.686 629.493C372.855 629.669 371.979 629.776 371.057 629.813C370.148 629.854 369.176 629.814 368.14 629.693C367.117 629.575 366.014 629.358 364.832 629.04C362.825 628.502 361.091 627.688 359.631 626.598C358.175 625.495 357.028 624.168 356.19 622.618C355.365 621.072 354.869 619.336 354.702 617.411C354.539 615.472 354.753 613.4 355.345 611.193C355.933 609 356.782 607.112 357.89 605.529C359.002 603.933 360.322 602.677 361.85 601.762C363.378 600.847 365.075 600.284 366.941 600.072C368.821 599.864 370.817 600.043 372.93 600.611C373.967 600.889 374.899 601.21 375.727 601.575C376.559 601.926 377.305 602.333 377.964 602.795C378.637 603.26 379.246 603.78 379.79 604.353C380.334 604.927 380.844 605.576 381.319 606.302L381.232 606.386C381.161 606.438 381.093 606.455 381.026 606.437C380.92 606.409 380.735 606.195 380.471 605.797C380.211 605.385 379.779 604.899 379.175 604.338C378.587 603.767 377.783 603.181 376.762 602.579C375.744 601.964 374.431 601.441 372.823 601.009C370.803 600.467 368.89 600.296 367.084 600.495C365.282 600.681 363.642 601.217 362.165 602.103C360.688 602.989 359.407 604.205 358.322 605.752C357.237 607.299 356.404 609.155 355.823 611.322C355.242 613.488 355.027 615.51 355.178 617.389C355.343 619.271 355.829 620.962 356.638 622.461C357.447 623.96 358.55 625.239 359.947 626.298C361.361 627.347 363.025 628.128 364.938 628.642Z" fill="black"/>
<path d="M390.891 605.029C391.014 605.043 391.103 605.109 391.159 605.226L408.236 635.261C408.23 635.191 408.231 635.122 408.239 635.053C408.249 634.971 408.258 634.896 408.266 634.828L411.474 607.439L411.884 607.487L408.522 636.188L408.399 636.173C408.317 636.164 408.248 636.107 408.191 636.004L391.025 605.834C391.029 605.918 391.026 606.007 391.015 606.103C391.005 606.185 390.996 606.26 390.988 606.328L387.776 633.758L387.366 633.71L390.727 605.009L390.891 605.029Z" fill="black"/>
<path d="M437.913 623.794C437.873 623.118 438.054 622.55 438.456 622.09C438.865 621.629 439.427 621.377 440.142 621.335C440.849 621.293 441.436 621.473 441.905 621.874C442.372 622.268 442.627 622.825 442.67 623.548L442.695 623.979C442.735 624.655 442.554 625.219 442.152 625.672C441.75 626.124 441.184 626.372 440.454 626.415C439.731 626.458 439.14 626.279 438.679 625.877C438.226 625.467 437.98 624.92 437.939 624.237L437.913 623.794Z" fill="black"/>
<path d="M479.291 603.846C479.241 603.942 479.175 603.998 479.094 604.015C478.972 604.04 478.755 603.945 478.442 603.729C478.139 603.497 477.711 603.27 477.157 603.048C476.617 602.823 475.94 602.655 475.128 602.544C474.312 602.42 473.338 602.477 472.204 602.715C471.043 602.959 470.049 603.359 469.222 603.913C468.405 604.451 467.755 605.081 467.272 605.803C466.79 606.524 466.469 607.311 466.31 608.161C466.164 609.009 466.18 609.859 466.359 610.709C466.589 611.802 466.99 612.669 467.561 613.31C468.147 613.948 468.836 614.444 469.629 614.799C470.422 615.153 471.3 615.406 472.262 615.556C473.22 615.693 474.191 615.82 475.174 615.937C476.155 616.041 477.126 616.168 478.087 616.318C479.049 616.468 479.929 616.734 480.728 617.116C481.524 617.484 482.212 618.008 482.793 618.69C483.383 619.355 483.799 620.261 484.041 621.408C484.285 622.569 484.317 623.696 484.139 624.791C483.958 625.872 483.575 626.868 482.992 627.78C482.406 628.678 481.618 629.457 480.629 630.116C479.64 630.775 478.458 631.249 477.081 631.539C476.123 631.74 475.247 631.833 474.455 631.816C473.665 631.813 472.92 631.723 472.22 631.546C471.531 631.353 470.877 631.089 470.257 630.754C469.634 630.406 469.019 629.992 468.411 629.514L468.475 629.416C468.507 629.367 468.535 629.333 468.559 629.314C468.58 629.281 468.625 629.258 468.692 629.244C468.773 629.227 468.906 629.29 469.092 629.435C469.288 629.562 469.549 629.733 469.876 629.946C470.2 630.146 470.582 630.354 471.022 630.572C471.462 630.789 471.981 630.976 472.577 631.133C473.171 631.276 473.831 631.362 474.556 631.393C475.292 631.407 476.105 631.321 476.996 631.134C478.305 630.858 479.422 630.405 480.346 629.774C481.284 629.14 482.03 628.398 482.584 627.549C483.149 626.683 483.514 625.74 483.68 624.718C483.859 623.694 483.837 622.649 483.612 621.583C483.425 620.692 483.122 619.952 482.702 619.364C482.296 618.773 481.808 618.298 481.239 617.938C480.668 617.565 480.031 617.283 479.328 617.093C478.636 616.886 477.906 616.73 477.137 616.624C476.365 616.504 475.585 616.414 474.797 616.355C474.007 616.281 473.225 616.185 472.453 616.065C471.681 615.946 470.943 615.784 470.237 615.58C469.543 615.36 468.908 615.056 468.334 614.67C467.756 614.27 467.255 613.762 466.83 613.147C466.415 612.515 466.11 611.734 465.914 610.803C465.724 609.898 465.711 608.999 465.875 608.105C466.037 607.197 466.374 606.358 466.889 605.587C467.403 604.817 468.093 604.143 468.958 603.567C469.837 602.987 470.891 602.569 472.119 602.31C473.495 602.021 474.757 601.988 475.903 602.212C477.063 602.433 478.211 602.932 479.346 603.708L479.291 603.846Z" fill="black"/>
<path d="M502.186 593.771L502.33 594.202L486.741 599.387L491.024 612.267L504.257 607.866L504.401 608.298L491.168 612.699L495.595 626.01L511.223 620.813L511.328 621.258L495.267 626.599L486.126 599.112L502.186 593.771Z" fill="black"/>
<path d="M539.108 607.847L538.773 608.006C538.661 608.059 538.557 608.032 538.461 607.925L530.712 600.932L516.977 607.43L517.469 617.856C517.49 617.998 517.433 618.101 517.296 618.166L516.998 618.306L515.541 587.11L515.913 586.934L539.108 607.847ZM516.95 606.987L530.387 600.631L516.677 588.259C516.55 588.151 516.435 588.054 516.333 587.966C516.237 587.859 516.132 587.749 516.018 587.636C516.033 587.796 516.045 587.95 516.054 588.098C516.069 588.227 516.079 588.374 516.081 588.54L516.95 606.987Z" fill="black"/>
<path d="M544.977 570.804L545.212 571.191L535.962 576.801L550.659 601.034L550.237 601.29L535.54 577.057L526.219 582.71L525.985 582.323L544.977 570.804Z" fill="black"/>
<path d="M563.854 556.321L564.129 556.68L555.527 563.27L572.79 585.806L572.398 586.107L555.134 563.571L546.467 570.211L546.191 569.851L563.854 556.321Z" fill="black"/>
<path d="M587.731 572.748L598.381 562.62L598.693 562.949L587.685 573.417L567.827 552.535L568.185 552.194L587.731 572.748Z" fill="black"/>
<path d="M594.119 525.551L594.465 525.845L583.865 538.344L594.192 547.101L603.19 536.491L603.536 536.785L594.538 547.395L605.211 556.447L615.838 543.916L616.157 544.241L605.237 557.118L583.198 538.428L594.119 525.551Z" fill="black"/>
<path d="M619.866 537.258C619.599 537.064 619.424 536.801 619.341 536.47C619.266 536.127 619.338 535.805 619.556 535.504C619.774 535.203 620.063 535.039 620.423 535.011C620.791 534.971 621.187 535.105 621.611 535.412C622.469 536.033 623.156 536.82 623.673 537.772C624.209 538.721 624.572 539.697 624.763 540.702L624.676 540.715C624.619 540.725 624.573 540.717 624.54 540.693C624.506 540.669 624.471 540.6 624.433 540.488C624.369 540.272 624.277 539.976 624.158 539.601C624.05 539.234 623.893 538.84 623.688 538.42C623.483 537.999 623.224 537.583 622.912 537.169C622.607 536.745 622.232 536.372 621.786 536.049C621.861 536.392 621.781 536.725 621.547 537.048C621.353 537.315 621.103 537.474 620.795 537.523C620.477 537.564 620.167 537.476 619.866 537.258Z" fill="black"/>
<path d="M605.116 509.734L605.284 509.404C605.34 509.294 605.439 509.252 605.58 509.277L633.371 514.011C633.573 514.037 633.763 514.072 633.941 514.117C634.112 514.143 634.293 514.181 634.483 514.232C634.33 514.108 634.19 513.99 634.062 513.878C633.928 513.748 633.791 513.609 633.651 513.461L613.947 492.887C613.843 492.788 613.819 492.683 613.876 492.573L613.932 492.463C613.988 492.353 614.087 492.311 614.227 492.337L642.449 496.226C642.841 496.273 643.212 496.346 643.561 496.447C643.231 496.187 642.954 495.93 642.729 495.676L622.594 475.946C622.491 475.847 622.473 475.73 622.542 475.595L622.692 475.302L644.204 496.545L644.017 496.911L615.015 492.877C614.745 492.832 614.527 492.79 614.362 492.752C614.49 492.864 614.651 493.015 614.846 493.207L635.126 514.329L634.939 514.696L605.116 509.734Z" fill="black"/>
<path d="M658.239 461.985L658.119 462.336C658.079 462.453 657.987 462.509 657.843 462.504L647.401 463.194L642.482 477.61L650.325 484.539C650.442 484.623 650.476 484.736 650.427 484.879L650.32 485.192L626.864 464.452L626.997 464.061L658.239 461.985ZM642.145 477.321L646.957 463.217L628.483 464.437C628.317 464.454 628.167 464.468 628.032 464.48C627.889 464.474 627.736 464.473 627.575 464.477C627.701 464.578 627.82 464.676 627.932 464.773C628.036 464.852 628.149 464.948 628.27 465.062L642.145 477.321Z" fill="black"/>
<path d="M654.178 317.938C653.675 316.467 652.966 315.24 652.049 314.259C651.115 313.27 650.054 312.527 648.867 312.03C647.68 311.534 646.401 311.28 645.03 311.268C643.659 311.257 642.277 311.489 640.884 311.964L623.694 317.833L623.534 317.364L640.724 311.495C642.169 311.002 643.608 310.765 645.04 310.785C646.472 310.805 647.809 311.083 649.054 311.618C650.298 312.153 651.409 312.937 652.386 313.97C653.347 314.994 654.087 316.268 654.607 317.792C655.127 319.315 655.323 320.782 655.194 322.193C655.048 323.596 654.646 324.889 653.988 326.073C653.331 327.257 652.442 328.295 651.322 329.186C650.201 330.077 648.918 330.77 647.473 331.263L630.283 337.132L630.123 336.663L647.274 330.808C648.667 330.332 649.909 329.668 650.999 328.816C652.077 327.969 652.94 326.983 653.589 325.86C654.225 324.742 654.612 323.512 654.75 322.17C654.871 320.821 654.68 319.41 654.178 317.938Z" fill="black"/>
<path d="M629.678 296.998L621.539 312.504L621.339 312.096C621.291 311.997 621.289 311.914 621.332 311.847C621.37 311.767 621.405 311.697 621.436 311.636L629.282 296.801L628.923 296.77L612.777 293.905C612.697 293.898 612.62 293.882 612.546 293.857C612.454 293.825 612.39 293.772 612.354 293.698L612.155 293.29L629.323 296.413L637.903 280.164L638.102 280.572C638.15 280.671 638.156 280.76 638.118 280.839C638.068 280.925 638.03 280.989 638.005 281.032L629.718 296.611C629.786 296.593 629.897 296.6 630.05 296.632L647.1 299.653C647.186 299.673 647.272 299.692 647.358 299.711C647.431 299.736 647.486 299.786 647.522 299.86L647.722 300.268L629.678 296.998Z" fill="black"/>
<path d="M637.153 276.356C637.269 276.334 637.363 276.358 637.437 276.426C637.503 276.482 637.557 276.546 637.6 276.617L637.685 276.758L604.244 281.497C604.06 281.512 603.918 281.437 603.819 281.272L603.712 281.095L637.153 276.356Z" fill="black"/>
<path d="M618.269 250.904C617.326 249.657 616.261 248.709 615.077 248.06C613.872 247.409 612.625 247.033 611.334 246.933C610.044 246.834 608.742 246.994 607.428 247.415C606.115 247.835 604.867 248.493 603.686 249.386L589.113 260.41L588.812 260.013L603.385 248.989C604.611 248.062 605.911 247.382 607.285 246.95C608.659 246.518 610.025 246.362 611.382 246.481C612.739 246.6 614.048 246.998 615.308 247.677C616.548 248.353 617.657 249.337 618.634 250.629C619.611 251.92 620.26 253.261 620.582 254.649C620.883 256.035 620.907 257.397 620.652 258.736C620.398 260.074 619.875 261.345 619.086 262.55C618.296 263.755 617.288 264.821 616.063 265.748L601.49 276.772L601.189 276.375L615.729 265.376C616.911 264.482 617.888 263.456 618.661 262.299C619.423 261.149 619.937 259.936 620.203 258.658C620.458 257.389 620.441 256.092 620.15 254.767C619.84 253.44 619.213 252.152 618.269 250.904Z" fill="black"/>
<path d="M603.033 232.187L603.369 232.551L582.146 252.162L581.81 251.799L603.033 232.187Z" fill="black"/>
<path d="M558.983 212.071C560.429 210.295 561.975 208.921 563.62 207.948C565.256 206.966 566.925 206.368 568.629 206.154C570.323 205.932 572.011 206.087 573.693 206.621C575.376 207.155 576.988 208.049 578.529 209.303L586.553 215.835L568.262 238.305L560.237 231.772C558.696 230.518 557.494 229.121 556.63 227.582C555.766 226.042 555.272 224.421 555.146 222.718C555.01 221.006 555.256 219.249 555.886 217.449C556.505 215.64 557.537 213.847 558.983 212.071ZM559.4 212.411C557.98 214.155 556.968 215.901 556.362 217.65C555.738 219.401 555.485 221.099 555.605 222.744C555.724 224.389 556.203 225.953 557.042 227.437C557.87 228.911 559.022 230.249 560.498 231.451L568.138 237.67L585.907 215.843L578.267 209.624C576.791 208.422 575.247 207.565 573.635 207.054C572.012 206.533 570.384 206.382 568.748 206.598C567.113 206.815 565.506 207.401 563.927 208.358C562.329 209.316 560.82 210.667 559.4 212.411Z" fill="black"/>
<path d="M529.006 210.97L529.244 210.584L543.141 219.16L550.226 207.678L538.429 200.398L538.667 200.013L550.464 207.293L557.787 195.426L543.854 186.829L544.127 186.465L558.444 195.3L543.324 219.804L529.006 210.97Z" fill="black"/>
<path d="M511.674 198.708C511.772 198.663 511.858 198.659 511.933 198.694C512.044 198.748 512.159 198.955 512.277 199.316C512.376 199.683 512.578 200.122 512.883 200.634C513.176 201.139 513.611 201.682 514.188 202.262C514.759 202.854 515.566 203.399 516.61 203.897C517.678 204.406 518.708 204.691 519.7 204.753C520.674 204.821 521.57 204.714 522.39 204.434C523.209 204.154 523.94 203.725 524.582 203.147C525.211 202.563 525.712 201.879 526.085 201.097C526.565 200.091 526.772 199.161 526.706 198.306C526.629 197.446 526.383 196.635 525.968 195.873C525.554 195.112 525.011 194.38 524.339 193.679C523.662 192.99 522.969 192.301 522.26 191.613C521.546 190.937 520.853 190.248 520.181 189.547C519.509 188.846 518.972 188.102 518.57 187.315C518.161 186.541 517.933 185.709 517.886 184.817C517.82 183.932 518.039 182.962 518.542 181.906C519.051 180.838 519.708 179.924 520.512 179.164C521.311 178.416 522.217 177.858 523.232 177.488C524.241 177.13 525.337 176.99 526.52 177.066C527.703 177.142 528.928 177.482 530.195 178.086C531.077 178.507 531.827 178.964 532.446 179.457C533.071 179.937 533.607 180.46 534.054 181.024C534.483 181.594 534.843 182.2 535.132 182.841C535.415 183.494 535.652 184.194 535.845 184.942L535.735 184.981C535.68 185 535.637 185.01 535.606 185.011C535.57 185.024 535.52 185.015 535.458 184.986C535.384 184.95 535.316 184.819 535.257 184.593C535.179 184.373 535.075 184.079 534.945 183.712C534.809 183.358 534.632 182.961 534.415 182.522C534.197 182.083 533.899 181.621 533.521 181.135C533.137 180.662 532.666 180.194 532.11 179.731C531.535 179.274 530.837 178.85 530.018 178.459C528.813 177.885 527.653 177.568 526.538 177.509C525.41 177.444 524.369 177.58 523.416 177.918C522.443 178.263 521.582 178.79 520.833 179.499C520.07 180.203 519.455 181.045 518.987 182.027C518.597 182.846 518.389 183.617 518.366 184.337C518.33 185.052 518.429 185.724 518.662 186.354C518.89 186.996 519.224 187.605 519.666 188.181C520.089 188.764 520.574 189.33 521.12 189.88C521.66 190.443 522.224 190.986 522.812 191.51C523.395 192.047 523.956 192.597 524.496 193.159C525.036 193.721 525.523 194.297 525.959 194.886C526.376 195.481 526.696 196.106 526.917 196.76C527.133 197.427 527.223 198.133 527.188 198.879C527.134 199.631 526.903 200.435 526.495 201.292C526.098 202.124 525.564 202.845 524.892 203.455C524.214 204.077 523.438 204.538 522.564 204.837C521.689 205.137 520.734 205.253 519.699 205.187C518.651 205.114 517.562 204.808 516.432 204.269C515.165 203.665 514.145 202.927 513.371 202.055C512.586 201.178 511.977 200.087 511.547 198.785L511.674 198.708Z" fill="black"/>
<path d="M512.007 170.647L512.47 170.824L502.152 197.816L501.689 197.639L512.007 170.647Z" fill="black"/>
<path d="M487.521 162.999C486.375 162.687 485.325 162.466 484.372 162.336C483.403 162.215 482.485 162.166 481.62 162.188C480.751 162.224 479.916 162.319 479.115 162.473C478.297 162.637 477.466 162.848 476.623 163.105L474.255 171.805L480.535 173.515C480.695 173.558 480.757 173.647 480.721 173.78L480.666 173.98L473.706 172.086L476.232 162.805C477.052 162.527 477.888 162.297 478.74 162.113C479.575 161.939 480.456 161.835 481.382 161.801C482.294 161.763 483.27 161.807 484.31 161.932C485.337 162.054 486.444 162.276 487.63 162.599C489.644 163.147 491.382 163.971 492.844 165.071C494.302 166.184 495.45 167.52 496.285 169.08C497.108 170.635 497.6 172.38 497.761 174.315C497.918 176.262 497.696 178.343 497.093 180.556C496.494 182.756 495.636 184.649 494.517 186.235C493.394 187.834 492.064 189.09 490.526 190.004C488.989 190.917 487.283 191.477 485.408 191.683C483.52 191.885 481.515 191.697 479.395 191.12C478.355 190.837 477.42 190.511 476.59 190.142C475.756 189.786 475.008 189.375 474.348 188.909C473.673 188.439 473.064 187.915 472.52 187.337C471.975 186.759 471.466 186.105 470.991 185.375L471.079 185.291C471.15 185.239 471.219 185.222 471.286 185.24C471.393 185.269 471.578 185.484 471.841 185.885C472.1 186.299 472.533 186.789 473.138 187.355C473.726 187.93 474.532 188.522 475.555 189.13C476.574 189.751 477.891 190.281 479.504 190.72C481.531 191.272 483.451 191.451 485.266 191.257C487.076 191.077 488.725 190.545 490.212 189.66C491.698 188.776 492.989 187.559 494.084 186.01C495.179 184.46 496.022 182.599 496.613 180.425C497.205 178.252 497.428 176.222 497.283 174.335C497.124 172.444 496.641 170.745 495.835 169.236C495.028 167.728 493.925 166.439 492.526 165.371C491.11 164.312 489.441 163.522 487.521 162.999Z" fill="black"/>
<path d="M461.67 186.521C461.547 186.507 461.457 186.441 461.402 186.324L444.325 156.289C444.331 156.359 444.329 156.428 444.321 156.497C444.312 156.579 444.303 156.654 444.295 156.722L441.087 184.111L440.677 184.063L444.039 155.362L444.162 155.376C444.244 155.386 444.313 155.443 444.37 155.546L461.535 185.716C461.531 185.632 461.535 185.543 461.546 185.447C461.556 185.365 461.565 185.29 461.573 185.221L464.785 157.792L465.195 157.84L461.834 186.54L461.67 186.521Z" fill="black"/>
<path d="M416.628 175.781C416.666 176.458 416.484 177.027 416.08 177.487C415.668 177.947 415.105 178.198 414.389 178.238C413.68 178.278 413.092 178.096 412.624 177.693C412.157 177.297 411.903 176.738 411.862 176.014L411.838 175.582C411.8 174.904 411.983 174.34 412.387 173.887C412.791 173.435 413.359 173.189 414.091 173.148C414.815 173.107 415.407 173.288 415.867 173.692C416.319 174.104 416.565 174.652 416.603 175.337L416.628 175.781Z" fill="black"/>
<path d="M373.27 187.703C373.32 187.608 373.386 187.552 373.467 187.535C373.588 187.509 373.806 187.605 374.119 187.821C374.422 188.053 374.85 188.28 375.404 188.502C375.944 188.726 376.621 188.894 377.433 189.005C378.249 189.13 379.223 189.073 380.357 188.834C381.518 188.59 382.512 188.191 383.339 187.636C384.156 187.098 384.806 186.468 385.288 185.747C385.771 185.025 386.092 184.239 386.251 183.388C386.397 182.54 386.38 181.691 386.202 180.841C385.972 179.747 385.571 178.88 384.999 178.24C384.414 177.602 383.725 177.105 382.932 176.751C382.138 176.396 381.261 176.144 380.299 175.994C379.34 175.857 378.369 175.73 377.386 175.613C376.406 175.509 375.435 175.382 374.474 175.232C373.512 175.081 372.632 174.816 371.833 174.434C371.036 174.066 370.348 173.541 369.768 172.86C369.177 172.195 368.761 171.289 368.52 170.142C368.276 168.981 368.243 167.853 368.422 166.759C368.603 165.678 368.986 164.681 369.569 163.769C370.155 162.871 370.943 162.092 371.932 161.434C372.921 160.775 374.103 160.3 375.48 160.011C376.438 159.809 377.314 159.717 378.106 159.734C378.896 159.737 379.641 159.827 380.34 160.004C381.029 160.197 381.684 160.461 382.304 160.796C382.927 161.144 383.542 161.557 384.15 162.035L384.086 162.133C384.054 162.182 384.026 162.216 384.002 162.236C383.98 162.268 383.936 162.292 383.869 162.306C383.788 162.323 383.654 162.259 383.469 162.115C383.273 161.987 383.012 161.817 382.685 161.603C382.361 161.404 381.979 161.195 381.539 160.978C381.098 160.76 380.58 160.573 379.983 160.417C379.39 160.274 378.73 160.187 378.005 160.156C377.269 160.142 376.456 160.229 375.565 160.416C374.256 160.691 373.139 161.144 372.215 161.776C371.277 162.41 370.531 163.151 369.977 164.001C369.412 164.866 369.047 165.81 368.881 166.831C368.702 167.856 368.724 168.901 368.949 169.967C369.136 170.858 369.439 171.597 369.859 172.185C370.265 172.776 370.753 173.252 371.321 173.611C371.893 173.984 372.53 174.266 373.233 174.457C373.924 174.663 374.655 174.82 375.424 174.926C376.196 175.045 376.976 175.135 377.764 175.195C378.554 175.268 379.336 175.365 380.108 175.484C380.88 175.604 381.618 175.766 382.324 175.97C383.018 176.19 383.653 176.493 384.227 176.88C384.805 177.28 385.306 177.788 385.731 178.403C386.146 179.034 386.451 179.816 386.647 180.747C386.837 181.651 386.85 182.55 386.686 183.445C386.524 184.352 386.186 185.192 385.672 185.962C385.157 186.733 384.468 187.406 383.602 187.983C382.724 188.562 381.67 188.981 380.442 189.239C379.065 189.529 377.804 189.561 376.658 189.337C375.498 189.116 374.35 188.618 373.214 187.842L373.27 187.703Z" fill="black"/>
<path d="M350.421 197.596L350.278 197.165L365.831 191.997L361.561 179.148L348.359 183.534L348.216 183.104L361.418 178.717L357.005 165.436L341.414 170.617L341.31 170.173L357.332 164.849L366.444 192.272L350.421 197.596Z" fill="black"/>
<path d="M313.473 183.702L313.808 183.544C313.92 183.491 314.024 183.518 314.12 183.624L321.869 190.617L335.603 184.12L335.112 173.693C335.091 173.551 335.148 173.448 335.285 173.384L335.582 173.243L337.04 204.439L336.667 204.615L313.473 183.702ZM335.631 184.562L322.194 190.919L335.904 203.291C336.031 203.398 336.145 203.496 336.248 203.584C336.344 203.69 336.449 203.8 336.563 203.913C336.548 203.753 336.536 203.599 336.527 203.452C336.511 203.322 336.502 203.175 336.5 203.009L335.631 184.562Z" fill="black"/>
<path d="M307.107 220.143L306.872 219.755L316.158 214.129L301.419 189.803L301.843 189.546L316.581 213.873L325.937 208.204L326.173 208.592L307.107 220.143Z" fill="black"/>
<path d="M288.727 235.229L288.452 234.869L297.054 228.279L279.79 205.743L280.183 205.442L297.446 227.978L306.114 221.339L306.39 221.698L288.727 235.229Z" fill="black"/>
<path d="M264.85 218.801L254.2 228.929L253.888 228.601L264.895 218.132L284.754 239.014L284.396 239.355L264.85 218.801Z" fill="black"/>
<path d="M258.462 265.998L258.116 265.705L268.716 253.206L258.389 244.448L249.391 255.058L249.045 254.764L258.043 244.154L247.37 235.103L236.743 247.633L236.423 247.308L247.344 234.431L269.382 253.121L258.462 265.998Z" fill="black"/>
<path d="M232.715 254.292C232.982 254.486 233.157 254.749 233.24 255.08C233.314 255.423 233.243 255.745 233.025 256.046C232.807 256.347 232.518 256.511 232.158 256.539C231.79 256.578 231.394 256.445 230.97 256.138C230.112 255.517 229.425 254.73 228.908 253.778C228.371 252.829 228.008 251.852 227.818 250.848L227.905 250.834C227.962 250.825 228.008 250.833 228.041 250.857C228.075 250.881 228.11 250.949 228.148 251.062C228.212 251.278 228.304 251.574 228.423 251.949C228.531 252.316 228.687 252.71 228.893 253.13C229.098 253.55 229.357 253.967 229.669 254.38C229.973 254.805 230.349 255.178 230.794 255.501C230.72 255.158 230.8 254.825 231.034 254.502C231.227 254.234 231.478 254.076 231.785 254.027C232.104 253.986 232.414 254.074 232.715 254.292Z" fill="black"/>
<path d="M247.465 281.815L247.296 282.145C247.24 282.255 247.142 282.298 247.001 282.272L219.21 277.539C219.008 277.512 218.818 277.477 218.64 277.433C218.469 277.407 218.288 277.368 218.098 277.318C218.25 277.442 218.391 277.56 218.519 277.671C218.652 277.801 218.789 277.94 218.929 278.089L238.634 298.663C238.738 298.762 238.761 298.866 238.705 298.976L238.649 299.086C238.593 299.196 238.494 299.238 238.353 299.213L210.132 295.323C209.74 295.277 209.369 295.203 209.02 295.102C209.349 295.363 209.626 295.62 209.851 295.873L229.987 315.604C230.09 315.703 230.108 315.819 230.039 315.954L229.889 316.247L208.376 295.005L208.564 294.638L237.566 298.672C237.836 298.717 238.053 298.759 238.219 298.797C238.091 298.686 237.929 298.534 237.735 298.342L217.454 277.22L217.642 276.854L247.465 281.815Z" fill="black"/>
<path d="M194.342 329.565L194.462 329.213C194.502 329.096 194.594 329.04 194.737 329.045L205.179 328.355L210.099 313.939L202.256 307.01C202.139 306.927 202.105 306.813 202.154 306.67L202.261 306.357L225.717 327.097L225.583 327.488L194.342 329.565ZM210.436 314.228L205.623 328.333L224.098 327.112C224.263 327.096 224.413 327.082 224.548 327.069C224.692 327.075 224.844 327.076 225.005 327.073C224.88 326.972 224.761 326.873 224.648 326.776C224.545 326.697 224.432 326.601 224.311 326.487L210.436 314.228Z" fill="black"/>
<path d="M144.52 463.564L144.079 461.699L43.9329 446.286C38.9007 445.507 34.2833 445.841 29.8535 439.919L28.7057 440.19L33.1149 458.842L34.2627 458.571C35.7339 452.618 38.8955 448.689 45.9626 449.746L65.2723 452.604L76.084 498.982L58.6894 511.274C52.8773 515.527 49.4389 513.158 46.0162 509.574L45.1554 509.777L50.989 534.455L51.8499 534.252C53.895 528.163 57.2445 526.311 61.2854 523.538L144.52 463.564ZM128.698 462.002L78.1761 497.578L67.628 452.956L128.698 462.002Z" fill="black"/>
<path d="M113.679 611.567C104.354 612.671 93.3054 610.348 86.325 597.698L73.29 574.075L156.162 528.346C159.906 526.281 164.375 525.835 167.446 528.35L168.221 527.923L157.18 507.915L156.406 508.342C156.896 512.281 154.136 515.825 150.393 517.891L75.2656 559.346C71.5221 561.411 67.053 561.857 63.9814 559.342L63.2069 559.769L95.4737 618.245L113.964 612.083L113.679 611.567Z" fill="black"/>
<path d="M179.132 683.465C171.054 686.278 159.809 686.828 149.373 675.854L129.717 655.185L169.137 617.696L186.159 635.595C190.211 639.857 187.875 645.934 184.413 651.255L185.021 651.894L204.199 633.657L203.591 633.017C197.783 636.511 191.916 638.236 187.863 633.974L170.841 616.075L203.869 584.666L220.182 601.819C230.111 612.26 228.998 623.464 225.144 631.999L225.549 632.425L236.968 616.696L193.299 570.777L192.659 571.385C194.127 575.062 192.36 579.177 189.27 582.115L127.263 641.084C124.173 644.022 119.974 645.58 116.376 643.93L115.736 644.538L163.256 694.506L179.538 683.891L179.132 683.465Z" fill="black"/>
<path d="M300.575 673.393C305.148 671.49 310.075 669.285 317.255 669.629L317.785 668.744L302.605 659.662L302.075 660.548C304.685 665.373 301.885 670.054 296.756 672.31L256.936 689.199L254.983 645.947C254.593 637.984 256.436 635.479 262.049 636.432L262.503 635.673L240.871 622.732L240.417 623.491C244.596 629.427 243.441 635.091 243.651 641.057L245.661 689.669L200.332 708.588C195.759 710.49 190.832 712.696 183.652 712.351L183.122 713.237L198.302 722.318L198.832 721.432C196.222 716.607 198.895 711.851 204.151 709.67L245.766 692.652L247.821 737.169C248.085 745.056 245.863 747.334 239.996 746.23L239.542 746.989L261.807 760.308L262.261 759.549C258.208 753.689 259.39 748.555 258.975 740.921L257.116 692.056L300.575 673.393Z" fill="black"/>
<path d="M380.418 681.979L378.526 681.673L326.008 768.326C323.364 772.678 321.908 777.073 314.742 778.903L314.554 780.067L333.476 783.122L333.664 781.957C328.725 778.322 326.303 773.899 329.98 767.772L340.002 751.021L386.99 758.756L391.702 779.528C393.41 786.524 389.907 788.796 385.286 790.589L385.145 791.462L410.18 795.504L410.321 794.63C405.476 790.413 405.044 786.61 404.026 781.816L380.418 681.979ZM372.927 696.002L386.493 756.286L341.227 748.979L372.927 696.002Z" fill="black"/>
<path d="M498.627 678.585C502.812 680.653 505.498 683.689 506.188 688.362L517.525 765.18L436.137 686.912L425.184 688.529L425.313 689.405C429.18 690.327 431.536 694.157 432.506 700.729L444.576 782.513C445.266 787.186 443.571 790.868 440.016 794.079L440.145 794.955L454.896 792.778L454.766 791.902C450.727 789.812 447.749 786.82 447.059 782.146L435.118 701.239L520.615 783.079L522.659 782.777L508.671 687.996C507.981 683.322 509.968 679.597 513.231 676.429L513.102 675.553L498.497 677.709L498.627 678.585Z" fill="black"/>
<path d="M519.367 673.952L519.773 674.738C523.724 674.359 527.189 677.216 529.149 681.016L568.491 757.271C570.451 761.071 570.772 765.551 568.172 768.551L568.578 769.337L601.726 752.235C627.669 738.851 639.207 707.516 625.147 680.263C610.343 651.569 578.851 643.263 552.909 656.647L519.367 673.952ZM535.774 667.81L553.724 658.549C575.212 647.463 597.943 656.473 613.288 686.216C628.091 714.91 622.137 739.382 600.649 750.468L583.092 759.526L535.774 667.81Z" fill="black"/>
<path d="M677.852 629.962C684.981 616.738 685.769 603.223 676.279 593.795C658.343 575.975 641.342 589.959 624.869 606.54L603.941 627.604L604.566 628.226C608.199 626.655 611.632 627.579 615.386 631.309L676.077 691.607C679.102 694.611 680.778 698.763 679.231 702.406L679.857 703.028L695.915 686.865L695.289 686.243C691.657 687.814 687.494 686.164 684.469 683.16L656.627 655.498L665.019 647.051C667.401 644.652 669.576 642.255 671.543 639.65L711.079 651.371C718.051 653.531 723.564 654.864 722.227 659.13L722.852 659.752L738.6 643.901L737.974 643.28C731.538 645.795 723.11 643.016 717.284 641.58L677.852 629.962ZM655.167 654.047L617.522 616.646L625.706 608.408C638.76 595.269 650.477 586.395 667.058 602.868C681.24 616.959 676.613 632.461 663.248 645.913L655.167 654.047Z" fill="black"/>
<path d="M775.306 546.123C780.405 553.021 784.278 563.626 776.877 576.885L762.936 601.86L715.304 575.272L727.377 553.645C730.251 548.495 736.766 548.924 742.891 550.654L743.322 549.882L720.15 536.947L719.719 537.72C724.793 542.241 728.191 547.345 725.317 552.495L713.245 574.122L673.337 551.846L684.906 531.12C691.948 518.504 703.008 516.235 712.328 517.385L712.615 516.87L694.155 510.618L663.184 566.102L663.956 566.534C667.04 564.034 671.507 564.501 675.24 566.585L750.164 608.407C753.897 610.491 756.64 614.048 756.13 617.985L756.903 618.416L790.605 558.039L775.594 545.608L775.306 546.123Z" fill="black"/>
<path d="M708.582 462.402L708.153 464.259L790.66 522.134C794.804 525.047 799.068 526.784 800.409 534.017L801.552 534.28L805.84 515.705L804.696 515.442C800.761 520.102 796.211 522.212 790.375 518.155L774.416 507.097L785.213 460.978L806.141 457.683C813.197 456.452 815.219 460.079 816.692 464.784L817.549 464.982L823.222 440.406L822.365 440.208C817.858 444.736 814.055 444.911 809.23 445.603L708.582 462.402ZM722.001 470.767L782.729 461.308L772.471 505.745L722.001 470.767Z" fill="black"/>
<path d="M708.12 328.106L708.561 329.971L808.707 345.383C813.739 346.163 818.357 345.829 822.787 351.751L823.934 351.479L819.525 332.827L818.377 333.099C816.906 339.052 813.745 342.981 806.677 341.924L787.368 339.066L776.556 292.688L793.951 280.395C799.763 276.143 803.201 278.512 806.624 282.096L807.485 281.892L801.651 257.214L800.79 257.418C798.745 263.506 795.395 265.359 791.355 268.132L708.12 328.106ZM723.942 329.668L774.464 294.092L785.012 338.713L723.942 329.668Z" fill="black"/>
<path d="M738.981 180.122C748.306 179.018 759.354 181.341 766.335 193.991L779.37 217.614L696.498 263.343C692.754 265.408 688.285 265.854 685.213 263.339L684.439 263.766L695.479 283.774L696.254 283.347C695.764 279.407 698.524 275.864 702.267 273.798L777.394 232.343C781.138 230.277 785.607 229.832 788.678 232.347L789.453 231.92L757.186 173.444L738.696 179.606L738.981 180.122Z" fill="black"/>
<path d="M673.528 108.204C681.606 105.391 692.851 104.842 703.287 115.816L722.943 136.485L683.523 173.973L666.501 156.074C662.449 151.813 664.785 145.735 668.247 140.415L667.639 139.775L648.461 158.013L649.069 158.652C654.877 155.158 660.744 153.434 664.797 157.695L681.819 175.594L648.791 207.003L632.478 189.85C622.549 179.409 623.662 168.206 627.516 159.671L627.111 159.245L615.692 174.973L659.361 220.893L660.001 220.285C658.533 216.608 660.3 212.492 663.39 209.554L725.397 150.586C728.487 147.647 732.686 146.089 736.284 147.739L736.924 147.131L689.404 97.1635L673.122 107.778L673.528 108.204Z" fill="black"/>
<path d="M552.085 118.277C547.512 120.179 542.585 122.385 535.405 122.04L534.875 122.926L550.055 132.007L550.585 131.121C547.975 126.296 550.775 121.615 555.904 119.359L595.724 102.47L597.677 145.723C598.067 153.685 596.224 156.191 590.611 155.237L590.157 155.996L611.789 168.937L612.243 168.178C608.064 162.243 609.219 156.578 609.009 150.612L606.999 102L652.328 83.0814C656.901 81.1794 661.828 78.9735 669.008 79.3181L669.538 78.4325L654.358 69.3513L653.828 70.2368C656.438 75.062 653.765 79.8183 648.509 81.9993L606.894 99.017L604.839 54.5004C604.576 46.6131 606.797 44.335 612.664 45.4396L613.118 44.6806L590.853 31.3615L590.399 32.1205C594.452 37.9803 593.27 43.1139 593.685 50.7481L595.544 99.6133L552.085 118.277Z" fill="black"/>
<path d="M472.222 109.71L474.114 110.016L526.632 23.363C529.276 19.0109 530.732 14.6164 537.898 12.7862L538.085 11.6218L519.164 8.56743L518.976 9.73182C523.915 13.3666 526.337 17.7898 522.66 23.9165L512.638 40.6677L465.65 32.9331L460.938 12.1609C459.23 5.16479 462.733 2.89277 467.354 1.09982L467.494 0.226527L442.46 -3.8147L442.319 -2.94141C447.164 1.27554 447.596 5.07872 448.614 9.87267L472.222 109.71ZM479.713 95.6865L466.147 35.4029L511.413 42.71L479.713 95.6865Z" fill="black"/>
<path d="M354.033 113.084C349.848 111.016 347.162 107.98 346.472 103.307L335.135 26.4887L416.523 104.757L427.476 103.14L427.346 102.264C423.48 101.342 421.124 97.5118 420.154 90.9399L408.084 9.15633C407.394 4.48298 409.089 0.8007 412.644 -2.41002L412.514 -3.28628L397.764 -1.10929L397.894 -0.233041C401.933 1.85686 404.911 4.84941 405.601 9.52276L417.542 90.4301L332.045 8.59014L330.001 8.8919L343.989 103.673C344.679 108.347 342.692 112.072 339.429 115.24L339.558 116.116L354.163 113.96L354.033 113.084Z" fill="black"/>
<path d="M333.293 117.717L332.887 116.93C328.936 117.31 325.471 114.453 323.511 110.653L284.169 34.3976C282.209 30.598 281.888 26.1182 284.488 23.118L284.082 22.3319L250.934 39.4339C224.991 52.8181 213.453 84.1534 227.513 111.406C242.316 140.1 273.809 148.406 299.751 135.021L333.293 117.717ZM316.886 123.859L298.936 133.12C277.448 144.205 254.717 135.196 239.372 105.453C224.569 76.7594 230.523 52.2866 252.011 41.2007L269.568 32.1426L316.886 123.859Z" fill="black"/>
<path d="M174.788 161.707C167.659 174.931 166.872 188.446 176.361 197.874C194.297 215.694 211.298 201.711 227.771 185.13L248.7 164.065L248.074 163.444C244.441 165.015 241.008 164.09 237.254 160.361L176.563 100.063C173.539 97.0586 171.862 92.9064 173.409 89.2633L172.784 88.6417L156.725 104.805L157.351 105.427C160.984 103.856 165.147 105.505 168.171 108.51L196.014 136.172L187.622 144.619C185.239 147.017 183.064 149.415 181.097 152.02L141.561 140.299C134.59 138.139 129.076 136.806 130.414 132.54L129.788 131.918L114.04 147.769L114.666 148.39C121.102 145.875 129.531 148.654 135.356 150.09L174.788 161.707ZM197.473 137.623L235.119 175.024L226.934 183.262C213.88 196.401 202.163 205.274 185.583 188.801C171.4 174.711 176.027 159.209 189.392 145.756L197.473 137.623Z" fill="black"/>
<path d="M78.0668 246.078C72.9154 239.194 68.9695 228.587 76.3098 215.252L90.1353 190.135L138.038 216.503L126.066 238.254C123.215 243.432 116.683 243.042 110.532 241.343L110.105 242.12L133.409 254.948L133.836 254.171C128.723 249.669 125.287 244.573 128.137 239.394L140.11 217.643L180.245 239.735L168.771 260.58C161.787 273.268 150.715 275.608 141.366 274.51L141.081 275.028L159.622 281.185L190.337 225.385L189.561 224.957C186.484 227.481 182.004 227.039 178.249 224.973L102.899 183.496C99.1445 181.429 96.3746 177.88 96.8615 173.931L96.0847 173.503L62.6613 234.224L77.7817 246.596L78.0668 246.078Z" fill="black"/>
<path d="M144.058 329.288L144.487 327.43L61.9798 269.555C57.8363 266.642 53.5718 264.905 52.2314 257.673L51.0883 257.409L46.8004 275.984L47.9435 276.248C51.8787 271.588 56.4292 269.478 62.2653 273.534L78.2238 284.592L67.4271 330.711L46.4995 334.007C39.443 335.237 37.4209 331.61 35.9484 326.906L35.0911 326.708L29.4178 351.284L30.2751 351.482C34.7818 346.954 38.5848 346.778 43.4101 346.086L144.058 329.288ZM130.639 320.922L69.9111 330.381L80.1692 285.944L130.639 320.922Z" fill="black"/>
</g>
</mask>
<g mask="url(#mask0)">
<rect y="404.409" width="852.66" height="420.997" fill="#2C2928"/>
</g>
</g>
<defs>
<clipPath id="clip0">
<rect width="852.66" height="820.66" fill="white"/>
</clipPath>
<clipPath id="clip1">
<rect width="849.391" height="852.918" fill="white" transform="translate(3.27496 -32.2515) rotate(0.22)"/>
</clipPath>
</defs>
</svg>
