<?xml version="1.0" encoding="utf-8"?>
<!-- Generator: Adobe Illustrator 24.2.3, SVG Export Plug-In . SVG Version: 6.00 Build 0)  -->
<svg version="1.1" id="Layer_1" xmlns="http://www.w3.org/2000/svg" xmlns:xlink="http://www.w3.org/1999/xlink" x="0px" y="0px"
	 viewBox="0 0 426.2 410" style="enable-background:new 0 0 426.2 410;" xml:space="preserve">
<style type="text/css">
	.st0{font-family:'Lato-Hairline';}
	.st1{font-size:20.72px;}
	.st2{font-size:20.6463px;}
	.st3{font-size:20.845px;}
	.st4{font-size:20.7748px;}
	.st5{font-size:20.7831px;}
	.st6{font-size:9px;}
	.st7{font-size:20.7666px;}
	.st8{font-size:20.7707px;}
	.st9{font-size:20.6671px;}
	.st10{font-size:20.6806px;}
	.st11{font-size:20.6629px;}
	.st12{font-size:20.664px;}
	.st13{font-family:'Juana-Light';}
	.st14{font-size:74px;}
	.st15{font-size:73.7962px;}
	.st16{font-size:73.9889px;}
	.st17{font-size:74.0961px;}
	.st18{font-size:73.7814px;}
	.st19{font-size:73.603px;}
</style>
<g id="Layer_2_1_">
	<g id="Layer_1-2">
		<text transform="matrix(0.3267 0.9451 -0.9451 0.3267 96.2503 228.32)" class="st0 st1">U</text>
		<text transform="matrix(0.4423 0.8969 -0.8969 0.4423 101.97 244.2101)" class="st0 st1">X</text>
		<text transform="matrix(0.5219 0.853 -0.853 0.5219 107.8306 255.7401)" class="st0 st2">/</text>
		<text transform="matrix(0.6063 0.7952 -0.7952 0.6063 112.17 263.1404)" class="st0 st3">U</text>
		<text transform="matrix(0.6815 0.7318 -0.7318 0.6815 122.4896 276.2101)" class="st0 st1">I</text>
		<text transform="matrix(0.7779 0.6283 -0.6283 0.7779 130.9897 285.1796)" class="st0 st4">D</text>
		<text transform="matrix(0.853 0.5219 -0.5219 0.853 144.7899 296.0404)" class="st0 st2">E</text>
		<text transform="matrix(0.9043 0.4269 -0.4269 0.9043 156.7198 303.1901)" class="st0 st1">S</text>
		<text transform="matrix(0.9371 0.3489 -0.3489 0.9371 167.5606 308.1499)" class="st0 st5">I</text>
		<text transform="matrix(0.9668 0.2554 -0.2554 0.9668 174.5199 310.97)" class="st0 st1">G</text>
		<text transform="matrix(0.9937 0.1125 -0.1125 0.9937 191.5799 315.3299)" class="st0 st1">N</text>
		<text transform="matrix(0.998 -6.279052e-02 6.279052e-02 0.998 217.94 311.92)" class="st0 st6">•</text>
		<text transform="matrix(0.9778 -0.2095 0.2095 0.9778 233.9994 315.3197)" class="st0 st7">S</text>
		<text transform="matrix(0.9477 -0.3192 0.3192 0.9477 245.9104 312.6595)" class="st0 st8">E</text>
		<text transform="matrix(0.9023 -0.4311 0.4311 0.9023 259.17 308.1104)" class="st0 st9">A</text>
		<text transform="matrix(0.853 -0.5219 0.5219 0.853 271.0302 302.4396)" class="st0 st2">T</text>
		<text transform="matrix(0.7915 -0.6112 0.6112 0.7915 282.5497 295.2996)" class="st0 st10">T</text>
		<text transform="matrix(0.722 -0.6919 0.6919 0.722 293.1093 286.9596)" class="st0 st11">L</text>
		<text transform="matrix(0.6439 -0.7651 0.7651 0.6439 301.78 278.5999)" class="st0 st1">E</text>
		<text transform="matrix(0.5834 -0.8122 0.8122 0.5834 310.3801 268.05)" class="st0 st1">,</text>
		<text transform="matrix(0.4512 -0.8924 0.8924 0.4512 316.4608 259.7999)" class="st0 st12">W</text>
		<text transform="matrix(0.3193 -0.9477 0.9477 0.3193 325.83 240.6498)" class="st0 st1">A</text>
		<text transform="matrix(0.2338 0.9723 -0.9723 0.2338 17.0704 219.05)" class="st13 st14">A</text>
		<text transform="matrix(0.4865 0.8737 -0.8737 0.4865 31.8697 273.3699)" class="st13 st14">L</text>
		<text transform="matrix(0.6919 0.722 -0.722 0.6919 56.7491 316.0497)" class="st13 st15">E</text>
		<text transform="matrix(0.8601 0.5101 -0.5101 0.8601 93.5197 353.0102)" class="st13 st16">X</text>
		<text transform="matrix(0.9878 0.1556 -0.1556 0.9878 159.1201 385.94)" class="st13 st14">A</text>
		<text transform="matrix(0.9887 -0.1498 0.1498 0.9887 216.1398 393.7802)" class="st13 st17">N</text>
		<text transform="matrix(0.8869 -0.4619 0.4619 0.8869 279.6899 382.3901)" class="st13 st14">D</text>
		<text transform="matrix(0.7021 -0.7121 0.7121 0.7021 335.6501 350.8397)" class="st13 st18">R</text>
		<text transform="matrix(0.484 -0.875 0.875 0.484 374.4101 309.4997)" class="st13 st14">E</text>
		<text transform="matrix(0.2212 -0.9752 0.9752 0.2212 398.8303 263.2698)" class="st13 st19">A</text>
	</g>
</g>
</svg>
