<svg width="428" height="431" viewBox="0 0 428 431" fill="none" xmlns="http://www.w3.org/2000/svg">
<g clip-path="url(#clip0)">
<path d="M99.185 254.856C99.4371 255.595 99.7932 256.21 100.253 256.703C100.722 257.199 101.254 257.572 101.85 257.821C102.446 258.07 103.088 258.198 103.776 258.204C104.464 258.21 105.158 258.093 105.857 257.854L114.485 254.909L114.566 255.144L105.938 258.09C105.212 258.337 104.49 258.456 103.771 258.446C103.053 258.436 102.381 258.297 101.757 258.028C101.132 257.76 100.575 257.366 100.084 256.848C99.6019 256.334 99.2304 255.694 98.9693 254.93C98.7082 254.165 98.61 253.428 98.6748 252.72C98.7483 252.016 98.95 251.367 99.2799 250.773C99.6098 250.179 100.056 249.658 100.618 249.211C101.181 248.763 101.825 248.415 102.55 248.168L111.178 245.222L111.259 245.458L102.65 248.396C101.951 248.635 101.328 248.968 100.78 249.396C100.239 249.822 99.8062 250.316 99.4805 250.88C99.1613 251.441 98.967 252.059 98.8977 252.732C98.837 253.409 98.9328 254.117 99.185 254.856Z" fill="black"/>
<path d="M111.502 265.425L115.587 257.642L115.687 257.847C115.712 257.897 115.713 257.938 115.691 257.972C115.672 258.012 115.655 258.047 115.639 258.078L111.7 265.524L111.881 265.54L119.985 266.978C120.025 266.981 120.064 266.989 120.101 267.002C120.147 267.018 120.179 267.044 120.197 267.082L120.297 267.286L111.68 265.719L107.374 273.875L107.274 273.67C107.249 273.62 107.247 273.576 107.266 273.536C107.291 273.493 107.31 273.46 107.322 273.439L111.482 265.619C111.448 265.628 111.392 265.625 111.315 265.609L102.758 264.092C102.714 264.083 102.671 264.073 102.628 264.063C102.591 264.051 102.564 264.026 102.545 263.988L102.445 263.784L111.502 265.425Z" fill="black"/>
<path d="M107.707 275.858C107.649 275.869 107.601 275.858 107.564 275.824C107.531 275.795 107.504 275.763 107.482 275.728L107.439 275.657L124.218 273.235C124.31 273.228 124.381 273.265 124.432 273.348L124.485 273.437L107.707 275.858Z" fill="black"/>
<path d="M117.243 288.593C117.714 289.216 118.245 289.689 118.836 290.012C119.437 290.337 120.059 290.525 120.703 290.574C121.347 290.624 121.996 290.544 122.652 290.334C123.307 290.124 123.929 289.797 124.519 289.351L131.79 283.851L131.94 284.049L124.669 289.549C124.057 290.011 123.409 290.351 122.723 290.566C122.037 290.782 121.356 290.86 120.679 290.8C120.002 290.741 119.349 290.542 118.721 290.203C118.102 289.866 117.549 289.375 117.061 288.731C116.574 288.086 116.25 287.418 116.089 286.725C115.939 286.033 115.927 285.354 116.054 284.686C116.181 284.018 116.442 283.384 116.836 282.783C117.23 282.182 117.732 281.65 118.344 281.187L125.615 275.687L125.765 275.886L118.51 281.373C117.921 281.819 117.433 282.331 117.047 282.908C116.667 283.482 116.411 284.087 116.278 284.725C116.151 285.358 116.16 286.005 116.305 286.666C116.459 287.328 116.772 287.971 117.243 288.593Z" fill="black"/>
<path d="M124.935 298.056L124.766 297.874L135.418 288.03L135.587 288.213L124.935 298.056Z" fill="black"/>
<path d="M147.056 308.185C146.333 309.074 145.559 309.762 144.735 310.249C143.916 310.74 143.08 311.039 142.227 311.147C141.38 311.258 140.535 311.18 139.692 310.913C138.85 310.646 138.043 310.198 137.272 309.571L133.255 306.3L142.411 295.052L146.429 298.322C147.2 298.95 147.802 299.649 148.234 300.42C148.667 301.191 148.914 302.002 148.977 302.855C149.045 303.712 148.922 304.591 148.607 305.493C148.297 306.398 147.78 307.295 147.056 308.185ZM146.848 308.015C147.558 307.142 148.065 306.267 148.368 305.392C148.681 304.515 148.807 303.665 148.748 302.842C148.688 302.018 148.448 301.235 148.028 300.493C147.614 299.755 147.037 299.085 146.298 298.483L142.473 295.37L133.578 306.297L137.403 309.41C138.142 310.012 138.915 310.44 139.722 310.696C140.534 310.957 141.349 311.033 142.168 310.924C142.986 310.816 143.791 310.522 144.581 310.044C145.381 309.564 146.137 308.888 146.848 308.015Z" fill="black"/>
<path d="M161.985 309.182L161.866 309.376L154.865 305.057L151.297 310.84L157.239 314.507L157.119 314.701L151.177 311.034L147.488 317.012L154.506 321.342L154.369 321.526L147.157 317.075L154.773 304.732L161.985 309.182Z" fill="black"/>
<path d="M170.928 314.954C170.879 314.977 170.836 314.979 170.798 314.962C170.742 314.935 170.685 314.831 170.626 314.65C170.576 314.465 170.474 314.245 170.321 313.988C170.174 313.734 169.956 313.462 169.666 313.171C169.38 312.874 168.975 312.6 168.451 312.35C167.915 312.095 167.398 311.952 166.9 311.921C166.411 311.887 165.961 311.94 165.55 312.08C165.138 312.221 164.772 312.436 164.45 312.727C164.134 313.02 163.882 313.363 163.695 313.756C163.454 314.261 163.35 314.727 163.383 315.156C163.422 315.588 163.546 315.995 163.754 316.377C163.961 316.76 164.234 317.127 164.571 317.479C164.911 317.825 165.259 318.17 165.615 318.516C165.973 318.855 166.321 319.201 166.658 319.553C166.995 319.905 167.265 320.278 167.467 320.673C167.672 321.061 167.787 321.479 167.81 321.927C167.843 322.371 167.734 322.858 167.481 323.388C167.225 323.924 166.896 324.383 166.492 324.764C166.091 325.14 165.636 325.42 165.127 325.606C164.621 325.785 164.07 325.856 163.477 325.817C162.883 325.779 162.268 325.608 161.632 325.305C161.189 325.094 160.813 324.865 160.502 324.617C160.189 324.376 159.92 324.114 159.695 323.831C159.48 323.544 159.299 323.24 159.154 322.919C159.012 322.591 158.893 322.239 158.796 321.864L158.851 321.845C158.879 321.835 158.901 321.83 158.916 321.83C158.934 321.823 158.959 321.827 158.99 321.842C159.028 321.86 159.061 321.926 159.091 322.039C159.131 322.15 159.183 322.297 159.248 322.481C159.316 322.659 159.405 322.858 159.514 323.079C159.623 323.299 159.773 323.531 159.963 323.775C160.156 324.012 160.392 324.247 160.671 324.48C160.96 324.709 161.31 324.922 161.721 325.118C162.326 325.406 162.908 325.565 163.468 325.595C164.034 325.628 164.556 325.559 165.035 325.389C165.523 325.217 165.955 324.952 166.331 324.596C166.714 324.243 167.023 323.82 167.257 323.327C167.454 322.916 167.558 322.529 167.569 322.168C167.587 321.809 167.538 321.472 167.421 321.156C167.306 320.833 167.138 320.528 166.917 320.238C166.704 319.946 166.461 319.661 166.187 319.385C165.916 319.103 165.633 318.831 165.338 318.567C165.045 318.298 164.764 318.022 164.493 317.74C164.222 317.458 163.977 317.169 163.758 316.873C163.549 316.574 163.388 316.261 163.277 315.932C163.169 315.597 163.124 315.243 163.141 314.869C163.168 314.491 163.284 314.088 163.489 313.658C163.688 313.24 163.957 312.878 164.294 312.572C164.634 312.26 165.023 312.028 165.462 311.878C165.901 311.728 166.381 311.669 166.9 311.703C167.426 311.739 167.973 311.893 168.54 312.163C169.176 312.466 169.688 312.837 170.076 313.274C170.471 313.715 170.776 314.262 170.992 314.916L170.928 314.954Z" fill="black"/>
<path d="M170.821 328.979L170.588 328.892L175.701 315.319L175.934 315.407L170.821 328.979Z" fill="black"/>
<path d="M183.062 332.95C183.636 333.104 184.161 333.213 184.637 333.276C185.122 333.335 185.581 333.358 186.013 333.345C186.448 333.326 186.865 333.277 187.265 333.198C187.673 333.115 188.088 333.008 188.509 332.878L189.677 328.525L186.535 327.682C186.455 327.661 186.424 327.617 186.442 327.55L186.469 327.45L189.951 328.384L188.705 333.027C188.296 333.167 187.878 333.284 187.453 333.377C187.036 333.466 186.596 333.519 186.133 333.538C185.677 333.559 185.189 333.539 184.669 333.478C184.156 333.419 183.602 333.31 183.009 333.15C182.001 332.88 181.131 332.471 180.399 331.924C179.668 331.371 179.092 330.705 178.671 329.927C178.257 329.151 178.008 328.28 177.924 327.313C177.842 326.34 177.95 325.3 178.247 324.193C178.542 323.092 178.968 322.144 179.525 321.35C180.083 320.548 180.745 319.918 181.512 319.459C182.279 318.999 183.131 318.717 184.068 318.61C185.011 318.506 186.013 318.596 187.074 318.881C187.594 319.02 188.062 319.182 188.478 319.365C188.895 319.541 189.269 319.745 189.6 319.977C189.938 320.211 190.244 320.471 190.517 320.759C190.79 321.047 191.046 321.373 191.284 321.737L191.241 321.779C191.205 321.806 191.17 321.814 191.137 321.805C191.084 321.791 190.991 321.684 190.859 321.484C190.728 321.277 190.511 321.033 190.208 320.751C189.913 320.465 189.509 320.171 188.997 319.869C188.486 319.56 187.827 319.297 187.02 319.081C186.006 318.809 185.046 318.723 184.139 318.823C183.235 318.916 182.412 319.185 181.67 319.63C180.929 320.074 180.286 320.685 179.741 321.461C179.197 322.238 178.779 323.17 178.487 324.257C178.195 325.344 178.087 326.359 178.163 327.302C178.246 328.247 178.49 329.095 178.896 329.848C179.302 330.6 179.856 331.242 180.557 331.774C181.267 332.3 182.102 332.692 183.062 332.95Z" fill="black"/>
<path d="M196.149 321.11C196.21 321.117 196.255 321.15 196.283 321.209L204.855 336.284C204.852 336.249 204.852 336.214 204.856 336.18C204.861 336.139 204.866 336.101 204.87 336.067L206.48 322.32L206.685 322.344L204.998 336.749L204.936 336.742C204.895 336.737 204.86 336.709 204.832 336.657L196.216 321.514C196.218 321.556 196.216 321.601 196.211 321.649C196.206 321.69 196.202 321.728 196.197 321.762L194.585 335.53L194.379 335.506L196.066 321.1L196.149 321.11Z" fill="black"/>
<path d="M218.797 326.068C218.777 325.729 218.868 325.444 219.069 325.213C219.275 324.981 219.557 324.855 219.915 324.834C220.27 324.813 220.565 324.903 220.8 325.104C221.035 325.302 221.163 325.582 221.184 325.945L221.197 326.161C221.217 326.5 221.126 326.783 220.924 327.011C220.723 327.238 220.438 327.362 220.072 327.384C219.709 327.405 219.412 327.315 219.181 327.114C218.954 326.908 218.83 326.633 218.81 326.29L218.797 326.068Z" fill="black"/>
<path d="M240.64 320.543C240.615 320.591 240.582 320.619 240.542 320.628C240.481 320.641 240.372 320.593 240.215 320.485C240.064 320.368 239.849 320.255 239.572 320.144C239.301 320.031 238.962 319.947 238.555 319.891C238.147 319.829 237.659 319.858 237.091 319.977C236.51 320.099 236.012 320.299 235.598 320.577C235.189 320.846 234.863 321.162 234.622 321.523C234.38 321.885 234.219 322.278 234.139 322.704C234.066 323.129 234.075 323.554 234.164 323.98C234.279 324.528 234.48 324.962 234.766 325.283C235.059 325.602 235.404 325.851 235.802 326.028C236.199 326.206 236.639 326.332 237.12 326.408C237.6 326.476 238.087 326.54 238.579 326.598C239.07 326.65 239.556 326.714 240.038 326.789C240.519 326.864 240.96 326.998 241.36 327.189C241.759 327.373 242.104 327.636 242.394 327.977C242.69 328.31 242.898 328.764 243.019 329.338C243.141 329.92 243.158 330.484 243.068 331.032C242.977 331.574 242.786 332.073 242.494 332.529C242.2 332.979 241.806 333.369 241.311 333.699C240.815 334.029 240.223 334.267 239.534 334.412C239.054 334.513 238.615 334.559 238.218 334.551C237.823 334.549 237.45 334.504 237.099 334.415C236.754 334.319 236.427 334.186 236.116 334.019C235.804 333.844 235.496 333.637 235.192 333.398L235.224 333.349C235.24 333.324 235.254 333.307 235.266 333.298C235.277 333.281 235.299 333.27 235.333 333.262C235.373 333.254 235.44 333.286 235.533 333.358C235.631 333.422 235.762 333.507 235.925 333.614C236.087 333.714 236.279 333.819 236.499 333.928C236.72 334.036 236.98 334.13 237.278 334.208C237.576 334.28 237.906 334.323 238.269 334.339C238.638 334.346 239.045 334.303 239.491 334.209C240.147 334.071 240.706 333.844 241.169 333.528C241.638 333.21 242.012 332.839 242.289 332.414C242.572 331.98 242.755 331.508 242.838 330.996C242.928 330.483 242.917 329.96 242.805 329.426C242.711 328.98 242.559 328.609 242.349 328.315C242.145 328.019 241.901 327.781 241.616 327.601C241.33 327.414 241.011 327.273 240.659 327.177C240.313 327.074 239.947 326.995 239.562 326.942C239.175 326.882 238.784 326.838 238.39 326.808C237.994 326.771 237.603 326.723 237.216 326.663C236.829 326.603 236.46 326.522 236.106 326.42C235.758 326.309 235.441 326.157 235.153 325.964C234.864 325.763 234.613 325.509 234.4 325.201C234.192 324.885 234.039 324.493 233.941 324.027C233.846 323.574 233.839 323.124 233.922 322.676C234.003 322.222 234.172 321.801 234.429 321.415C234.687 321.03 235.033 320.692 235.466 320.403C235.906 320.113 236.434 319.904 237.049 319.774C237.738 319.629 238.37 319.613 238.944 319.725C239.525 319.836 240.099 320.086 240.668 320.474L240.64 320.543Z" fill="black"/>
<path d="M252.178 315.483L252.25 315.699L244.445 318.295L246.589 324.744L253.215 322.54L253.287 322.756L246.661 324.96L248.878 331.625L256.703 329.023L256.755 329.245L248.714 331.92L244.137 318.157L252.178 315.483Z" fill="black"/>
<path d="M271.015 322.927L270.846 323.007C270.79 323.033 270.738 323.02 270.69 322.966L266.79 319.447L259.879 322.717L260.126 327.963C260.137 328.035 260.108 328.087 260.039 328.119L259.889 328.19L259.156 312.492L259.343 312.403L271.015 322.927ZM259.865 322.494L266.627 319.295L259.727 313.07C259.664 313.016 259.606 312.967 259.554 312.922C259.506 312.869 259.453 312.813 259.396 312.757C259.403 312.837 259.409 312.914 259.414 312.989C259.422 313.054 259.426 313.128 259.428 313.211L259.865 322.494Z" fill="black"/>
<path d="M274.024 304.237L274.143 304.432L269.483 307.258L276.886 319.465L276.674 319.594L269.271 307.387L264.576 310.234L264.458 310.04L274.024 304.237Z" fill="black"/>
<path d="M283.574 296.941L283.712 297.122L279.386 300.436L288.068 311.769L287.871 311.92L279.189 300.587L274.83 303.926L274.692 303.745L283.574 296.941Z" fill="black"/>
<path d="M295.638 305.153L300.998 300.055L301.155 300.22L295.615 305.489L285.62 294.979L285.8 294.808L295.638 305.153Z" fill="black"/>
<path d="M298.524 281.072L298.698 281.22L293.377 287.493L298.56 291.889L303.077 286.564L303.251 286.711L298.734 292.036L304.091 296.579L309.425 290.29L309.586 290.453L304.104 296.917L293.043 287.535L298.524 281.072Z" fill="black"/>
<path d="M311.467 286.922C311.333 286.825 311.245 286.693 311.203 286.527C311.166 286.355 311.202 286.193 311.311 286.042C311.421 285.891 311.566 285.809 311.746 285.795C311.931 285.775 312.13 285.842 312.343 285.996C312.773 286.308 313.118 286.703 313.378 287.181C313.647 287.657 313.829 288.147 313.925 288.651L313.881 288.658C313.852 288.663 313.829 288.659 313.813 288.647C313.796 288.635 313.778 288.6 313.759 288.544C313.727 288.435 313.681 288.287 313.621 288.099C313.567 287.914 313.488 287.717 313.385 287.506C313.282 287.295 313.152 287.086 312.996 286.878C312.843 286.665 312.655 286.478 312.431 286.316C312.468 286.488 312.428 286.655 312.311 286.817C312.213 286.951 312.088 287.031 311.933 287.056C311.773 287.076 311.618 287.032 311.467 286.922Z" fill="black"/>
<path d="M304.51 273.262L304.595 273.096C304.623 273.041 304.672 273.02 304.743 273.033L318.73 275.415C318.832 275.428 318.927 275.446 319.017 275.468C319.103 275.481 319.194 275.5 319.29 275.526C319.213 275.463 319.142 275.404 319.078 275.348C319.011 275.283 318.942 275.213 318.871 275.138L308.954 264.783C308.902 264.733 308.89 264.681 308.918 264.625L308.947 264.57C308.975 264.515 309.025 264.493 309.095 264.506L323.299 266.464C323.496 266.487 323.683 266.524 323.858 266.575C323.693 266.444 323.553 266.315 323.44 266.187L313.306 256.257C313.254 256.207 313.245 256.149 313.28 256.081L313.355 255.933L324.182 266.624L324.088 266.809L309.492 264.778C309.356 264.756 309.246 264.735 309.163 264.715C309.228 264.772 309.309 264.848 309.407 264.945L319.614 275.575L319.519 275.759L304.51 273.262Z" fill="black"/>
<path d="M330.784 249.03L330.724 249.207C330.704 249.266 330.658 249.294 330.586 249.291L325.345 249.637L322.876 256.873L326.812 260.351C326.871 260.393 326.888 260.45 326.864 260.522L326.81 260.679L315.037 250.269L315.104 250.073L330.784 249.03ZM322.707 256.728L325.122 249.649L315.849 250.261C315.766 250.27 315.691 250.277 315.623 250.283C315.551 250.28 315.475 250.28 315.394 250.281C315.457 250.332 315.517 250.381 315.573 250.43C315.625 250.47 315.682 250.518 315.742 250.575L322.707 256.728Z" fill="black"/>
<path d="M328.746 176.458C328.494 175.719 328.138 175.104 327.678 174.611C327.209 174.115 326.677 173.742 326.081 173.493C325.485 173.244 324.843 173.116 324.155 173.11C323.467 173.104 322.773 173.221 322.074 173.459L313.446 176.405L313.365 176.17L321.993 173.224C322.719 172.976 323.441 172.858 324.16 172.868C324.878 172.878 325.55 173.017 326.174 173.286C326.799 173.554 327.356 173.948 327.847 174.466C328.329 174.98 328.701 175.62 328.962 176.384C329.223 177.149 329.321 177.886 329.256 178.594C329.183 179.297 328.981 179.947 328.651 180.541C328.321 181.135 327.875 181.656 327.313 182.103C326.75 182.551 326.106 182.898 325.381 183.146L316.753 186.092L316.673 185.856L325.281 182.918C325.98 182.679 326.603 182.346 327.151 181.918C327.692 181.492 328.125 180.998 328.451 180.434C328.77 179.873 328.964 179.255 329.033 178.582C329.094 177.905 328.998 177.197 328.746 176.458Z" fill="black"/>
<path d="M316.429 165.899L312.344 173.682L312.244 173.477C312.219 173.427 312.218 173.385 312.24 173.352C312.259 173.312 312.276 173.276 312.292 173.246L316.231 165.8L316.05 165.784L307.946 164.346C307.906 164.343 307.867 164.334 307.83 164.322C307.784 164.306 307.752 164.279 307.734 164.242L307.634 164.037L316.251 165.605L320.557 157.449L320.657 157.654C320.682 157.703 320.684 157.748 320.665 157.788C320.64 157.831 320.621 157.863 320.609 157.885L316.449 165.704C316.483 165.695 316.539 165.699 316.616 165.715L325.173 167.231C325.217 167.241 325.26 167.251 325.303 167.26C325.34 167.273 325.367 167.298 325.386 167.335L325.486 167.54L316.429 165.899Z" fill="black"/>
<path d="M320.163 155.505C320.221 155.494 320.269 155.506 320.306 155.541C320.339 155.569 320.366 155.601 320.388 155.636L320.43 155.707L303.645 158.086C303.553 158.093 303.482 158.056 303.432 157.973L303.379 157.884L320.163 155.505Z" fill="black"/>
<path d="M310.688 142.73C310.217 142.108 309.686 141.635 309.095 141.311C308.494 140.987 307.872 140.799 307.228 140.749C306.584 140.7 305.935 140.78 305.279 140.989C304.624 141.199 304.002 141.527 303.412 141.973L296.141 147.473L295.991 147.275L303.262 141.775C303.874 141.312 304.522 140.973 305.208 140.758C305.894 140.542 306.575 140.464 307.252 140.523C307.929 140.583 308.582 140.782 309.21 141.12C309.829 141.458 310.382 141.949 310.87 142.593C311.357 143.237 311.681 143.906 311.842 144.599C311.992 145.29 312.004 145.97 311.877 146.638C311.75 147.305 311.489 147.94 311.095 148.541C310.701 149.142 310.199 149.674 309.587 150.136L302.316 155.636L302.166 155.438L309.421 149.95C310.01 149.505 310.498 148.993 310.884 148.415C311.264 147.842 311.52 147.236 311.653 146.599C311.78 145.966 311.771 145.319 311.626 144.658C311.472 143.995 311.159 143.353 310.688 142.73Z" fill="black"/>
<path d="M302.986 133.268L303.155 133.45L292.503 143.294L292.334 143.111L302.986 133.268Z" fill="black"/>
<path d="M280.875 123.139C281.598 122.25 282.372 121.562 283.196 121.075C284.015 120.584 284.851 120.284 285.704 120.177C286.551 120.066 287.396 120.144 288.239 120.411C289.081 120.678 289.888 121.126 290.659 121.753L294.676 125.024L285.52 136.272L281.503 133.002C280.731 132.374 280.129 131.675 279.697 130.904C279.264 130.133 279.017 129.322 278.954 128.469C278.886 127.612 279.009 126.733 279.324 125.831C279.634 124.926 280.151 124.028 280.875 123.139ZM281.083 123.309C280.373 124.182 279.866 125.057 279.563 125.932C279.25 126.809 279.124 127.659 279.184 128.482C279.243 129.306 279.483 130.089 279.903 130.831C280.317 131.569 280.894 132.239 281.633 132.841L285.458 135.954L294.353 125.027L290.528 121.914C289.789 121.312 289.016 120.884 288.209 120.628C287.397 120.367 286.582 120.291 285.763 120.4C284.945 120.508 284.14 120.802 283.35 121.28C282.55 121.76 281.794 122.436 281.083 123.309Z" fill="black"/>
<path d="M265.946 122.141L266.065 121.947L273.066 126.267L276.634 120.483L270.692 116.817L270.812 116.623L276.754 120.289L280.443 114.312L273.425 109.981L273.562 109.798L280.774 114.248L273.158 126.592L265.946 122.141Z" fill="black"/>
<path d="M257.003 116.37C257.052 116.347 257.095 116.345 257.133 116.362C257.189 116.389 257.246 116.493 257.305 116.674C257.355 116.859 257.457 117.079 257.61 117.336C257.757 117.59 257.975 117.862 258.265 118.153C258.551 118.45 258.956 118.724 259.48 118.974C260.016 119.229 260.533 119.372 261.031 119.403C261.52 119.437 261.97 119.384 262.381 119.244C262.793 119.103 263.159 118.888 263.481 118.597C263.797 118.304 264.049 117.961 264.236 117.568C264.477 117.063 264.581 116.596 264.548 116.168C264.509 115.736 264.386 115.329 264.178 114.947C263.97 114.564 263.697 114.197 263.36 113.845C263.02 113.499 262.672 113.154 262.316 112.808C261.958 112.469 261.61 112.123 261.273 111.771C260.936 111.419 260.666 111.046 260.464 110.651C260.259 110.263 260.144 109.845 260.121 109.397C260.088 108.953 260.197 108.466 260.45 107.936C260.706 107.4 261.035 106.941 261.439 106.56C261.84 106.184 262.295 105.904 262.804 105.718C263.311 105.539 263.861 105.468 264.455 105.507C265.048 105.545 265.663 105.716 266.299 106.019C266.742 106.23 267.118 106.459 267.429 106.707C267.742 106.948 268.011 107.21 268.236 107.493C268.451 107.78 268.632 108.084 268.777 108.405C268.919 108.733 269.038 109.085 269.135 109.46L269.08 109.479C269.052 109.489 269.03 109.494 269.015 109.494C268.997 109.501 268.972 109.497 268.941 109.482C268.903 109.464 268.87 109.398 268.84 109.285C268.8 109.174 268.748 109.027 268.683 108.843C268.615 108.665 268.526 108.466 268.417 108.245C268.308 108.025 268.158 107.793 267.968 107.549C267.775 107.312 267.539 107.077 267.26 106.844C266.971 106.615 266.621 106.402 266.21 106.206C265.605 105.918 265.023 105.759 264.463 105.729C263.897 105.696 263.375 105.765 262.896 105.934C262.408 106.107 261.976 106.372 261.6 106.728C261.217 107.081 260.908 107.504 260.674 107.997C260.477 108.408 260.373 108.795 260.362 109.156C260.344 109.515 260.393 109.852 260.51 110.168C260.625 110.491 260.793 110.796 261.014 111.086C261.227 111.378 261.47 111.663 261.744 111.939C262.015 112.221 262.298 112.493 262.593 112.757C262.886 113.026 263.167 113.302 263.438 113.584C263.709 113.866 263.954 114.155 264.173 114.451C264.382 114.75 264.543 115.063 264.654 115.392C264.762 115.727 264.807 116.081 264.79 116.455C264.763 116.832 264.647 117.236 264.442 117.666C264.243 118.084 263.974 118.446 263.637 118.752C263.297 119.064 262.908 119.295 262.469 119.446C262.03 119.596 261.55 119.655 261.031 119.621C260.505 119.585 259.958 119.431 259.391 119.161C258.755 118.857 258.243 118.487 257.855 118.05C257.46 117.609 257.155 117.062 256.939 116.408L257.003 116.37Z" fill="black"/>
<path d="M257.139 102.272L257.371 102.361L252.192 115.908L251.96 115.82L257.139 102.272Z" fill="black"/>
<path d="M244.844 98.4294C244.271 98.2734 243.747 98.1628 243.27 98.0976C242.786 98.0373 242.327 98.0127 241.895 98.0238C241.46 98.0416 241.043 98.0891 240.643 98.1662C240.234 98.2482 239.819 98.3536 239.397 98.4822L238.214 102.831L241.353 103.685C241.433 103.707 241.463 103.751 241.445 103.818L241.418 103.917L237.939 102.971L239.202 98.3324C239.612 98.1934 240.03 98.0781 240.455 97.9864C240.873 97.8996 241.313 97.8476 241.776 97.8304C242.232 97.8113 242.72 97.8332 243.239 97.8959C243.753 97.9568 244.306 98.068 244.899 98.2294C245.905 98.5033 246.774 98.9151 247.504 99.4647C248.233 100.021 248.807 100.689 249.225 101.468C249.636 102.246 249.882 103.118 249.962 104.085C250.041 105.058 249.929 106.098 249.628 107.204C249.329 108.304 248.9 109.25 248.341 110.043C247.779 110.842 247.115 111.47 246.346 111.926C245.578 112.383 244.725 112.663 243.788 112.765C242.844 112.866 241.843 112.773 240.783 112.484C240.263 112.343 239.796 112.18 239.381 111.995C238.964 111.818 238.59 111.612 238.26 111.379C237.923 111.144 237.619 110.882 237.346 110.594C237.074 110.305 236.82 109.978 236.583 109.613L236.626 109.571C236.662 109.545 236.696 109.536 236.73 109.545C236.783 109.56 236.876 109.667 237.007 109.868C237.137 110.075 237.353 110.32 237.655 110.602C237.949 110.89 238.352 111.186 238.863 111.49C239.373 111.8 240.031 112.065 240.837 112.284C241.85 112.56 242.81 112.65 243.717 112.553C244.622 112.463 245.446 112.197 246.189 111.755C246.932 111.313 247.577 110.704 248.124 109.93C248.671 109.156 249.093 108.225 249.388 107.139C249.684 106.053 249.796 105.038 249.723 104.095C249.644 103.15 249.403 102.3 248.999 101.546C248.596 100.793 248.045 100.149 247.346 99.6147C246.638 99.0856 245.804 98.6905 244.844 98.4294Z" fill="black"/>
<path d="M231.772 110.214C231.711 110.207 231.666 110.174 231.638 110.115L223.067 95.0398C223.069 95.075 223.069 95.1097 223.065 95.144C223.06 95.1851 223.056 95.2228 223.051 95.2571L221.441 109.004L221.236 108.98L222.923 94.5745L222.985 94.5817C223.026 94.5865 223.061 94.615 223.089 94.667L231.705 109.81C231.703 109.768 231.705 109.723 231.71 109.675C231.715 109.634 231.72 109.596 231.724 109.562L233.336 95.7941L233.542 95.8182L231.855 110.224L231.772 110.214Z" fill="black"/>
<path d="M209.119 105.276C209.138 105.615 209.047 105.9 208.844 106.131C208.638 106.361 208.356 106.487 207.997 106.507C207.642 106.527 207.348 106.436 207.113 106.234C206.879 106.036 206.752 105.755 206.731 105.392L206.719 105.176C206.7 104.837 206.792 104.554 206.994 104.327C207.197 104.101 207.481 103.977 207.848 103.956C208.211 103.936 208.507 104.027 208.738 104.229C208.965 104.436 209.088 104.71 209.107 105.054L209.119 105.276Z" fill="black"/>
<path d="M187.281 110.781C187.306 110.733 187.339 110.705 187.379 110.696C187.44 110.683 187.549 110.731 187.706 110.839C187.857 110.956 188.072 111.069 188.349 111.18C188.62 111.293 188.959 111.377 189.366 111.432C189.774 111.495 190.262 111.466 190.83 111.347C191.411 111.225 191.909 111.025 192.323 110.747C192.732 110.478 193.058 110.162 193.299 109.801C193.541 109.439 193.702 109.046 193.782 108.62C193.855 108.195 193.846 107.77 193.757 107.344C193.642 106.796 193.441 106.362 193.155 106.041C192.862 105.722 192.517 105.473 192.119 105.296C191.722 105.118 191.283 104.992 190.801 104.916C190.321 104.848 189.834 104.784 189.342 104.726C188.851 104.673 188.365 104.61 187.883 104.535C187.402 104.46 186.961 104.326 186.561 104.135C186.162 103.951 185.818 103.688 185.527 103.347C185.231 103.014 185.023 102.56 184.902 101.986C184.78 101.404 184.763 100.84 184.853 100.292C184.944 99.7502 185.135 99.2512 185.427 98.7945C185.721 98.3446 186.115 97.9547 186.61 97.6247C187.106 97.2947 187.698 97.0573 188.387 96.9123C188.867 96.8114 189.306 96.7651 189.703 96.7733C190.098 96.7749 190.471 96.82 190.822 96.9086C191.167 97.0055 191.494 97.1377 191.805 97.3053C192.117 97.4797 192.425 97.6866 192.729 97.9261L192.697 97.9751C192.681 97.9997 192.667 98.0167 192.655 98.0263C192.644 98.0427 192.622 98.0544 192.588 98.0615C192.548 98.0701 192.481 98.0382 192.388 97.966C192.29 97.9019 192.159 97.8165 191.996 97.7098C191.834 97.6098 191.642 97.5053 191.422 97.3964C191.201 97.2875 190.942 97.1939 190.643 97.1156C190.345 97.044 190.015 97.0005 189.652 96.9852C189.283 96.978 188.876 97.0213 188.43 97.1151C187.774 97.2529 187.215 97.4799 186.752 97.796C186.283 98.1136 185.909 98.485 185.632 98.9104C185.349 99.3439 185.166 99.8164 185.083 100.328C184.993 100.841 185.004 101.364 185.116 101.898C185.21 102.344 185.362 102.715 185.572 103.009C185.776 103.305 186.02 103.543 186.305 103.723C186.591 103.91 186.91 104.051 187.262 104.147C187.608 104.25 187.974 104.329 188.359 104.382C188.746 104.442 189.137 104.486 189.531 104.516C189.927 104.553 190.318 104.601 190.705 104.661C191.092 104.721 191.461 104.802 191.815 104.904C192.163 105.015 192.48 105.167 192.768 105.36C193.057 105.561 193.308 105.815 193.521 106.123C193.729 106.439 193.882 106.831 193.98 107.297C194.075 107.75 194.082 108.2 193.999 108.648C193.918 109.102 193.749 109.523 193.492 109.909C193.234 110.294 192.888 110.632 192.455 110.92C192.015 111.211 191.487 111.42 190.872 111.55C190.183 111.695 189.551 111.711 188.977 111.599C188.396 111.488 187.822 111.238 187.253 110.85L187.281 110.781Z" fill="black"/>
<path d="M175.752 115.792L175.68 115.575L183.487 112.981L181.344 106.532L174.717 108.734L174.645 108.517L181.272 106.316L179.057 99.65L171.231 102.25L171.179 102.027L179.221 99.3553L183.794 113.119L175.752 115.792Z" fill="black"/>
<path d="M156.916 108.397L157.085 108.317C157.141 108.291 157.193 108.304 157.241 108.358L161.141 111.876L168.052 108.607L167.805 103.36C167.794 103.289 167.823 103.237 167.892 103.205L168.042 103.134L168.775 118.832L168.588 118.92L156.916 108.397ZM168.066 108.83L161.305 112.028L168.204 118.254C168.267 118.308 168.325 118.357 168.377 118.401C168.425 118.455 168.478 118.51 168.535 118.567C168.528 118.487 168.522 118.409 168.517 118.335C168.509 118.27 168.505 118.196 168.503 118.112L168.066 108.83Z" fill="black"/>
<path d="M153.926 127.148L153.808 126.953L158.469 124.13L151.071 111.92L151.284 111.791L158.682 124.001L163.378 121.156L163.496 121.351L153.926 127.148Z" fill="black"/>
<path d="M144.357 134.383L144.219 134.202L148.545 130.888L139.863 119.555L140.06 119.404L148.742 130.737L153.101 127.398L153.239 127.579L144.357 134.383Z" fill="black"/>
<path d="M132.293 126.171L126.933 131.269L126.776 131.103L132.316 125.835L142.312 136.345L142.131 136.516L132.293 126.171Z" fill="black"/>
<path d="M129.407 150.252L129.233 150.104L134.554 143.831L129.371 139.435L124.854 144.76L124.68 144.613L129.197 139.288L123.84 134.745L118.506 141.034L118.346 140.871L123.827 134.407L134.888 143.789L129.407 150.252Z" fill="black"/>
<path d="M116.464 144.401C116.598 144.498 116.686 144.63 116.728 144.797C116.765 144.969 116.729 145.13 116.62 145.281C116.51 145.432 116.365 145.515 116.185 145.529C116 145.549 115.801 145.482 115.589 145.328C115.158 145.016 114.813 144.621 114.553 144.143C114.284 143.667 114.102 143.177 114.006 142.673L114.05 142.666C114.079 142.661 114.102 142.665 114.118 142.677C114.135 142.689 114.153 142.723 114.172 142.78C114.204 142.888 114.25 143.037 114.31 143.225C114.364 143.409 114.443 143.607 114.546 143.818C114.649 144.029 114.779 144.238 114.935 144.445C115.088 144.658 115.276 144.846 115.5 145.008C115.463 144.836 115.503 144.669 115.62 144.507C115.718 144.372 115.843 144.293 115.998 144.268C116.158 144.247 116.313 144.292 116.464 144.401Z" fill="black"/>
<path d="M123.421 158.062L123.336 158.228C123.308 158.283 123.259 158.304 123.188 158.291L109.201 155.909C109.099 155.896 109.004 155.878 108.914 155.856C108.828 155.843 108.737 155.823 108.641 155.798C108.718 155.86 108.789 155.92 108.853 155.976C108.92 156.041 108.989 156.111 109.06 156.186L118.977 166.541C119.029 166.59 119.041 166.643 119.013 166.698L118.984 166.754C118.956 166.809 118.906 166.83 118.836 166.817L104.632 164.86C104.435 164.836 104.248 164.799 104.073 164.748C104.238 164.88 104.378 165.009 104.491 165.136L114.625 175.067C114.677 175.116 114.686 175.175 114.651 175.243L114.576 175.391L103.749 164.699L103.843 164.515L118.439 166.545C118.575 166.568 118.685 166.589 118.768 166.608C118.703 166.552 118.622 166.476 118.524 166.379L108.317 155.749L108.412 155.564L123.421 158.062Z" fill="black"/>
<path d="M97.1466 182.294L97.2068 182.117C97.2269 182.058 97.2729 182.03 97.345 182.033L102.586 181.687L105.055 174.451L101.119 170.973C101.06 170.931 101.043 170.874 101.068 170.802L101.121 170.645L112.894 181.055L112.827 181.251L97.1466 182.294ZM105.224 174.596L102.809 181.675L112.082 181.063C112.165 181.054 112.24 181.047 112.308 181.041C112.38 181.044 112.456 181.044 112.537 181.043C112.474 180.992 112.414 180.943 112.358 180.894C112.306 180.854 112.249 180.806 112.189 180.749L105.224 174.596Z" fill="black"/>
<path d="M72.8266 249.619L72.6053 248.682L22.3395 240.947C19.8137 240.555 17.4961 240.723 15.2727 237.751L14.6966 237.887L16.9096 247.249L17.4858 247.113C18.2242 244.125 19.8111 242.153 23.3582 242.683L33.0502 244.118L38.4769 267.396L29.7461 273.566C26.8289 275.7 25.1031 274.511 23.3851 272.712L22.9531 272.814L25.8811 285.201L26.3132 285.099C27.3397 282.043 29.0209 281.113 31.0491 279.721L72.8266 249.619ZM64.8852 248.834L39.527 266.691L34.2326 244.294L64.8852 248.834Z" fill="black"/>
<path d="M57.3179 323.83C52.6372 324.384 47.0918 323.218 43.5881 316.869L37.0456 305.012L78.6412 282.06C80.5201 281.023 82.7633 280.799 84.305 282.062L84.6937 281.847L79.1522 271.805L78.7635 272.019C79.0093 273.996 77.6242 275.775 75.7453 276.812L38.0372 297.619C36.1582 298.656 33.9151 298.88 32.3734 297.617L31.9846 297.832L48.1801 327.182L57.4609 324.089L57.3179 323.83Z" fill="black"/>
<path d="M89.8585 360.265C85.7925 361.681 80.1326 361.958 74.8801 356.434L64.987 346.032L84.8276 327.163L93.3948 336.172C95.4347 338.317 94.2586 341.376 92.5164 344.054L92.8224 344.375L102.475 335.196L102.169 334.874C99.2456 336.633 96.2926 337.501 94.2528 335.356L85.6856 326.347L102.309 310.539L110.519 319.172C115.517 324.427 114.956 330.066 113.016 334.362L113.22 334.576L118.967 326.66L96.9884 303.548L96.6667 303.854C97.4053 305.705 96.5158 307.776 94.9608 309.255L63.752 338.934C62.1969 340.413 60.0835 341.198 58.2724 340.367L57.9506 340.673L81.8675 365.822L90.0625 360.48L89.8585 360.265Z" fill="black"/>
<path d="M151.027 354.748C153.323 353.793 155.796 352.686 159.4 352.859L159.666 352.414L152.046 347.855L151.78 348.3C153.09 350.722 151.685 353.072 149.11 354.205L129.12 362.683L128.14 340.97C127.944 336.973 128.869 335.715 131.687 336.194L131.915 335.813L121.056 329.316L120.828 329.697C122.926 332.677 122.346 335.52 122.451 338.515L123.46 362.919L100.705 372.416C98.4093 373.371 95.936 374.478 92.3315 374.305L92.0656 374.749L99.6861 379.308L99.952 378.864C98.6417 376.441 99.9838 374.054 102.622 372.959L123.513 364.416L124.545 386.763C124.677 390.723 123.561 391.866 120.616 391.312L120.388 391.693L131.565 398.379L131.793 397.998C129.759 395.056 130.352 392.479 130.144 388.647L129.211 364.117L151.027 354.748Z" fill="black"/>
<path d="M190.988 359.022L190.038 358.869L163.678 402.362C162.351 404.546 161.62 406.752 158.024 407.671L157.93 408.255L167.427 409.788L167.521 409.204C165.042 407.379 163.826 405.159 165.672 402.084L170.702 393.676L194.287 397.558L196.652 407.985C197.509 411.496 195.751 412.636 193.432 413.536L193.361 413.975L205.926 416.003L205.997 415.565C203.565 413.448 203.349 411.539 202.838 409.133L190.988 359.022ZM187.228 366.061L194.037 396.319L171.318 392.651L187.228 366.061Z" fill="black"/>
<path d="M250.186 357.395C252.284 358.432 253.63 359.953 253.976 362.296L259.659 400.803L218.862 361.569L213.371 362.379L213.436 362.819C215.374 363.281 216.555 365.201 217.042 368.495L223.092 409.491C223.438 411.834 222.588 413.679 220.806 415.289L220.871 415.728L228.265 414.637L228.2 414.198C226.175 413.15 224.682 411.65 224.337 409.307L218.351 368.751L261.208 409.775L262.233 409.624L255.221 362.112C254.875 359.77 255.871 357.902 257.507 356.314L257.442 355.875L250.121 356.955L250.186 357.395Z" fill="black"/>
<path d="M260.547 355.023L260.751 355.417C262.734 355.227 264.473 356.661 265.457 358.568L285.203 396.843C286.187 398.75 286.348 400.998 285.043 402.504L285.247 402.899L301.885 394.315C314.906 387.597 320.698 371.869 313.641 358.19C306.21 343.788 290.404 339.619 277.382 346.337L260.547 355.023ZM268.782 351.94L277.792 347.292C288.577 341.727 299.986 346.25 307.688 361.178C315.118 375.58 312.13 387.864 301.344 393.428L292.532 397.974L268.782 351.94Z" fill="black"/>
<path d="M340.383 333.233C343.972 326.576 344.368 319.772 339.591 315.026C330.562 306.055 322.003 313.095 313.71 321.442L303.175 332.046L303.49 332.359C305.319 331.568 307.047 332.033 308.937 333.911L339.489 364.265C341.012 365.778 341.856 367.868 341.077 369.702L341.392 370.015L349.476 361.878L349.161 361.565C347.332 362.356 345.236 361.526 343.714 360.013L329.698 346.088L333.922 341.835C335.122 340.628 336.217 339.421 337.207 338.11L357.11 344.01C360.619 345.097 363.395 345.769 362.721 347.916L363.036 348.229L370.964 340.25L370.649 339.937C367.409 341.203 363.166 339.804 360.233 339.081L340.383 333.233ZM328.963 345.357L310.012 326.529L314.132 322.382C320.704 315.768 326.602 311.301 334.949 319.593C342.088 326.687 339.759 334.491 333.031 341.263L328.963 345.357Z" fill="black"/>
<path d="M388.886 290.981C391.445 294.443 393.39 299.766 389.675 306.421L382.677 318.956L358.77 305.611L364.829 294.756C366.272 292.171 369.542 292.386 372.616 293.255L372.833 292.867L361.202 286.375L360.986 286.763C363.533 289.032 365.238 291.594 363.795 294.179L357.736 305.034L337.705 293.853L343.512 283.45C347.047 277.118 352.598 275.979 357.276 276.556L357.42 276.298L348.154 273.16L332.609 301.009L332.997 301.225C334.545 299.971 336.787 300.205 338.661 301.251L376.267 322.243C378.141 323.289 379.517 325.074 379.261 327.05L379.649 327.266L396.565 296.962L389.031 290.722L388.886 290.981Z" fill="black"/>
<path d="M355.602 248.959L355.386 249.897L397.021 279.102C399.112 280.572 401.264 281.449 401.941 285.098L402.517 285.232L404.681 275.858L404.104 275.725C402.119 278.077 399.822 279.141 396.877 277.094L388.824 271.514L394.272 248.241L404.833 246.578C408.394 245.957 409.415 247.787 410.158 250.161L410.59 250.261L413.453 237.859L413.02 237.76C410.746 240.045 408.827 240.133 406.392 240.482L355.602 248.959ZM362.374 253.181L393.019 248.407L387.842 270.832L362.374 253.181Z" fill="black"/>
<path d="M355.134 181.765L355.356 182.701L405.621 190.437C408.147 190.829 410.465 190.661 412.688 193.633L413.264 193.497L411.051 184.135L410.475 184.271C409.737 187.259 408.15 189.231 404.603 188.701L394.911 187.266L389.484 163.988L398.215 157.818C401.132 155.684 402.858 156.873 404.576 158.672L405.008 158.57L402.08 146.183L401.648 146.285C400.621 149.341 398.94 150.271 396.912 151.663L355.134 181.765ZM363.076 182.549L388.434 164.693L393.728 187.089L363.076 182.549Z" fill="black"/>
<path d="M370.653 107.564C375.334 107.01 380.879 108.176 384.383 114.525L390.925 126.382L349.33 149.334C347.451 150.371 345.208 150.595 343.666 149.332L343.277 149.547L348.819 159.589L349.207 159.375C348.961 157.398 350.347 155.619 352.226 154.582L389.934 133.775C391.813 132.738 394.056 132.515 395.597 133.777L395.986 133.562L379.791 104.212L370.51 107.305L370.653 107.564Z" fill="black"/>
<path d="M338.112 71.1187C342.178 69.7029 347.838 69.4264 353.091 74.9496L362.984 85.3525L343.143 104.221L334.576 95.2121C332.536 93.0672 333.712 90.0085 335.454 87.3304L335.148 87.0087L325.496 96.1879L325.802 96.5096C328.725 94.7511 331.678 93.8831 333.718 96.028L342.285 105.037L325.662 120.845L317.452 112.212C312.454 106.957 313.014 101.318 314.954 97.0223L314.75 96.8078L309.003 104.724L330.982 127.836L331.304 127.53C330.565 125.679 331.455 123.608 333.01 122.129L364.219 92.4497C365.774 90.9709 367.887 90.1865 369.698 91.0171L370.02 90.7111L346.103 65.5618L337.908 70.9042L338.112 71.1187Z" fill="black"/>
<path d="M276.944 76.6363C274.648 77.5911 272.175 78.6984 268.57 78.5255L268.305 78.97L275.925 83.5288L276.191 83.0842C274.881 80.662 276.286 78.3123 278.861 77.1795L298.851 68.7012L299.831 90.4141C300.027 94.4115 299.102 95.6691 296.284 95.1905L296.056 95.5715L306.915 102.068L307.143 101.687C305.045 98.7071 305.625 95.8636 305.52 92.8687L304.511 68.4654L327.266 58.9683C329.562 58.0134 332.035 56.9061 335.639 57.0791L335.905 56.6345L328.285 52.0758L328.019 52.5203C329.329 54.9426 327.987 57.3302 325.349 58.4251L304.458 66.9679L303.426 44.6206C303.294 40.6612 304.409 39.5176 307.354 40.0721L307.582 39.6911L296.406 33.0049L296.178 33.3859C298.212 36.3276 297.619 38.9046 297.827 42.737L298.76 67.2673L276.944 76.6363Z" fill="black"/>
<path d="M236.972 72.3718L237.922 72.5251L264.282 29.0321C265.609 26.8477 266.34 24.642 269.937 23.7234L270.031 23.1389L260.534 21.6058L260.44 22.1903C262.918 24.0147 264.134 26.2348 262.289 29.3099L257.258 37.7178L233.674 33.8356L231.309 23.4095C230.452 19.898 232.21 18.7576 234.529 17.8577L234.6 17.4193L222.034 15.391L221.964 15.8293C224.395 17.9459 224.612 19.8548 225.123 22.261L236.972 72.3718ZM240.732 65.333L233.923 35.0752L256.643 38.7428L240.732 65.333Z" fill="black"/>
<path d="M177.785 73.9893C175.687 72.9525 174.34 71.4308 173.995 69.0882L168.311 30.5813L209.109 69.815L214.6 69.0046L214.535 68.5654C212.597 68.1034 211.416 66.1833 210.929 62.889L204.879 21.8931C204.533 19.5505 205.383 17.7046 207.165 16.0952L207.1 15.6559L199.706 16.7472L199.771 17.1864C201.795 18.2341 203.288 19.7341 203.634 22.0768L209.62 62.6334L166.763 21.6093L165.738 21.7605L172.75 69.2719C173.096 71.6145 172.1 73.4819 170.464 75.0698L170.529 75.509L177.85 74.4285L177.785 73.9893Z" fill="black"/>
<path d="M167.424 76.3613L167.22 75.9667C165.237 76.1573 163.498 74.7231 162.514 72.8159L142.767 34.5415C141.783 32.6344 141.622 30.3858 142.927 28.88L142.724 28.4854L126.085 37.0693C113.064 43.7872 107.273 59.5151 114.33 73.1939C121.76 87.5962 137.567 91.7649 150.588 85.047L167.424 76.3613ZM159.189 79.4442L150.179 84.0924C139.394 89.6567 127.984 85.1345 120.283 70.2061C112.852 55.8039 115.841 43.5204 126.626 37.9561L135.439 33.4097L159.189 79.4442Z" fill="black"/>
<path d="M87.578 98.1509C83.9892 104.808 83.5927 111.612 88.3698 116.358C97.3991 125.329 105.958 118.289 114.25 109.942L124.786 99.3381L124.471 99.0252C122.642 99.816 120.914 99.3507 119.024 97.4731L88.4713 67.1186C86.9489 65.6061 86.1049 63.5158 86.8838 61.6819L86.5689 61.3689L78.4848 69.5058L78.7997 69.8187C80.6286 69.0279 82.7243 69.8583 84.2467 71.3708L98.2631 85.2963L94.0385 89.5484C92.8389 90.7558 91.744 91.9629 90.7541 93.2743L70.8509 87.3738C67.3415 86.2864 64.5661 85.6152 65.2393 83.4676L64.9243 83.1547L56.9967 91.134L57.3117 91.447C60.5518 90.1806 64.7948 91.5796 67.7274 92.3027L87.578 98.1509ZM98.998 86.0265L117.949 104.855L113.829 109.002C107.257 115.616 101.359 120.083 93.012 111.79C85.8726 104.697 88.2019 96.8931 94.9299 90.1211L98.998 86.0265Z" fill="black"/>
<path d="M39.4702 140.572C36.8908 137.125 34.915 131.813 38.5905 125.136L45.5132 112.56L69.4995 125.763L63.5045 136.654C62.0771 139.247 58.806 139.051 55.7264 138.201L55.5123 138.59L67.1813 145.013L67.3954 144.624C64.835 142.37 63.1144 139.818 64.5418 137.225L70.5367 126.334L90.6333 137.396L84.8881 147.833C81.3911 154.186 75.8469 155.358 71.1656 154.808L71.0229 155.068L80.3069 158.151L95.6868 130.21L95.2978 129.996C93.7575 131.26 91.5141 131.039 89.6341 130.004L51.9043 109.236C50.0243 108.201 48.6374 106.424 48.8812 104.446L48.4922 104.232L31.7563 134.636L39.3275 140.831L39.4702 140.572Z" fill="black"/>
<path d="M72.3587 182.435L72.5751 181.497L30.9394 152.292C28.8484 150.822 26.6964 149.945 26.02 146.296L25.4432 146.162L23.2794 155.536L23.8562 155.669C25.842 153.317 28.1384 152.253 31.0834 154.3L39.1366 159.88L33.6882 183.153L23.1275 184.816C19.5666 185.437 18.5462 183.607 17.8031 181.233L17.3705 181.133L14.5076 193.535L14.9402 193.634C17.2144 191.349 19.1335 191.261 21.5685 190.912L72.3587 182.435ZM65.5867 178.213L34.9418 182.987L40.1183 160.562L65.5867 178.213Z" fill="black"/>
</g>
<defs>
<clipPath id="clip0">
<rect width="426.33" height="428.1" fill="white" transform="translate(1.6438 0.825195) rotate(0.22)"/>
</clipPath>
</defs>
</svg>
